<svg xmlns="http://www.w3.org/2000/svg" xml:space="preserve" width="512" height="512" style="enable-background:new 0 0 512 512" viewBox="0 0 64 64"><path fill="#C6A603" d="M3.4 52.877a2.6 2.6 0 0 1-1.838-4.438l18.277-18.277a2.6 2.6 0 1 1 3.676 3.676L5.238 52.115a2.587 2.587 0 0 1-1.838.762zM22.862 52.877a2.6 2.6 0 0 1-1.838-4.438l18.277-18.277a2.6 2.6 0 1 1 3.676 3.676L24.701 52.115a2.59 2.59 0 0 1-1.839.762zM42.323 52.877a2.6 2.6 0 0 1-1.838-4.438l18.277-18.277a2.6 2.6 0 1 1 3.676 3.676L44.162 52.115a2.587 2.587 0 0 1-1.839.762z" data-original="#000000"/><path fill="#C6A603" d="M60.6 34.6a2.587 2.587 0 0 1-1.838-.762L40.485 15.561a2.6 2.6 0 1 1 3.677-3.676l18.276 18.277A2.6 2.6 0 0 1 60.6 34.6zM41.138 34.6a2.59 2.59 0 0 1-1.838-.762L21.024 15.561a2.6 2.6 0 1 1 3.677-3.676l18.276 18.277a2.6 2.6 0 0 1-1.84 4.438zM21.677 34.6a2.587 2.587 0 0 1-1.838-.762L1.562 15.561a2.6 2.6 0 1 1 3.676-3.676l18.277 18.277a2.6 2.6 0 0 1-1.838 4.438z" data-original="#000000"/></svg>