<svg xmlns="http://www.w3.org/2000/svg" version="1.1" xmlns:xlink="http://www.w3.org/1999/xlink" xmlns:svgjs="http://svgjs.com/svgjs"  width="512" height="512" x="0" y="0" viewBox="0 0 64 64" style="enable-background:new 0 0 512 512" xml:space="preserve" class=""><g transform="matrix(1.3,0,0,1.3,-9.599999427795353,-9.600037193298284)"><g><g id="LINE_55_"><g><path d="m10 48.059c-.512 0-1.024-.195-1.414-.586-.781-.781-.781-2.047 0-2.828l14.059-14.059c.78-.781 2.048-.781 2.828 0 .781.781.781 2.047 0 2.828l-14.059 14.059c-.39.391-.902.586-1.414.586z" fill="#C6A603" data-original="#000000"></path></g></g><g id="LINE_56_"><g><path d="m24.971 48.059c-.512 0-1.023-.195-1.414-.586-.781-.781-.781-2.047 0-2.828l14.059-14.059c.78-.781 2.047-.781 2.828 0s.781 2.047 0 2.828l-14.059 14.059c-.39.391-.903.586-1.414.586z" fill="#C6A603" data-original="#000000"></path></g></g><g id="LINE_57_"><g><path d="m39.941 48.059c-.512 0-1.024-.195-1.414-.586-.781-.781-.781-2.047 0-2.828l14.059-14.059c.78-.781 2.048-.781 2.828 0 .781.781.781 2.047 0 2.828l-14.059 14.059c-.39.391-.902.586-1.414.586z" fill="#C6A603" data-original="#000000"></path></g></g><g id="LINE_58_"><g><path d="m54 34c-.512 0-1.024-.195-1.414-.586l-14.059-14.059c-.781-.781-.781-2.047 0-2.828.78-.781 2.048-.781 2.828 0l14.059 14.059c.781.781.781 2.047 0 2.828-.39.391-.902.586-1.414.586z" fill="#C6A603" data-original="#000000"></path></g></g><g id="LINE_59_"><g><path d="m39.029 34c-.512 0-1.023-.195-1.414-.586l-14.058-14.059c-.781-.781-.781-2.047 0-2.828.78-.781 2.047-.781 2.828 0l14.059 14.059c.781.781.781 2.047 0 2.828-.391.391-.903.586-1.415.586z" fill="#C6A603" data-original="#000000"></path></g></g><g id="LINE_60_"><g><path d="m24.059 34c-.512 0-1.024-.195-1.414-.586l-14.059-14.059c-.781-.781-.781-2.047 0-2.828.78-.781 2.048-.781 2.828 0l14.059 14.059c.781.781.781 2.047 0 2.828-.39.391-.902.586-1.414.586z" fill="#C6A603" data-original="#000000"></path></g></g></g></g></svg>