<svg xmlns="http://www.w3.org/2000/svg" xml:space="preserve" style="shape-rendering:geometricPrecision;text-rendering:geometricPrecision;image-rendering:optimizeQuality;fill-rule:evenodd;clip-rule:evenodd" viewBox="3226.96 4819.33 8329.42 11375.59"><defs><style>.fil1{fill:#d7b56d}.fil0{fill:#0a8041}</style></defs><g id="Слой_x0020_1"><g id="_1737493401312"><path d="M7512.82 10171.46c-5.71 36.39-10.82 74.89-16.19 117.43-6.55 51.83-10.45 74.67-9.26 125.85l-.53 65.93c-5.87 160.78-66.46 353.57-237.29 407.45-190.05 59.88-383.14-58.21-432.74-252.61-11.35-44.55-12.95-80.26-7.8-124.61 30.77-264.61 245.62-385.56 357.21-455.71-16.95-9.05-33.76-18.51-50.32-28.44-9.12 3.24-18.45 6.53-27.98 9.67-307.01 101.05-367.34 247.3-503.74 405.42-55.58-12.75-168.89-35.26-223.46-82.37-81.36-70.16-82.26-174.96-36.6-227.85 69.7-80.82 94.21-108.28 206.16-152.81 133.28-53.04 423.28-80.19 548.06-102.91-37.05-33.8-72.63-69.94-106.54-108.4l-133.95 11.65c-137.57 17.08-403.56 37.11-533.39 85.77-140.07 52.5-282.03 136.52-328.23 292.34-14.84 50.03-17.32 71.89-13.87 119.61 12.44 172.99 106.6 259.19 252.19 334.22 21.9 11.29 31.13 11.88 54.16 19.77l147.34 32.57c33.35 2.62 63.35-5.2 93.79 21.05 1.11.97 18.68 237.01 165.15 363.33 159.7 137.75 284.42 186.66 473.89 172.64 80.57-5.95 182.06-31.38 251.84-69.02 12.21-6.59 39.14-24.73 50.34-32.06 183.36-119.91 257.35-366.58 242.71-574.9l-27.99-228.51c-8.04-64.91-13.52-90.73-17.77-132.9-45.67-.97-90.78-4.83-135.19-11.6zM8319.29 9775.28c78.85-1.99 362.69-2.9 443.2 9.33 52.46 7.99 100.83 8.89 153.19 22.72 103.39 27.3 148.75 62.11 226.97 129.59 66.18 57.09 66.61 182.98-13.47 261.86-30.54 30.08-37.56 41.37-68.28 59-64.42 36.9-114.68 59.35-192.84 65.29-179.82 13.69-71.97 12.8-204.47-3.41-161.11-19.72-350.38-141.16-466.46-277.7-12.6 7.12-25.32 13.89-38.13 20.5 6.59 13.69 17.3 31.15 31.52 56.66 95.62 171.72 241.83 300.2 426.09 367.6 2.2.8 4.62 1.85 6.79 2.61 51.33 18.22 89.28 15 76.56 73.16-21.29 97.45-88.28 214.78-191.76 240.62-15.02 3.73-28.54 4.14-45.56 7.65-131.41 26.97-281.84-81.84-336.03-173.05-141.61-238.21-146.21-349.37-182.33-491.29-40.72 11.12-82.19 19.77-124.27 25.94l12.36 151.05c18.24 169.59 57.34 378.05 148.65 529.28 147.24 243.99 362.73 315.98 635.32 255.52 183.73-40.78 313.13-176.44 364.23-355.61 30.77-107.95 10.47-127.04 24.01-186.21 77.95-21.49 101.66-7.94 220.1-53.26 186-71.17 324.1-209.01 308.48-420.54-16.37-222.21-191.38-331.33-375.86-404.11-139.33-54.92-559.35-58.2-734.66-42.71-32.47 45.57-66.97 88.81-103.35 129.51zM7779.81 10692.71c-23.83 127.23-10.86 215.97-45.83 402.34-25.9 138.09-30.27 190.5-79.22 341.68l-35.01 99.86c-44.6 122.92-128.81 239.39-213.86 344.9-45.93 46.03-91.24 97.28-136.03 153.8-132.41 166.3-238.54 348.39-318.03 545.95-79.5 197.86-119.09 374.47-119.09 529.81 0 133.09 30.72 237.19 91.86 313.25 61.45 75.73 145.08 113.76 251.51 113.76 79.82 0 163.43-29.64 251.19-88.62 87.43-59.29 175.47-145.68 264.18-258.78 31.36-40.93 55.76-76.7 73.18-107.01 17.41-29.97 25.96-52.19 25.96-66.07 0-17.4-10.44-37.04-31.33-58.32-21.23-21.59-40.25-32.23-57.68-32.23-15.51 0-33.24 18.05-53.52 53.82-14.26 25.77-26.93 45.76-38.01 60.27-67.48 93.14-134.96 163.39-201.79 211.09-66.82 47.37-131.47 71.21-193.86 71.21-47.2 0-82.69-17.07-106.43-51.55-23.75-34.17-35.8-85.4-35.8-153.41 0-129.55 33.27-280.05 99.79-451.5 66.51-171.45 159.96-345.16 280.02-520.8 82.36-119.57 161.23-212.7 236.61-279.41 75.71-66.72 140.03-99.9 193.25-99.9 27.85 0 48.77 9.01 62.72 27.37 13.94 18.07 20.89 45.14 20.89 81.24 0 52.84-13.93 102.47-41.82 148.87-27.85 46.41-67.77 85.73-119.72 117.95-26.61 16.44-59.55 31.92-98.86 46.73-39.26 14.84-58.9 29.99-58.9 45.77 0 21.28 9.5 45.77 28.84 73.17 19 27.37 37.37 40.92 54.49 40.92 22.47 0 54.16-10.32 95.66-30.62 41.17-20.63 79.81-45.77 115.6-76.06 62.42-54.14 110.23-113.43 142.87-178.21 32.63-64.46 49.09-131.82 49.09-202.4 0-79.92-20.28-141.47-61.12-184.65-40.86-43.2-98.53-64.79-172.64-64.79-44.46 0-91.41 8.93-140.85 26.76 55.33-144.67 61.42-279.46 67.7-440.35 5.46-139.08 4.23-201.31-13.26-344.85-7.75-63.91-1.54-100.83-32.75-160.99zm776.93 4942.08c-46.87 22.25-93.77 39.96-139.99 53.18-46.26 13.21-90.92 20.95-134.32 23.54l36.41-127.64c37.08-1.93 72.24-8.04 105.81-18.04 33.58-9.99 66.83-24.81 99.48-43.84 1.25-60.25 9.5-125.68 25-195.6 15.53-70.28 40.25-153.09 74.15-248.81 41.48-114.09 72.53-187.56 93.11-221.08 20.59-33.18 42.14-49.95 64.3-49.95 48.48 0 84.91 5.81 109.6 17.4 24.71 11.6 37.08 29.33 37.08 52.52 0 13.22-13.31 48.35-39.91 105.39-26.62 56.73-47.21 102.82-61.45 138.27-33.27 81.84-57.03 148.24-70.64 199.48-13.63 51.25-20.28 96.69-20.28 136.32 0 24.18 4.74 41.91 14.26 53.83 9.79 11.93 24.39 18.04 44.34 18.04 45.62 0 98.2-34.81 157.12-104.75 59.23-69.92 113.72-162.73 164.09-278.44 24.69-56.07 48.78-123.43 72.22-202.05 24.71-84.13 55.76-126.35 92.81-126.35 37.06 0 69.06 6.78 95.66 20.3 26.61 13.55 39.91 30.62 39.91 51.58 0 11.92-7.3 35.44-22.18 70.58-11.08 25.77-19.62 46.73-25.02 62.18l-210.02 588.49c33.58-7.41 91.56-15.47 174.53-23.54 7.62-.63 13.32-1.27 17.76-1.93l-36.12 127.64c-57.63 5.78-101.35 11.26-131.46 16.42-30.08 5.48-56.37 11.61-79.5 18.69-41.81 151.47-89.34 264.26-142.23 337.76-52.91 73.8-112.14 110.54-178.35 110.54-32 0-56.71-8.07-73.8-24.51-16.79-16.42-25.35-40.27-25.35-71.85 0-58.35 22.19-116.35 66.21-173.71 44.04-57.06 103.27-103.13 177.4-137.61 30.07-76.39 58.29-149.53 84.25-219.81 25.97-70.25 50.37-138.9 73.5-205.6-65.57 122.13-129.89 211.74-192.9 268.45-63.05 56.72-129.26 85.09-198.3 85.09-31.05 0-59.58-7.41-85.54-22.56-25.65-15.15-43.08-34.48-51.64-58.02zm-1311.73 76.72 36.41-127.64c33.92-1.93 63.99-6.11 90.92-13.21 26.62-6.76 50.69-16.42 72.22-29-2.83-14.51-5.38-29.33-6.96-44.81-1.6-15.45-2.22-32.55-2.22-51.55 0-72.51 13.61-144.71 40.87-216.26 27.23-71.85 65.57-137.28 114.99-196.57 60.81-72.51 125.44-127.31 194.17-164.37 68.41-37.07 139.38-55.74 212.54-55.74 28.84 0 56.71 3.53 83.33 10.96 26.6 7.08 54.49 18.36 83.63 33.51l144.75-408c4.13-11.93 10.14-29.33 17.43-51.89 34.52-102.16 82.66-153.08 143.82-153.08 49.4 0 84.56 5.15 105.47 15.14 21.22 10 31.67 27.07 31.67 50.92 0 11.27-8.86 36.1-26.93 74.77-11.71 24.48-20.58 43.84-26.92 58.33l-166.92 392.86c-61.16 143.09-111.19 278.11-150.15 405.09-38.97 127.3-58.28 209.48-58.28 246.54 0 33.52 9.5 57.04 28.17 70.91 19.01 13.86 55.44 22.56 109.93 26.42l-36.1 126.67h-16.79c-96.93 0-165.36-10.33-204.95-31.28-39.61-20.63-59.25-56.07-59.25-105.7 0-21.92 3.82-48.99 11.08-81.21 7.62-31.91 19.95-73.16 37.07-123.75-63.67 116.65-128.27 203.34-193.54 260.4-65.26 57.03-133.36 85.4-204.64 85.4-35.15 0-67.15-6.12-95.66-18.37-28.5-12.26-49.09-28.69-62.08-48.99-24.71 18.37-57.03 32.88-97.26 43.18-39.92 10.32-89.95 17.07-149.82 20.32zm870.81-721.59c-11.11-5.15-21.88-8.7-32.65-11.28-10.45-2.57-20.9-3.86-31.34-3.86-44.66 0-89.65 15.14-134.97 45.44-45.6 30.29-91.22 75.09-136.83 135.02-39.59 50.92-71.91 105.39-96.62 163.41-24.71 58-37.07 105.69-37.07 143.72 0 28.37 6.68 50.92 20.28 67.36 13.63 16.77 31.67 25.14 53.86 25.14 53.85 0 114.99-48.66 183.39-146.31 68.12-97.65 138.76-237.19 211.95-418.64zm-959.53 134.06c-31.01-4.82-54.78-16.74-70.93-34.8-16.17-18.37-24.08-42.86-24.08-73.81 0-44.47 12.36-81.52 37.07-110.84 25-29.33 56.38-43.84 94.08-43.84 41.5 0 73.78 17.07 96.6 50.92 23.11 34.17 34.54 81.54 34.54 142.76 0 76.06-12.04 153.74-35.81 232.69-23.77 78.96-57.32 151.47-100.73 217.86-45.93 70.25-95.02 123.1-147.6 157.91-52.6 35.13-109.29 52.54-170.1 52.54-44.04 0-82.05-5.81-114.69-17.41-32.63-11.92-60.17-29.65-83.32-53.5-40.53 20.62-82.98 36.73-126.69 47.69-43.39 10.96-91.23 17.41-143.17 19.36l37.06-127.64c33.89-1.93 64.3-6.44 91.21-13.21 26.95-7.09 51.33-16.75 72.88-29.33-7.29-20.94-12.99-42.53-16.48-65.74-3.8-22.88-5.71-47.37-5.71-73.14 0-69.95 13.96-142.13 42.14-216.92 28.19-75.07 66.82-141.46 115.62-199.16 42.77-51.88 93.76-93.77 153.31-125.68 59.54-32.22 114.67-48.33 166.31-48.33 13.6 0 24.07 2.89 31.99 9.01 7.59 5.8 11.39 13.87 11.39 24.17 0 13.86-14.88 35.77-44.99 65.43-30.06 29.97-52.88 55.11-69.04 75.4-63.66 80.91-112.77 163.39-146.66 246.55-33.88 83.47-51 161.79-51 234.6 0 34.81 7.6 61.88 22.8 81.24 15.21 19.64 36.1 29.32 62.72 29.32 63.69 0 125.75-46.42 186.58-139.23 60.81-92.8 92.19-197.88 94.7-314.87zm-1121.03-323.55c31.67 3.22 61.44 10.3 89.01 21.26 27.87 10.96 55.12 26.44 81.74 46.74 67.44-50.92 119.72-104.76 156.14-161.15 36.43-56.4 54.82-109.89 54.82-160.17 0-48.02-11.1-84.76-33.59-110.21-22.17-25.47-54.78-38.36-97.24-38.36-29.78 0-60.18 6.45-90.59 19.34-30.73 12.88-62.09 32.24-94.41 58.34-7.92 51.56-17.43 104.41-28.2 158.55-10.76 54.47-23.44 109.57-37.68 165.66zm-193.85-34.17c-57.67 52.85-111.19 117.31-160.3 193.04-49.1 76.06-97.24 167.27-144.43 274.26-28.83 68.65-50.69 128.27-65.26 179.19-14.59 50.59-21.86 91.53-21.86 123.1 0 18.06 3.49 31.28 10.14 39.65 6.96 8.04 17.4 12.25 31.67 12.25 45.6 0 99.15-71.24 159.98-214 61.14-142.45 124.47-344.83 190.06-607.49zm-43.71 726.41c31.67 8.7 59.21 15.14 83.61 19.33 24.08 4.21 45.6 6.14 64.94 6.14 76.65 0 139.68-29.99 189.43-89.61 49.4-59.62 74.11-134.69 74.11-225.26 0-35.12-4.76-68-13.94-97.98-9.17-30.3-24.05-60.26-44.66-89.59-16.48 2.26-32.32 4.19-46.87 5.48-14.27 1.29-27.24 1.93-38.34 1.93-11.72 0-24.71-.31-38.97-1.29-14.25-.97-29.76-2.57-46.55-4.5-25.35 97.65-53.22 185.95-83.61 265.23-30.11 78.95-63.38 149.2-99.15 210.12zm-79.84 147.93c-38.33 54.14-80.14 95.39-125.44 124.39-45.29 28.69-91.55 43.18-139.37 43.18-57.67 0-101.37-19.97-131.47-60.25-30.09-40.29-44.99-98.95-44.99-175.64 0-85.09 20.28-182.74 60.83-292.63 40.53-110.23 97.57-221.73 171.37-334.2 59.56-90.88 123.55-172.09 192.59-244.62 69.06-72.51 134-126.96 194.81-163.38 1.6-16.44 3.82-38.67 6.34-67.03 8.56-105.39 23.13-167.27 43.72-186.27 12.35-11.93 35.48-23.85 69.69-35.78 33.89-11.92 61.76-18.06 83.31-18.06 9.5 0 17.4 4.19 24.07 12.25 6.98 8.38 10.45 17.74 10.45 28.37 0 5.81-.64 11.92-1.58 19-.94 6.78-1.89 14.51-3.16 22.58 37.04-26.44 76.33-46.73 117.82-60.91 41.5-14.19 82.36-21.29 122.28-21.29 77.91 0 141.29 27.73 189.76 82.83 48.46 55.11 72.84 126.65 72.84 214.97 0 94.43-28.51 179.17-85.83 254.26-57.03 74.77-140.03 135.35-248.68 181.45 41.17 54.14 71.6 107.95 91.55 161.78 19.95 53.82 30.09 108.29 30.09 163.06 0 118.28-39.59 218.84-118.79 301.98-79.18 83.15-176.44 124.73-292.07 124.73-49.4 0-97.87-6.12-145.08-18.37-47.18-12.26-95.66-31.26-145.06-56.4zm4960.76-2674.9c76.65-13.22 146.99-66.39 210.67-159.2 63.66-92.81 137.14-254.59 220.77-485.03-14.24-14.49-24.71-30.62-31.69-48.33-6.65-17.73-10.12-37.7-10.12-60.28 0-45.44 12.34-83.14 36.74-113.1 24.38-29.99 55.13-44.81 92.19-44.81 34.21 0 61.12 9.34 80.76 28.37 19.95 19 29.78 44.14 29.78 75.4 0 15.15-1.58 29.33-4.76 42.22-2.83 12.89-7.9 26.1-14.88 39.32 31.69 19.99 72.53 44.15 122.59 72.51 90.91 49.95 136.52 99.27 136.52 148.57 0 41.58-24.69 114.72-74.11 220.11-49.42 105.06-74.13 176.61-74.13 214.33 0 22.55 8.56 38.66 25.34 47.69 17.12 9.01 61.12 16.75 132.09 23.2l-36.1 126.67h-27.87c-111.52 0-191.65-13.22-240.45-39.33-49.09-26.1-73.48-68.32-73.48-126.98 0-52.21 23.44-129.87 70.32-233 46.59-102.8 70.02-168.88 70.02-197.88 0-13.86-7.94-28.04-24.09-42.86-16.15-14.84-43.39-33.51-81.72-56.4-82.98 243.97-168.52 419.28-256.57 525.96-87.69 106.19-191.71 162.89-312.34 170.38l-.02.11h-25.33c-69.06 0-130.2-7.74-182.47-23.22-52.56-15.47-98.19-39.32-136.53-71.21-59.84 29-120.04 51.22-180.23 67.03-60.5 15.78-121.01 24.81-182.45 27.4l37.39-127.64c42.44-3.22 82.03-9.01 118.15-18.04 36.1-8.7 71.26-20.63 105.16-35.77-23.45-31.59-40.55-67.36-51.65-107.65-11.07-40.28-16.79-87.65-16.79-141.79 0-125.69 42.15-235.26 126.71-328.4 84.58-93.13 184.36-139.86 299.35-139.86 64.3 0 115.3 19.64 152.68 58.96 37.37 39.32 56.09 93.13 56.09 161.15 0 74.11-26.95 156.3-80.47 245.89-53.55 89.58-124.81 168.87-214.15 237.52 25.99 24.48 54.17 41.89 84.89 52.52 30.74 10.32 68.42 15.47 113.08 15.47h11.11zm-283.19-166.28c64.3-42.87 118.47-100.56 162.18-173.4 44.02-72.51 65.9-135.99 65.9-190.13 0-27.07-6.34-47.7-19.33-61.88-12.99-14.18-32-21.28-56.71-21.28-51.31 0-96.93 30.62-136.52 92.17-39.61 61.24-59.23 132.46-59.23 213.67 0 30.95 3.47 57.69 10.12 79.94 7 22.22 18.06 42.52 33.59 60.91zm-1050.4 234.28c-32 18.38-69.06 32.24-110.26 42.23-41.47 9.67-88.68 15.46-141.26 17.41l37.07-127.64c34.21-1.93 64.6-6.44 91.53-13.22 26.93-7.08 51.33-17.07 72.86-29.63-5.07-20.32-8.54-38.36-11.08-54.8-2.55-16.44-3.8-31.58-3.8-45.44 0-54.47 12.36-124.06 37.07-208.52 24.71-84.43 59.21-173.38 103.25-267.15l12.05-24.5c42.77-91.85 82.66-137.92 119.71-137.92 39.61 0 75.71 9.01 107.71 27.38 32.32 18.37 48.47 38.68 48.47 61.57 0 9.34-12.66 38.33-37.7 87.32-25.02 48.67-46.24 91.85-63.66 128.91-40.23 89.28-70.64 165.65-90.92 228.82-20.59 63.17-30.73 113.45-30.73 150.5 0 23.21 6.35 42.21 18.68 57.05 12.38 14.82 28.53 22.23 48.15 22.23 52.27 0 111.19-45.11 176.77-135.35 65.57-90.25 113.08-197.87 142.22-323.25-30.39-3.22-53.83-15.47-70.31-37.06-16.48-21.92-24.71-51.89-24.71-90.25 0-46.07 12.66-83.77 38.03-113.76 25.33-29.96 57.94-44.78 97.55-44.78 43.08 0 76.65 14.49 100.42 43.51 23.77 29 35.77 69.29 35.77 120.84 0 63.5-17.73 139.54-52.89 228.49-35.15 88.64-83.63 177.26-144.75 265.24-57.03 81.85-113.08 141.47-168.23 179.19-55.1 37.38-114.03 56.07-177.36 56.07-37.07 0-69.7-5.8-98.21-17.07-28.5-11.29-49.09-26.76-61.44-46.42zm-500.18-234.28c64.28-42.87 118.44-100.56 162.16-173.4 44.04-72.51 65.92-135.99 65.92-190.13 0-27.07-6.34-47.7-19.34-61.88-12.99-14.18-31.99-21.28-56.7-21.28-51.33 0-96.93 30.62-136.52 92.17-39.61 61.24-59.23 132.46-59.23 213.67 0 30.95 3.46 57.69 10.11 79.94 6.98 22.22 18.06 42.52 33.6 60.91zm-95.68 199.49c-59.85 29-120.04 51.22-180.24 67.03-60.29 15.72-120.57 24.75-181.81 27.38v.02h-21.55c-69.37 0-123.23-10-161.54-30.32-38.34-19.97-63.05-51.22-74.13-93.44-40.87 38.34-84.58 67.99-131.15 88.62-46.24 20.95-94.38 32.55-143.81 35.14l35.16-127.64c32.31 0 66.52-9.67 103.25-28.67 36.43-19.35 77.62-49.65 123.58-91.21 20.25-143.09 48.76-290.38 84.88-442.48 36.1-152.12 78.87-302.31 127.64-450.88 40.88-122.77 79.2-207.53 114.68-254.59 35.79-46.73 76.66-70.25 123.22-70.25 31.06 0 56.38 12.56 76.66 37.7 19.95 25.14 30.09 57.69 30.09 97.34 0 48.97-18.04 111.5-54.47 187.56-36.12 75.73-85.22 152.76-147.32 230.75-47.49 155.65-85.83 298.43-114.64 428.63-28.84 130.51-43.1 216.89-43.1 259.74 0 34.18 8.23 58.66 25.04 73.81 16.78 15.14 44.65 22.55 83.61 22.55l-18.04 63.83 18.67-63.83c42.47-3.22 82.06-9.01 118.16-18.04 36.12-8.7 71.27-20.63 105.16-35.77-23.44-31.59-40.53-67.36-51.64-107.65-11.08-40.28-16.79-87.65-16.79-141.79 0-125.69 42.16-235.26 126.72-328.4 84.57-93.13 184.36-139.86 299.35-139.86 64.3 0 115.3 19.64 152.67 58.96 37.38 39.32 56.07 93.13 56.07 161.15 0 74.11-26.92 156.3-80.45 245.89-53.54 89.58-124.82 168.87-214.14 237.52 25.98 24.48 54.16 41.89 84.89 52.52 30.74 10.32 68.42 15.47 113.08 15.47h12.99l-36.43 127.64h-25.32c-69.07 0-130.2-7.74-182.48-23.22-52.56-15.47-98.2-39.32-136.52-71.21zm-3279.19 17.71c-46.87 22.25-93.75 39.96-139.99 53.18-46.26 13.21-90.92 20.95-134.3 23.54l36.4-127.64c37.07-1.93 72.25-8.04 105.8-18.04 33.6-9.99 66.85-24.81 99.48-43.84 1.27-60.25 9.5-125.68 25.02-195.61 15.53-70.27 40.24-153.08 74.13-248.8 41.5-114.09 72.53-187.56 93.11-221.08 20.61-33.19 42.14-49.95 64.32-49.95 48.46 0 84.91 5.81 109.6 17.4 24.71 11.6 37.06 29.33 37.06 52.52 0 13.22-13.3 48.35-39.91 105.39-26.6 56.72-47.21 102.82-61.45 138.26-33.27 81.85-57.04 148.24-70.64 199.49-13.61 51.25-20.28 96.69-20.28 136.32 0 24.17 4.74 41.91 14.26 53.83 9.81 11.93 24.39 18.04 44.33 18.04 45.63 0 98.21-34.81 157.13-104.75 59.23-69.92 113.72-162.73 164.09-278.44 24.69-56.07 48.78-123.43 72.22-202.05 24.71-84.13 55.76-126.35 92.83-126.35 37.04 0 69.04 6.78 95.63 20.3 26.62 13.55 39.94 30.62 39.94 51.58 0 11.92-7.3 35.44-22.2 70.58-11.07 25.77-19.62 46.73-25 62.18l-210.02 588.49c33.56-7.41 91.54-15.47 174.53-23.54 7.6-.64 13.3-1.27 17.76-1.93l-36.15 127.64c-57.62 5.78-101.34 11.26-131.43 16.41-30.1 5.48-56.4 11.62-79.53 18.7-41.8 151.46-89.31 264.26-142.2 337.76-52.93 73.8-112.14 110.53-178.35 110.53-32 0-56.71-8.06-73.82-24.5-16.79-16.42-25.33-40.27-25.33-71.85 0-58.35 22.17-116.35 66.21-173.71 44.02-57.06 103.25-103.13 177.38-137.61 30.09-76.39 58.29-149.54 84.27-219.81 25.96-70.25 50.35-138.9 73.5-205.6-65.6 122.13-129.9 211.74-192.92 268.44-63.05 56.73-129.24 85.09-198.3 85.09-31.05 0-59.56-7.4-85.52-22.55-25.68-15.15-43.1-34.48-51.66-58.02zm-1986.13-691.27c-10.78 21.9-24.71 38.67-42.44 49.63-17.74 10.96-38.65 16.44-62.72 16.44-48.48 0-85.85-19.99-112.14-59.63-26.29-39.65-39.59-96.68-39.59-170.81 0-150.5 45.93-279.74 137.79-387.38 91.86-107.63 202.1-161.46 330.72-161.46 88.7 0 157.74 22.25 207.47 67.03 49.73 44.8 74.76 106.68 74.76 186.29 0 43.18-7.61 99.91-23.13 169.83-15.53 69.95-40.24 159.2-74.13 267.48 139.38-252.66 256.28-429.26 351.3-529.81 94.72-100.87 188.16-151.15 280.35-151.15 55.11 0 97.88 17.73 128.6 52.87 30.73 35.11 45.93 84.74 45.93 148.24 0 78.62-48.47 226.88-145.71 444.74l-21.53 46.4c161.23-252.03 296.79-431.85 406.71-539.8 109.6-107.98 210.34-162.12 301.88-162.12 50.69 0 92.19 17.41 124.49 52.54 32.64 34.81 48.79 79.59 48.79 134.39 0 78.32-51.95 242.67-155.55 493.07l-25.02 60.59-14.88 36.76c-104.21 253.3-156.18 403.16-156.18 449.89 0 42.85 14.26 74.11 42.77 93.77 28.53 19.66 75.1 30.62 139.4 32.55l-36.12 127.64h-27.57c-122.58 0-212.23-20.63-268.3-61.88-56.05-41.25-83.94-106.35-83.94-194.99 0-77.99 61.45-262.97 184.67-554.32 25.98-61.22 45.93-108.28 60.19-141.8l9.51-21.59c54.81-131.16 82.03-211.74 82.03-242.03 0-13.85-4.43-25.45-12.99-35.44-8.54-9.67-18.99-14.51-30.73-14.51-47.49 0-135.86 79.28-264.79 237.51-129.26 158.24-245.5 343.56-348.77 555.61-32.64 65.43-63.98 132.46-94.08 201.42-30.09 68.98-58.29 138.9-84.89 210.14-10.77 28.67-23.76 46.71-39.59 54.45-15.84 7.43-41.5 11.28-76.65 11.28-53.22 0-92.52-4.51-117.87-13.85-25.65-9.03-38.32-22.88-38.32-41.91 0-10.63 23.11-67.99 68.76-171.12 36.1-82.81 65.88-151.46 89.32-206.26 86.77-202.71 154.25-370.94 203.03-505 48.48-133.75 72.86-218.82 72.86-254.59 0-19.67-5.7-35.78-16.79-48.66-11.08-12.89-25.01-19.36-41.8-19.36-59.23 0-141.59 70.27-246.76 210.78-105.18 140.83-207.49 320.35-306.33 539.5-37.04 82.5-74.44 174.67-111.5 275.85-37.07 101.53-58.29 158.56-63.97 171.13-12.36 29.02-25.66 47.06-39.92 53.5-13.94 6.77-42.44 9.99-85.21 9.99-43.72 0-77.93-4.84-101.99-14.18-24.09-9.34-36.14-22.55-36.14-39.63 0-17.73 22.82-82.19 68.76-194.03 45.6-111.5 83.3-207.53 113.08-288.1 48.78-128.91 87.76-250.74 116.57-365.14 28.82-114.41 43.08-198.19 43.08-251.06 0-43.18-10.44-76.69-31.05-100.21-20.89-23.54-50.36-35.47-88.7-35.47-64.28 0-119.72 33.21-165.98 99.6-46.56 66.37-69.67 145.35-69.67 237.19 0 38.99 6.34 74.77 19 106.99 12.67 32.55 29.78 56.4 51.62 72.2z" class="fil0"/><path d="M7240.22 7169.21c-69.91-28.22 52.15 4 52.15-133.97-554.42 148.03-461.06-254.47-222.58-257.86 202.01-2.88 273.91 304.74 362.61 439.69-93.44-298.25 136.12-244.07 241.19-400.75-49.96-187.09-295.09-414.04-263.62-1060.14 7.56-155.45 253.15-841.45 317.25-936.85-139.34 54.45-438.54 604.92-498.27 755.86-199.2 503.42-71.76 672.45 59.96 1058.33-272.56-144.24-676.3-73.95-683.89 268.16-9.52 427.98 349.58 445.93 635.2 267.53z" class="fil1"/><path d="M7515.52 6084.18c-6.49 110.6 87.05 238.48 139.27 295.3 57.29-53.76 129.42-121.5 145.64-282.72 9.16-184.54-275.09-179.78-284.91-12.58z" class="fil1"/><path d="M8537.27 8991.47c90.5 22 422.16 8.16 433.53 167.55 6.3 41.27 5.77 38.77-19.78 80.82-61.76 101.63-312.04 151.71-442.94 179.93a1946.986 1946.986 0 0 1-68.73 121.35c165.38-5.97 272.45-15.86 446.57-48.16 89.6-16.61 281.17-82.26 332.15-141.37 86.75-100.56 106.06-140.4 65.35-268.32-51.56-162.06-233.4-236.64-382.11-274.89-46.4-11.95-296.56-17.88-341.65-22.97-1.89 69.92-9.57 138.72-22.39 206.06zM6738.84 8870.79c-55.04-1.5-109.31 17.07-161.4 36.74-185.05 69.9-540.91 220.48-544.4 441.78-1.44 92.48 54.08 155.06 123.1 208.97 158.11 123.55 581.04 110.54 780.61 85.87-26.85-39.03-52.71-79.34-77.27-120.78-85.17 3.18-180.12 1.77-311.59-20.19-425.1-70.95-108.9-400.15 229.76-428.7-17.88-66.45-31.09-134.47-38.81-203.69z" class="fil0"/><path d="M7797.94 9410.28c-60.86-22.03-31.15-3.62-127.78-115.73-122.46-142.05-268.48-413.84-299.74-607.83-77.43 211.08 48.95 715.51 237.59 1009.67-351.25-235.09-465.32-793.39-375.64-1178.2-301.67 331.52-22 1100.17 310.61 1525.2-440.67-295.06-641.96-863.45-611.82-1392.9 14.95-263.16 142.82-802.85 380.13-981.74 315.93-224.68 92.89-572.94 181.36-559.02 78.63 150.82 67.39 453.44 37.79 521.14-23.93 54.76-44.23 108.86-61.23 162.27-197.35 620.39 54.1 1151.45 328.73 1617.14z" class="fil1"/><path d="M7520.46 9410.28c60.86-22.03 31.15-3.62 127.79-115.73 122.46-142.05 268.48-413.84 299.74-607.83 77.42 211.08-48.95 715.51-237.59 1009.67 351.25-235.09 465.31-793.39 375.64-1178.2 301.67 331.52 22 1100.17-310.61 1525.2 440.66-295.06 641.96-863.45 611.82-1392.9-14.96-263.16-142.83-802.85-380.13-981.74-315.93-224.68-92.9-572.94-181.36-559.02-78.63 150.82-67.39 453.44-37.79 521.14 23.92 54.76 44.23 108.86 61.23 162.27 197.35 620.39-54.1 1151.45-328.74 1617.14z" class="fil1"/><path d="M8078.31 7169.21c69.91-28.22-52.15 4-52.15-133.97 554.42 148.03 461.06-254.47 222.58-257.86-202.01-2.88-273.91 304.74-362.61 439.69 93.44-298.25-136.12-244.07-241.19-400.75 49.96-187.09 295.09-414.04 263.62-1060.14-7.56-155.45-253.15-841.45-317.26-936.85 139.35 54.45 438.54 604.92 498.28 755.86 199.2 503.42 71.76 672.45-59.97 1058.33 272.57-144.24 676.31-73.95 683.9 268.16 9.52 427.98-349.58 445.93-635.2 267.53z" class="fil1"/></g></g></svg>