<svg id="Gradient" enable-background="new 0 0 64 64" height="512" viewBox="0 0 64 64" width="512" fill="#C6A603" xmlns="http://www.w3.org/2000/svg" xmlns:xlink="http://www.w3.org/1999/xlink"><linearGradient id="lg1"><stop offset="0" stop-color="#00a5e9"/><stop offset="1" stop-color="#15ffce"/></linearGradient><linearGradient id="SVGID_1_" gradientUnits="userSpaceOnUse" x1="32" x2="32" xlink:href="#lg1" y1="59" y2="5"/><linearGradient id="SVGID_2_" gradientUnits="userSpaceOnUse" x1="17" x2="17" xlink:href="#lg1" y1="59" y2="5"/><linearGradient id="SVGID_3_" gradientUnits="userSpaceOnUse" x1="47" x2="47" xlink:href="#lg1" y1="59" y2="5"/><path d="m21.586 51.414c.391.391.902.586 1.414.586s1.023-.195 1.414-.586l18-18c.781-.781.781-2.047 0-2.828s-2.047-.781-2.828 0l-18 18c-.781.781-.781 2.047 0 2.828z"/><path d="m8 52c.512 0 1.023-.195 1.414-.586l18-18c.781-.781.781-2.047 0-2.828s-2.047-.781-2.828 0l-18 18c-.781.781-.781 2.047 0 2.828.391.391.902.586 1.414.586z"/><path d="m36.586 51.414c.391.391.902.586 1.414.586s1.023-.195 1.414-.586l18-18c.781-.781.781-2.047 0-2.828s-2.047-.781-2.828 0l-18 18c-.781.781-.781 2.047 0 2.828z"/><path d="m39.586 33.414c.391.391.902.586 1.414.586s1.023-.195 1.414-.586c.781-.781.781-2.047 0-2.828l-18-18c-.781-.781-2.047-.781-2.828 0s-.781 2.047 0 2.828z"/><path d="m24.586 33.414c.391.391.902.586 1.414.586s1.023-.195 1.414-.586c.781-.781.781-2.047 0-2.828l-18-18c-.781-.781-2.047-.781-2.828 0s-.781 2.047 0 2.828z"/><path d="m54.586 33.414c.391.391.902.586 1.414.586s1.023-.195 1.414-.586c.781-.781.781-2.047 0-2.828l-18-18c-.781-.781-2.047-.781-2.828 0s-.781 2.047 0 2.828z"/></svg>