<svg id="Capa_1" enable-background="new 0 0 512.009 512.009" height="512" viewBox="0 0 512.009 512.009" width="512" xmlns="http://www.w3.org/2000/svg"><g><g id="Layer_39"><path d="m507.334 224.175c-6.637-5.004-16.664-3.318-24.375-3.4-11.041-.117-22.074-.462-33.1-1.034-20.806-1.051-41.513-3.55-61.971-7.479.296-1.31.481-2.642.555-3.983 43.693 10.04 92.231-5.113 122.323-38.418.57-.575.567-1.503-.008-2.074-.343-.341-.833-.49-1.308-.399-12.729 1.215-16.146-14.649-17.976-23.938-1.857-9.424-5.067-16.865-12.356-23.327-7.122-6.316-14.899-11.344-20.947-18.841-3.577-4.433-6.799-9.105-10.212-13.625 4.53-.894 8.922-2.385 13.06-4.433 1.162 3.261 4.747 4.962 8.008 3.801.009-.003.018-.006.027-.01 3.413-1.331 5.363-5.503 3.583-8.827-1.613-2.69-4.745-4.072-7.82-3.452-2.861.574-4.784 3.273-4.393 6.164-4.844 1.196-9.494 3.102-14.363 4.292-2.069-2.66-4.298-5.192-6.674-7.583.675-2.892 1.306-5.796 1.851-8.717 9.881-.141 20.511-1.636 29.213-5.916 1.398 3.248 5.087 4.842 8.41 3.634 3.666-1.433 5.785-5.922 3.863-9.505-1.727-2.866-5.069-4.338-8.349-3.676-3.49.689-5.773 4.455-4.425 7.699-5.452 1.628-10.669 3.648-16.293 4.758-4.008.782-8.069 1.267-12.149 1.451.282-1.568.556-3.138.798-4.713.612-3.986 1.489-8.449 1.956-12.873 6.975-4.427 14.363-8.751 20.574-14.058 1.423 2.821 4.733 4.13 7.7 3.046 3.412-1.331 5.358-5.503 3.583-8.827-1.613-2.69-4.746-4.073-7.821-3.452-3.119.62-5.264 3.971-4.196 6.901-6.881 3.666-13.276 8.722-19.61 13.516.185-2.551.087-5.114-.29-7.644-.504-2.886-2.457-5.31-5.17-6.417.08-4.431-.48-9.024-2.504-12.22 2.542-1.795 3.411-5.166 2.055-7.966-1.613-2.69-4.744-4.072-7.818-3.453-3.325.658-5.537 4.424-3.939 7.474-.078.121-.096.27-.05.406.853 3.383 4.287 5.433 7.67 4.579.002-.001.004-.001.007-.002.282 2.521 1.307 5.027 1.692 7.539.178 1.155.298 2.319.39 3.485-.678.14-1.321.413-1.892.805-6.204 4.205-5.607 15.476-6.718 21.888-.104.606-.221 1.212-.329 1.817-3.656-4.908-7.814-9.42-12.408-13.463 1.864-1.895 2.32-4.764 1.136-7.144-1.613-2.69-4.746-4.073-7.821-3.452-3.324.658-5.536 4.424-3.939 7.474-.077.121-.095.27-.049.406.838 3.369 4.249 5.421 7.618 4.583.206-.051.408-.113.608-.184.403-.158.788-.356 1.151-.592 4.675 4.802 9.077 9.624 13.27 14.746-.464 2.527-.949 5.051-1.457 7.572-11.672-5.985-26.354-8.472-38.995-4.481-10.46 3.303-19.39 10.395-25.77 19.23-.9-13.308-7.252-25.097-19.41-31.755-6.745-3.691-14.262-5.7-21.726-7.347-8.756-1.933-17.78-4.004-26.801-3.792-10.333.243-17.534 5.126-26.665 9.104-11.186 4.872-23.942.911-29.074-10.551-.274-.61-1.8-1.711-2.467-1.056-10.563 10.385-1.099 25.087.33 36.969 1.062 8.83-3.464 14.995-8.992 21.244-4.486 5.067-8.327 10.119-10.471 16.629-4.29 13.029-2.172 25.697 3.694 36.779-4.565-4.364-9.919-7.876-15.668-9.245-4.8-1.142-10.008-.791-14.236 1.915-2.424 1.552-4.216 3.767-6.213 5.797-2.738 2.87-6.404 4.677-10.348 5.099-4.993.752-9.255 1.733-12.596 5.828-3.458 4.244-4.672 9.895-4.267 15.257.137 1.689.4 3.365.787 5.015-.067-.04-.139-.071-.213-.094-28.763-5.793-55.253 8.93-76.991 26.305-12.465 9.964-24.394 20.627-36.502 31.019-10.086 8.654-26.899 26.801-41.192 16.245-1.167-.862-2.563.881-1.598 1.912 21.171 22.547 44.461 44.013 70.915 60.235 26.392 16.186 57.416 28.511 88.862 27.641 13.882-.384 29.638-3.977 40.332-13.358.169.122.338.245.507.369-9.534 17.019-9.554 35.733-4.777 53.607-.308.288-.109.658.259.94 2.535 8.885 5.982 17.484 10.283 25.661 14.978 28.919 37.535 58.493 32.513 92.99-.149 1.018 1.518 2.309 2.394 1.496 23.286-21.624 46.472-43.353 69.559-65.188 16.92-15.953 45.849-36.76 37.693-63.825-.048-.154-.126-.298-.227-.424 4.189-1.727 8.85-1.935 13.177-.587.863.267 1.949-.265 1.156-1.229-8.331-10.139-4.398-23.77-2.339-35.378 2.046-11.532.681-21.197-5.302-31.312-5.402-9.13-11.437-17.488-15.37-27.427-3.923-9.915-7.281-20.999-6.486-31.795.675.147 1.352.282 2.028.418 2.084 14.402 9.212 27.957 17.072 39.997 3.974 6.12 8.396 11.938 13.229 17.406 5.899 6.635 13.644 11.769 17.014 20.315 4.476 11.351 1.082 27.415 11.844 35.747 12.608 9.76 28.423-.775 39.927-6.832 4.042-2.128 8.263-4.064 12.805-4.808 4.806-.787 9.502.155 14.228.981 6.61 1.156 14.168 2.177 19.475-2.914 4.868-4.671 5.516-11.991 4.462-18.296-1.388-8.316-4.638-16.03-5.209-24.534-1.059-16.48 3.837-32.792 13.796-45.965 5.938-7.766 27.164-22.362 13.193-32.896zm-44.707-145.076c.451-.941 1.216-1.695 2.162-2.135 1.852-.903 4.075-.489 5.479 1.018 1.496 1.897.492 4.634-1.128 6.084-2.511 2.248-5.023.997-6.62-1.529-.051-.074-.114-.137-.188-.188-.155-1.091-.054-2.204.295-3.25zm9.23-21.055c.491-1.034 1.328-1.863 2.367-2.344 2.066-1.003 4.545-.534 6.101 1.154 1.646 2.091.578 5.115-1.222 6.714-2.686 2.385-5.415 1.194-7.169-1.453.071-.217-.116-.489-.39-.715-.177-1.128-.069-2.282.313-3.358zm-5.742-27.218c.452-.94 1.216-1.695 2.162-2.135 1.852-.906 4.078-.493 5.483 1.016 1.496 1.897.493 4.634-1.128 6.084-2.51 2.248-5.023.997-6.62-1.529-.021-.025-.043-.048-.068-.07-.015-.146-.057-.288-.126-.417-.145-.993-.043-2.007.297-2.952zm-59.894 10.09c-.051-.074-.115-.137-.188-.188-.156-1.092-.055-2.205.294-3.251.451-.941 1.216-1.695 2.162-2.135 1.852-.903 4.075-.489 5.479 1.018 1.496 1.897.492 4.634-1.128 6.084-2.51 2.25-5.022 1-6.619-1.528zm-41.982 195.55c-5.3 5.91-11.22 8.971-19.322 8.525-6.922-.381-13.947-2.222-20.606-4.08-14.406-4.021-27.917-13.221-24.988-29.923.033-.734-.536-1.356-1.27-1.389-.1-.004-.201.002-.3.021-1.146-3.119-2.426-6.298-1.692-9.667.456-2.096 1.909-4.589 3.924-5.538 2.644-1.246 4.735 0 7.057.701 3.17.964 6.447 1.245 8.515-1.796 3.196-4.705-.457-10.649 2.04-15.498.685-1.311 1.84-2.314 3.234-2.809.123-.008.241-.052.34-.126 2.532-.871 5.8-.736 8.842-.723.6.302 1.272.376 1.598-.012 1.474.022 2.942-.183 4.354-.607 4.2-1.495 6.232-5.256 8.172-8.99 1.278-2.46 2.525-4.888 4.863-6.533 5.651-3.978 7.734 1.321 8.795 5.373.762 2.914 1.808 6.085 5.057 6.903 1.698.428 3.497-.03 5.17-.337 3.071-.564 5.386-.604 8.309.665-9.928 10.293-20.984 19.464-32.389 28.16-8.946-7.191-24.684 5.478-20.673 15.863 1.886 4.88 7.52 7.111 12.398 6.083 6.578-1.544 11.527-6.978 12.453-13.671.025-.225-.02-.452-.129-.65 12.71-8.079 24.49-17.533 35.128-28.193 2.806 5.245 4.982 9.909 4.161 16.152-.561 3.91-.844 7.855-.846 11.805v.032c-.264.396-.277.907-.034 1.316-.376 7.181-4.146 11.855-9.588 16.544-4.456 3.85-8.657 7.994-12.573 12.399zm-35.974-26.062c-.019.014-.031.03-.05.044-.568.081-.963.608-.882 1.176.024.17.09.331.192.47l2.126 3.214c.34.596 1.078.834 1.703.551 4.82-2.432 9.519-5.076 14.112-7.896-1.001 4.143-3.762 7.642-7.557 9.58-4.813 2.436-12.568 1.403-13.028-5.288-.282-4.042 2.693-8.694 5.76-11.115 3.811-3.008 8.124-3.222 12.472-1.731-4.911 3.73-9.881 7.381-14.848 10.995zm129.409-105.6c6.799 8.178 16.262 13.276 23.273 21.158 8.05 9.042 6.598 20.986 11.133 31.489 2.713 6.281 7.802 11.708 14.483 12.66-30.435 31.675-75.174 45.205-118.062 35.703 0-.376-.014-.752-.029-1.128-.003-2.75.211-5.497.64-8.214 13.115-7.63 27.053-13.747 41.547-18.236 1.128-.342-.476-1.927-1.316-1.658-14.126 4.416-27.608 10.678-40.094 18.625.132-1.21.195-2.426.188-3.643-.163-5.218-2.076-10.23-5.431-14.229 8.563-8.667 16.365-18.054 23.321-28.057 7.943 1.692 16.598 1.009 24.403-.666.039-.008.072-.023.109-.035 1.376 2.918 4.75 4.305 7.781 3.201 3.413-1.331 5.363-5.503 3.583-8.827-1.613-2.69-4.745-4.072-7.82-3.452-2.965.578-4.9 3.451-4.322 6.416.017.087.036.173.057.258h-.015c-7.69 1.773-14.781 1.661-22.314 1.001 4.924-7.27 9.393-14.837 13.382-22.659 4.39-.69 8.707-1.787 12.894-3.276 4.285-1.487 10.131-3.126 13.501-6.424 1.65 2.132 4.495 2.943 7.021 2.002 3.413-1.331 5.358-5.503 3.583-8.827-1.613-2.69-4.746-4.073-7.821-3.452-3.325.658-5.536 4.424-3.939 7.475-.077.12-.096.27-.05.405.042.164.094.321.151.479-4.459.958-8.788 4.033-13.098 5.583-3.533 1.235-7.129 2.279-10.774 3.127 5.113-10.403 9.345-21.216 12.653-32.325 3.07-.24 6.19-.611 9.266-1.157 3.998 5.587 7.718 11.393 12.116 16.683zm-24.482 39.054c.452-.941 1.216-1.695 2.162-2.135 1.852-.903 4.075-.489 5.479 1.018 1.496 1.897.493 4.634-1.128 6.085-2.511 2.248-5.023.997-6.62-1.529-.051-.074-.114-.137-.188-.188-.156-1.092-.055-2.205.295-3.251zm15.966-34.959c.452-.941 1.216-1.695 2.162-2.135 1.851-.903 4.075-.49 5.478 1.018 1.496 1.897.493 4.634-1.128 6.084-2.51 2.248-5.022.997-6.619-1.529-.051-.073-.115-.137-.188-.188-.155-1.091-.054-2.204.295-3.25zm-5.384-23.205c-2.248.476-4.512.894-6.787 1.232.689-2.412 1.328-4.837 1.915-7.276 1.721 1.941 3.326 3.971 4.872 6.044zm-15.297-68.712c-.051-.074-.114-.137-.188-.188-.156-1.092-.055-2.205.294-3.251.452-.941 1.216-1.695 2.162-2.135 1.852-.903 4.076-.49 5.48 1.017 1.496 1.897.493 4.634-1.128 6.084-2.509 2.248-5.021.997-6.618-1.529zm4.379 47.973c-1.034-1.719-2.155-3.428-3.331-5.119.912-6.009 1.669-12.071 3.05-17.927.342-1.453 1.368-5.292 3.085-6l1.034.418c.02 1.643-.011 3.29-.117 4.925-.058.909 1.461 1.198 1.617.261.218-1.308.427-2.811.585-4.411 2.256.079 3.277 1.147 3.044 3.221.044.81.042 1.621-.007 2.431-.061 2.14-.213 4.286-.408 6.428-.602.444-1.203.893-1.806 1.325-.868.622.215 2.131 1.101 1.543.15-.1.305-.196.456-.295-.099.945-.202 1.888-.309 2.829-.486 4.302-1.128 8.583-1.909 12.839-1.351.026-2.702.029-4.057 0-1.136-.024-.018 1.392.712 1.417 1.006.035 2.029.052 3.061.061-1.179 6.197-2.654 12.328-4.423 18.394-2.121.267-4.246.498-6.371.658-1.077.083-1.166 1.724-.044 1.706 1.88-.029 3.82-.094 5.791-.205-3.446 11.327-7.859 22.338-13.189 32.911l-3.094.719c-1.324.308-.636 1.969.525 1.893.423-.027.846-.072 1.266-.111-3.227 6.204-6.742 12.247-10.562 18.09-.868 1.328-1.767 2.632-2.665 3.939-.451-.046-.902-.092-1.355-.14-1.062-.113-1.209 1.454-.249 1.744.143.043.29.079.433.12-18.921 27.165-44.178 49.309-73.584 64.516-.256-.387-.512-.774-.768-1.16 17.997-13.1 35.991-26.553 51.056-43.051 8.892-9.78 16.599-20.574 22.964-32.159.924 1.349 1.831 2.697 2.704 4.042.376.577 2.167.979 1.572.042-1.165-1.832-2.305-3.714-3.442-5.609 3.462-6.419 6.549-13.033 9.245-19.809.061.134.129.264.188.399.384.856 2.396 1.151 1.863-.07-.376-.865-.775-1.725-1.176-2.583.288-.752.582-1.496.861-2.248 1.611-4.344 3.072-8.742 4.429-13.167.834.948 1.676 1.865 2.513 2.737.27.294.727.314 1.021.045.294-.27.314-.727.045-1.021-1.029-1.222-2.013-2.481-2.967-3.76 2.767-9.29 5.037-18.73 6.956-28.227.367-1.814.681-3.646.977-5.485.868 1.098 1.73 2.207 2.58 3.339.437.581 1.582.362 1.1-.436zm-46.128.703c12.897-4.343 26.518-2.026 38.471 3.933-.846 4.042-1.755 8.084-2.747 12.095-.947 3.835-1.976 7.649-3.086 11.442-.65-.96-1.287-1.93-1.891-2.921-1.711-2.809-2.941-5.849-4.526-8.707 2.295-1.851 3.004-5.043 1.709-7.692-1.613-2.69-4.745-4.072-7.82-3.452-3.325.658-5.537 4.424-3.939 7.474-.078.121-.096.27-.05.406.838 3.369 4.249 5.421 7.618 4.583.206-.051.408-.113.608-.184.054-.021.103-.048.156-.07 1.698 4.701 4.22 9.062 7.449 12.878-1.48 4.905-3.109 9.758-4.888 14.557-2.961-5.915-6.691-11.413-11.092-16.351 1.617-1.89 1.943-4.565.827-6.788-1.613-2.69-4.746-4.072-7.821-3.451-3.325.658-5.537 4.424-3.939 7.474-.077.12-.096.27-.05.405.839 3.37 4.25 5.422 7.62 4.583.205-.051.408-.112.607-.184.59-.232 1.142-.549 1.64-.94 4.311 5.479 8.112 11.341 11.356 17.512-2.681 6.99-5.761 13.821-9.224 20.459-3.72-6.241-7.488-12.556-11.913-18.134 1.758-1.894 2.158-4.68 1.003-6.993-1.613-2.69-4.746-4.072-7.821-3.451-3.325.658-5.537 4.424-3.939 7.474-.078.121-.096.27-.05.406.839 3.37 4.252 5.422 7.622 4.583.205-.051.407-.112.605-.183.549-.218 1.065-.509 1.535-.867 3.317 6.537 7.783 12.761 12.052 18.909-4.066 7.6-8.737 14.862-13.966 21.714-3.51 4.552-7.253 8.92-11.213 13.085-.052-.091-.119-.173-.199-.241-4.061-3.305-7.571-1.151-12.186-1.061-1.316.086-2.591-.475-3.417-1.504.13-6.337.76-12.497 2.914-18.518 1.134-3.169 2.61-6.204 4.404-9.052 1.699-2.699 4.071-4.973 5.581-7.752.451-.83-.616-1.559-1.322-1.07-5.019 3.484-8.193 10.968-10.165 16.609-2.029 5.62-2.923 11.586-2.632 17.553-1.188-3.066-1.614-7.183-4.23-8.961-3.76-2.549-8.318-.311-11.051 2.667-1.907 2.078-2.926 4.691-4.256 7.134-2.222 4.085-4.871 6.046-8.742 6.756 4.061-14.61 10.293-28.66 16.074-42.636 5.742-13.87 12.399-27.812 12.668-43.114.007-.363-.009-.721-.01-1.083 7.212-8.093 15.166-15.799 25.67-19.335zm17.631 12.314c-.156-1.092-.055-2.205.294-3.251.452-.941 1.216-1.695 2.162-2.135 1.852-.903 4.075-.489 5.479 1.018 1.496 1.897.492 4.634-1.128 6.084-2.51 2.248-5.022.997-6.619-1.529-.05-.074-.113-.137-.186-.188zm-11.137 13.058c-.155-1.092-.055-2.205.294-3.251.452-.94 1.216-1.695 2.162-2.135 1.851-.903 4.075-.49 5.478 1.018 1.496 1.897.493 4.634-1.128 6.084-2.51 2.248-5.022.997-6.62-1.529-.05-.073-.113-.137-.186-.187zm-10.716 20.728c-.156-1.092-.055-2.204.293-3.25.451-.941 1.216-1.695 2.162-2.135 1.851-.903 4.075-.49 5.478 1.017 1.496 1.898.493 4.635-1.128 6.084-2.51 2.248-5.022.998-6.619-1.528-.052-.074-.116-.137-.191-.188zm-164.115.822c2.087-6.064 5.765-10.955 9.979-15.698 3.796-4.273 7.862-8.719 9.261-14.43 3.283-13.395-11.478-30.653-1.716-42.587 6.282 10.692 19.371 15.278 30.953 10.846 9.087-3.555 16.316-9.128 26.467-9.536 9.538-.384 19.176 1.911 28.416 4.031 9.048 2.075 18.56 4.801 25.629 11.136 6.665 5.975 9.98 14.496 10.745 23.274 1.424 16.331-5.482 31.311-11.579 46.005-6.308 15.203-13.183 30.473-17.461 46.412-4.466-11.724-5.968-24.731-7.318-37.095-.734-6.73-1.316-13.476-1.888-20.222-.463-5.425-.277-11.562-1.765-16.809-.282-1.003-1.908-1.058-1.96.1-.263 5.999 1.157 12.495 1.719 18.483.658 7.029 1.338 14.058 2.203 21.066 1.441 11.656 3.027 23.719 7.669 34.604-2.359-.07-4.716.176-7.009.73-4.545-9.462-9.985-18.469-16.244-26.896-3.329-4.475-6.866-8.782-10.611-12.922-3.478-3.84-7.191-8.51-11.645-11.215-.64-.388-1.7.31-1.161 1.04 2.842 3.845 6.876 6.901 10.169 10.386 3.828 4.052 7.451 8.284 10.871 12.697 6.602 8.581 12.436 17.726 17.435 27.33-1.434.57-2.674 1.54-3.572 2.796-1.88 2.668-1.144 7.789-1.429 11.796-.129-.185-.318-.318-.536-.376-24.727-7.017-27.729-39.239-48.26-52.04-.524-.351-1.232-.211-1.583.313s-.211 1.232.313 1.583c.02.014.041.026.062.039 20.749 12.9 23.431 45.105 48.954 51.957.321.101.671.019.914-.213-.493 3.342-2.127 5.478-7.541 3.828-2.069-.756-4.289-1.006-6.474-.728-26.074-5.88-55.291-12.267-72.59-33.95-1.026-1.572-2.162-3.149-3.392-4.691-.428-.658-.854-1.316-1.261-1.992-6.938-11.563-9.197-26.178-4.766-39.051h.002zm-57.692 48.201c2.741-4.736 6.947-6.52 12.148-7.223 3.532-.478 6.726-1.064 9.588-3.333 2.884-2.29 4.933-5.501 7.972-7.614 4.685-3.254 10.79-3.168 15.967-1.216 8.699 3.281 16.333 11.648 21.006 19.444.289.452.849.648 1.357.476 5.951 6.535 12.947 12.036 20.701 16.278 14.97 8.186 31.992 12.551 48.749 15.521-1.145.733-2.087 1.742-2.74 2.935-1.054 1.862-1.533 3.995-1.375 6.13-6.924-2.288-14.045-3.928-21.272-4.9-7.31-1.128-15.352-2.382-22.727-1.622-1.091.112.059 1.203.638 1.271 7.717.9 15.48.752 23.203 1.913 6.875 1.034 13.483 2.923 20.25 4.377.412 2.757 1.346 5.411 2.752 7.819-.077.214-.149.43-.215.646-10.461 1.498-20.845 3.401-31.153 5.707-10.119 2.256-20.593 4.344-30.4 7.748-1.004.348-.1 1.816.759 1.625 10.396-2.311 20.616-5.5 31.014-7.866 9.769-2.222 19.591-4.281 29.461-6.016-1.034 4.659.222 9.494 2.661 13.755-25.706 11.127-52.247 21.725-79.428 28.639-4.055 1.131-8.194 1.937-12.378 2.411-.086-.058-.191-.08-.293-.06l-.422.114c-8.93.62-17.582-2.377-25.369-6.522-6.812-3.733-13.331-7.975-19.504-12.69-6.37-4.753-14.829-15.391-5.601-22.016.983-.706-.615-1.78-1.352-1.598-8.203 2.059-9.57-9.575-6.336-14.35 3.274-4.835 9.26-7.207 14.453-9.313.371-.147.553-.567.406-.938-.003-.008-.007-.016-.01-.024-3.798-9.227-7.988-20.042-2.51-29.508zm-4.653 18.82c.445.095.9-.113 1.12-.511.282 1.075.587 2.144.932 3.196.543 1.666 1.3 3.272 1.814 4.942.723 2.35.785 2.615-1.504 3.619-4.845 2.124-9.976 4.894-12.659 9.676-3.351 5.974.063 15.322 6.742 16.295-6.271 6.961.669 17.153 6.92 22.026 10.34 8.064 22.307 16.254 35.191 19.462 2.014.498 4.065.83 6.132.992-4.542 1.186-9.105 2.287-13.69 3.301-.044-.046-.093-.087-.146-.121-31.419-18.092-66.506-37.937-78.339-74.681-.032-.096-.078-.186-.136-.269 14.711-7.348 30.629-11.303 47.623-7.927zm-1.136 88.699c-.03-.03-.065-.055-.102-.074-6.768-3.296-13.361-6.392-19.517-10.781-6.588-4.803-12.761-10.152-18.453-15.99-11.756-11.799-22.442-24.685-33.528-37.102-.155-.182-.37-.301-.606-.336 7.52-5.861 15.524-11.073 23.926-15.578 11.965 36.781 46.663 56.822 78.508 74.577-10.002 2.172-20.078 3.933-30.228 5.284zm-73.272-63.461c-.02.273.077.541.267.738 11.491 13.08 22.766 26.522 35.282 38.647 9.941 9.635 22.173 20.492 35.897 24.311-15.285 1.961-30.683 2.916-46.093 2.858-2.992-.014-5.984-.083-8.974-.177-15.152-14.169-31.865-26.992-47.822-40.25 6.339-5.4 12.697-10.78 19.072-16.139 3.983-3.332 8.11-6.708 12.371-9.988zm-49.715 41.69c5.844-4.961 11.68-9.931 17.509-14.91 15.71 13.231 31.145 27.217 47.563 39.568-13.603-.459-27.165-1.761-40.607-3.898-15.384-2.459-30.121-6.553-45.025-10.751 7.446-.326 14.79-5.113 20.56-10.009zm-24.475 10.214c15.374 5.828 32.106 9.272 48.27 11.891 12.588 2.031 25.283 3.33 38.021 3.892-4.822 6.185-10.237 11.883-16.168 17.014-5.882 5.008-12.34 8.742-18.988 12.577-7.04-5.139-13.849-10.607-20.439-16.289-10.683-9.22-20.745-19.09-30.696-29.085zm52.848 46.613c13.994-6.486 25.891-18.053 34.463-30.633.033-.047.053-.101.059-.158 3.685.153 7.37.257 11.057.29 15.762.142 31.514-.82 47.142-2.878-10.494 6.403-17.453 19.3-23.858 29.258-3.506 5.705-7.399 11.162-11.653 16.333-2.341 2.746-4.91 5.288-7.682 7.599-1.952 1.617-4.377 2.808-6.226 4.524-15.355-6.351-29.893-14.521-43.302-24.335zm44.921 24.962c4.724-1.8 9.034-6.365 12.266-9.912 4.383-5.019 8.339-10.396 11.828-16.074 3.666-5.699 7.193-11.493 11.186-16.977 4.23-5.817 9.199-10.305 14.331-15.246.107-.096.128-.255.052-.376 10.263-1.408 20.446-3.291 30.549-5.647-12.202 27.087-27.823 51.679-48.621 73.053-.068.071-.126.152-.173.239-7.857-1.487-15.602-3.511-23.182-6.057-2.783-.927-5.521-1.941-8.236-3.003zm33.779 9.468c20.388-21.345 37.343-46.412 47.913-74.053 5.444-1.297 10.855-2.732 16.231-4.305 6.061.126 11.996-1.072 18.073-2.675 11.612-3.063 23.003-7.003 34.279-11.113 13.753-5.013 27.347-10.439 40.782-16.277-9.97 8.495-22.494 12.267-34.873 16.401-14.321 4.604-27.594 11.987-39.059 21.725-4.912 4.163-9.439 8.624-15.014 11.91-4.59 2.705-9.466 4.914-13.905 7.876-4.628 3.01-8.516 7.027-11.374 11.75-1.016 1.713-3.531 5.371-3.408 7.432.11 1.864 2.216 4.476 3.296 5.922 4.652 6.221 11.35 10.186 17.614 14.643-18.16 12.697-39.601 14.243-60.555 10.764zm63.412-8.657c1.925 1.455 3.739 3.051 5.426 4.777 4.976 5.182 5.902 12.068 9.964 17.699 3.015 4.182 7.69 6.229 12.415 7.874l.65.226c-3.676 1.683-6.999 4.397-10.404 6.574-3.778 2.415-7.511 4.899-11.306 7.29-3.704 2.334-7.717 4.409-11.351 6.895-.682-2.636-1.227-5.306-1.632-7.999-2.163-14.614-.557-30.093 6.238-43.336zm-4.016 53.526c4.557-2.123 8.875-5.14 13.147-7.74 3.845-2.341 7.708-4.677 11.401-7.25 3.123-2.173 6.845-4.268 9.154-7.34.039-.048.061-.107.063-.168 7.02 2.444 13.304 4.962 15.221 13.288 1.442 6.258.535 12.919 3.516 18.811 3.626 7.164 9.938 8.004 15.736 5.281-2.44 7.269-4.734 14.573-6.884 21.912-5.119 5.118-10.282 10.191-15.385 15.322-4.451 4.48-9.363 8.815-13.442 13.678-4.754-10.014-10.391-19.726-15.77-29.263 6.329-3.531 12.12-8.438 17.911-12.771 5.828-4.358 12.467-8.428 17.672-13.494.37-.36-.435-.846-.775-.683-6.644 3.145-12.719 8.296-18.601 12.675-5.64 4.202-11.765 8.044-17.191 12.523-.129-.228-.258-.457-.385-.685-6.082-10.86-11.979-22.097-15.388-34.096zm72.698 59.219c2.947 7.008 4.982 14.37 7.867 21.374-11.314 10.711-22.604 21.447-33.872 32.207 3.41-15.967 5.65-32.201 9.357-48.135 2.059-8.847 4.304-17.656 6.668-26.432 3.641 6.836 6.967 13.831 9.98 20.983zm-39.126 8.814c5.247-4.496 9.878-9.952 14.717-14.871 4.011-4.079 7.979-8.2 11.906-12.363-2.193 7.675-4.236 15.397-6.127 23.164-3.804 15.644-7.941 31.836-9.964 47.9.363-15.437-4.153-29.934-10.533-43.832zm71.32-10.434c-7.688 7.247-15.364 14.504-23.03 21.771-1.664-7.213-4.822-14.382-7.708-21.134-3.13-7.239-6.677-14.292-10.622-21.121.047-.304-.059-.611-.282-.822 1.999-7.364 4.065-14.706 6.197-22.027 1.43-.812 2.765-1.782 3.979-2.891 6.362 6.358 13.022 12.428 19.651 18.508 6.89 6.319 13.563 13.122 20.868 18.948.081.064.17.118.264.161-3.13 2.86-6.254 5.716-9.318 8.604v.003zm30.656-29.503c-6.281 7.004-13.241 13.471-20.222 19.87-.035-.048-.074-.094-.115-.137-6.468-6.731-13.882-12.734-20.81-18.995-6.727-6.078-13.447-12.185-20.425-17.973 5.475-5.091 10.449-11.108 18.827-9.381 7.169 1.479 13.207 6.399 20.626 7.061 13.348 1.191 23.164-11.399 34.504-16.889 3.435 13.628-3.48 26.509-12.385 36.44zm17.988-108.232c3.409 5.489 6.457 11.316 7.271 17.813.925 7.383-.981 14.684-2.39 21.873-1.856 9.467-2.746 19.772 2.795 28.011-12.625-2.282-22.521 7.844-32.637 14.149-8.249 5.142-15.826 6.008-24.793 2.162-5.105-2.192-10.407-5.106-16.153-4.73-5.218.341-9.234 3.693-12.9 7.107-3.991 3.718-9.306 10.491-15.582 8.063-7.538-2.914-7.019-13.757-7.873-20.225-.706-5.348-2.533-10.152-7.042-13.372-4.136-2.952-9.203-4.071-13.885-5.828-3.272-1.228-6.493-2.718-8.762-5.469-2.62-3.176-3.604-7.168-5.335-10.825-2.708-5.721-7.173-9.87-12.071-13.574-.107-.116-.234-.212-.376-.282-3.384-2.538-6.956-4.875-10.29-7.381-4.06-3.05-12.438-9.154-10.681-14.9 1.796-5.875 6.632-11.336 11.424-14.96 4.004-3.03 8.532-5.206 12.946-7.552 5.03-2.712 9.724-6.008 13.984-9.817 6.656-5.817 13.45-11.545 21.102-16.028 7.113-4.167 14.86-6.956 22.654-9.55 13.307-4.418 26.611-8.851 36.691-18.974 2.005 3.014 4.533 5.646 7.463 7.771 2.865 1.999 5.97 3.631 9.242 4.855-3.138 3.628-5.358 8.48-7.956 12.471-3.345 5.132-6.825 10.174-10.34 15.189-6.815 9.711-13.997 19.176-21.69 28.208-.658.776 1.109 1.921 1.793 1.12 7.708-9.024 14.905-18.477 21.741-28.177 3.377-4.794 6.607-9.69 9.737-14.649 2.672-4.23 6.348-8.877 7.978-13.681 2.131.77 4.305 1.425 6.48 2.003.798.212 1.601.423 2.407.633-6.182 12.532-7.272 27.121-11.063 40.433-3.908 13.724-14.664 27.56-12.08 42.466.143.828 2.209 1.733 2.116.49-1.146-15.317 7.955-27.887 11.853-42.161 3.725-13.639 5.293-27.676 10.559-40.874 1.316.333 2.637.651 3.964.955-2.09 20.778 9.184 40.307 19.701 57.232v.005zm126.356 5.863c1.217 7.913 5.004 15.576 5.047 23.632.053 10-6.564 16.114-16.536 15.094-7.05-.721-13.837-2.991-20.968-1.618-14.758 2.842-26.613 17.545-42.514 15.239-16.687-2.42-13.589-23.036-17.684-34.927-2.284-6.631-7.391-11.451-12.292-16.22-5.834-5.697-11.111-11.937-15.759-18.636-9.234-13.227-17.986-28.415-20.288-44.639 2.057.364 4.118.658 6.171.839 4.363.505 8.783-.034 12.897-1.572-.064.173-.026.368.099.504 5.448 7.957 11.778 15.273 18.87 21.808 3.205 2.931 6.552 5.698 10.041 8.299 4.624 3.459 10.152 6.761 11.396 12.854.197.968 2.218 1.459 1.974.287-1.815-8.686-11.078-13.037-17.379-18.199-8.992-7.424-16.985-15.98-23.781-25.456-.156-.201-.392-.324-.646-.336.904-.401 1.776-.873 2.607-1.41 3.833-2.482 6.617-6.135 9.594-9.557 3.909 7.032 12.126 10.88 19.21 13.852 4.535 1.903 9.191 3.597 13.496 6.001 4.794 2.679 7.996 6.337 11.589 10.369.276.31.997.263.815-.273-2.577-7.586-11.793-11.764-18.623-14.63-9.979-4.187-18.82-7.458-25.91-15.97.715-.806 1.44-1.598 2.203-2.35 1.41-1.381 2.905-2.665 4.412-3.942 8.197 2.162 16.391 4.342 24.603 6.456 7.869 2.027 15.929 4.794 23.97 5.978 1.057.155.862-1.154.087-1.437-7.857-2.873-16.455-4.367-24.568-6.426-7.589-1.926-15.195-3.794-22.797-5.671 2.323-1.882 4.471-3.97 6.419-6.238 1.575-1.901 2.757-4.095 3.478-6.456 33.232 7.223 67.009 9.357 100.954 9.548 7.544.043 23.343-.653 20.357 11.644-1.807 7.439-9.545 11.993-14.327 17.495-8.911 10.371-14.6 23.119-16.367 36.678-.867 6.435-.817 12.96.149 19.38z"/></g></g></svg>