<?xml version="1.0" encoding="iso-8859-1"?>
<!-- Generator: Adobe Illustrator 21.0.0, SVG Export Plug-In . SVG Version: 6.00 Build 0)  -->
<svg xmlns="http://www.w3.org/2000/svg" xmlns:xlink="http://www.w3.org/1999/xlink" version="1.1" id="Capa_1" x="0px" y="0px" viewBox="0 0 510 510" style="enable-background:new 0 0 510 510;" xml:space="preserve" width="512" height="512">
<g>
	<g>
		<circle cx="255" cy="7.5" r="7.5"/>
		<ellipse transform="matrix(0.9848 -0.1737 0.1737 0.9848 1.2659 36.9889)" cx="212.022" cy="11.26" rx="7.5" ry="7.5"/>
		<ellipse transform="matrix(0.9397 -0.342 0.342 0.9397 2.6035 59.617)" cx="170.35" cy="22.426" rx="7.5" ry="7.5"/>
		<ellipse transform="matrix(0.866 -0.5 0.5 0.866 -2.745 71.0729)" cx="131.25" cy="40.659" rx="7.5" ry="7.5"/>
		<ellipse transform="matrix(0.766 -0.6428 0.6428 0.766 -19.6023 76.9507)" cx="95.91" cy="65.404" rx="7.5" ry="7.5"/>
		<ellipse transform="matrix(0.6428 -0.766 0.766 0.6428 -50.1082 84.3628)" cx="65.404" cy="95.91" rx="7.5" ry="7.5"/>
		<ellipse transform="matrix(0.5 -0.866 0.866 0.5 -93.3363 100.8359)" cx="40.659" cy="131.25" rx="7.5" ry="7.5"/>
		<ellipse transform="matrix(0.342 -0.9397 0.9397 0.342 -145.3205 133.1603)" cx="22.426" cy="170.35" rx="7.5" ry="7.5"/>
		<ellipse transform="matrix(0.1736 -0.9848 0.9848 0.1736 -199.4961 186.2945)" cx="11.26" cy="212.022" rx="7.5" ry="7.5"/>
		<circle cx="7.5" cy="255" r="7.5"/>
		<ellipse transform="matrix(0.9848 -0.1736 0.1736 0.9848 -51.5675 6.4812)" cx="11.26" cy="297.978" rx="7.5" ry="7.5"/>
		<ellipse transform="matrix(0.9397 -0.342 0.342 0.9397 -114.8149 28.1537)" cx="22.426" cy="339.65" rx="7.5" ry="7.5"/>
		<ellipse transform="matrix(0.866 -0.5 0.5 0.866 -183.9293 71.0733)" cx="40.659" cy="378.75" rx="7.5" ry="7.5"/>
		<ellipse transform="matrix(0.766 -0.6428 0.6428 0.766 -250.87 138.9193)" cx="65.404" cy="414.09" rx="7.5" ry="7.5"/>
		<ellipse transform="matrix(0.6428 -0.766 0.766 0.6428 -306.3215 232.2894)" cx="95.91" cy="444.596" rx="7.5" ry="7.5"/>
		<ellipse transform="matrix(0.5 -0.866 0.866 0.5 -340.8359 348.3342)" cx="131.25" cy="469.341" rx="7.5" ry="7.5"/>
		<ellipse transform="matrix(0.342 -0.9397 0.9397 0.342 -346.0827 480.8863)" cx="170.35" cy="487.574" rx="7.5" ry="7.5"/>
		<ellipse transform="matrix(0.1737 -0.9848 0.9848 0.1737 -315.9583 620.9343)" cx="212.022" cy="498.74" rx="7.5" ry="7.5"/>
		<circle cx="255" cy="502.5" r="7.5"/>
		<ellipse transform="matrix(0.9848 -0.1737 0.1737 0.9848 -82.0794 59.3213)" cx="297.978" cy="498.74" rx="7.5" ry="7.5"/>
		<ellipse transform="matrix(0.9397 -0.342 0.342 0.9397 -146.2769 145.5718)" cx="339.65" cy="487.574" rx="7.5" ry="7.5"/>
		<ellipse transform="matrix(0.866 -0.5 0.5 0.866 -183.9288 252.2576)" cx="378.75" cy="469.341" rx="7.5" ry="7.5"/>
		<ellipse transform="matrix(0.766 -0.6428 0.6428 0.766 -188.9021 370.1871)" cx="414.09" cy="444.596" rx="7.5" ry="7.5"/>
		<ellipse transform="matrix(0.6428 -0.766 0.766 0.6428 -158.396 488.4989)" cx="444.596" cy="414.09" rx="7.5" ry="7.5"/>
		<ellipse transform="matrix(0.5 -0.866 0.866 0.5 -93.3375 595.8338)" cx="469.341" cy="378.75" rx="7.5" ry="7.5"/>
		<ellipse transform="matrix(0.342 -0.9397 0.9397 0.342 1.6443 681.6486)" cx="487.574" cy="339.65" rx="7.5" ry="7.5"/>
		<ellipse transform="matrix(0.1737 -0.9848 0.9848 0.1737 118.6826 737.3966)" cx="498.74" cy="297.978" rx="7.5" ry="7.5"/>
		<circle cx="502.5" cy="255" r="7.5"/>
		<ellipse transform="matrix(0.9848 -0.1736 0.1736 0.9848 -29.2386 89.8193)" cx="498.74" cy="212.022" rx="7.5" ry="7.5"/>
		<ellipse transform="matrix(0.9397 -0.342 0.342 0.9397 -28.8587 177.0378)" cx="487.574" cy="170.35" rx="7.5" ry="7.5"/>
		<ellipse transform="matrix(0.866 -0.5 0.5 0.866 -2.7446 252.2571)" cx="469.341" cy="131.25" rx="7.5" ry="7.5"/>
		<ellipse transform="matrix(0.766 -0.6428 0.6428 0.766 42.3658 308.2192)" cx="444.596" cy="95.91" rx="7.5" ry="7.5"/>
		<ellipse transform="matrix(0.6428 -0.766 0.766 0.6428 97.8159 340.5747)" cx="414.09" cy="65.404" rx="7.5" ry="7.5"/>
		<ellipse transform="matrix(0.5 -0.866 0.866 0.5 154.162 348.3354)" cx="378.75" cy="40.659" rx="7.5" ry="7.5"/>
		<ellipse transform="matrix(0.342 -0.9397 0.9397 0.342 202.4091 333.9224)" cx="339.65" cy="22.426" rx="7.5" ry="7.5"/>
		<ellipse transform="matrix(0.1737 -0.9848 0.9848 0.1737 235.1449 302.7556)" cx="297.978" cy="11.26" rx="7.5" ry="7.5"/>
		<path d="M473.372,247.885c-7.059-2.353-14.109-10.001-22.272-18.855c-12.189-13.223-26.743-28.993-48.865-35.016    c11.384-19.902,10.524-41.344,9.794-59.313c-0.489-12.034-0.912-22.428,2.415-29.083c1.444-2.887,0.878-6.374-1.405-8.657    c-2.282-2.281-5.77-2.848-8.657-1.404c-6.655,3.328-17.05,2.904-29.083,2.416c-17.969-0.733-39.412-1.592-59.312,9.792    c-6.023-22.122-21.793-36.675-35.016-48.864c-8.854-8.163-16.503-15.214-18.855-22.272c-1.021-3.063-3.887-5.128-7.115-5.128    c-3.228,0-6.094,2.065-7.115,5.128c-2.353,7.059-10,14.109-18.856,22.272c-13.223,12.189-28.992,26.743-35.015,48.865    c-19.9-11.384-41.34-10.526-59.312-9.792c-12.033,0.487-22.428,0.912-29.082-2.416c-2.888-1.444-6.375-0.878-8.658,1.404    c-2.283,2.283-2.849,5.771-1.405,8.657c3.327,6.655,2.904,17.049,2.415,29.083c-0.731,17.969-1.59,39.413,9.793,59.313    c-22.122,6.023-36.676,21.793-48.865,35.016c-8.164,8.854-15.213,16.503-22.272,18.855c-3.063,1.021-5.128,3.887-5.128,7.115    s2.066,6.095,5.128,7.115c7.059,2.353,14.108,10.001,22.272,18.855c12.189,13.223,26.743,28.993,48.865,35.016    c-11.384,19.902-10.524,41.344-9.794,59.313c0.489,12.034,0.912,22.428-2.416,29.083c-1.356,2.713-0.915,6.059,1.097,8.328    c2.227,2.512,5.96,3.238,8.966,1.734c6.655-3.328,17.047-2.903,29.082-2.416c17.969,0.734,39.411,1.591,59.312-9.792    c6.023,22.122,21.793,36.676,35.015,48.865c8.855,8.163,16.503,15.214,18.856,22.272c1.021,3.063,3.887,5.128,7.115,5.128    c3.229,0,6.095-2.065,7.115-5.128c2.353-7.059,10.001-14.109,18.855-22.272c13.223-12.189,28.993-26.743,35.016-48.865    c19.902,11.384,41.346,10.525,59.311,9.793c12.033-0.486,22.428-0.912,29.083,2.416c3.007,1.503,6.738,0.778,8.966-1.734    c2.012-2.269,2.454-5.615,1.097-8.328c-3.327-6.655-2.904-17.049-2.415-29.082c0.731-17.98,1.591-39.437-9.812-59.346    c10.42-2.868,20.243-8.178,29.692-16.02c3.188-2.646,3.627-7.374,0.981-10.562c-2.646-3.187-7.373-3.626-10.562-0.981    c-9.621,7.985-19.292,12.651-29.861,14.355c-0.507-0.547-1.036-1.089-1.569-1.631c1.651-4.851,3.041-9.82,4.169-14.887    C410.521,284.226,422.5,270.99,422.5,255s-11.979-29.226-27.432-31.229c-1.129-5.066-2.519-10.036-4.169-14.887    c0.532-0.541,1.06-1.083,1.567-1.628c21.377,3.492,35.218,18.5,47.606,31.94c5.348,5.801,10.522,11.415,16.035,15.796    c-3.025,2.399-5.787,5.05-8.302,7.602c-2.907,2.95-2.873,7.698,0.077,10.606c1.461,1.44,3.363,2.158,5.265,2.158    c1.938,0,3.874-0.746,5.342-2.235c6.222-6.313,10.673-9.604,14.883-11.008c3.028-1.009,5.129-3.924,5.129-7.115    C478.5,251.808,476.4,248.894,473.372,247.885z M374.688,112.96c7.89,0.32,15.522,0.633,22.522-0.171    c-0.802,6.999-0.491,14.633-0.171,22.521c0.742,18.263,1.569,38.662-11.079,56.248c-0.756-0.028-1.524-0.038-2.295-0.045    c-2.29-4.621-4.816-9.104-7.572-13.429c4.258-5.49,6.573-12.19,6.573-19.251c0-8.414-3.277-16.324-9.227-22.272    c-5.949-5.95-13.859-9.228-22.273-9.228c-7.061,0-13.761,2.315-19.251,6.573c-4.324-2.756-8.808-5.282-13.429-7.572    c-0.006-0.771-0.016-1.54-0.045-2.296C336.029,111.39,356.43,112.215,374.688,112.96z M367.667,351.167    c0,4.406-1.717,8.55-4.834,11.667c-3.116,3.116-7.26,4.833-11.666,4.833c-2.084,0-4.104-0.396-5.99-1.131    c7.844-6.354,15.005-13.516,21.359-21.359C367.271,347.063,367.667,349.083,367.667,351.167z M255,383.5    c-70.855,0-128.5-57.645-128.5-128.5S184.145,126.5,255,126.5c70.855,0,128.5,57.645,128.5,128.5S325.855,383.5,255,383.5z     M270.059,397.711c-2.578,5.76-8.352,9.789-15.059,9.789c-6.707,0-12.482-4.029-15.059-9.789c4.95,0.519,9.974,0.789,15.059,0.789    S265.109,398.229,270.059,397.711z M142.333,158.833c0-4.407,1.716-8.55,4.833-11.667c3.117-3.116,7.26-4.833,11.667-4.833    c2.084,0,4.104,0.396,5.99,1.13c-7.844,6.354-15.005,13.516-21.359,21.359C142.73,162.938,142.333,160.917,142.333,158.833z     M112.289,270.059c-5.76-2.578-9.789-8.352-9.789-15.059s4.029-12.481,9.789-15.059c-0.519,4.951-0.789,9.974-0.789,15.059    S111.77,265.108,112.289,270.059z M143.464,345.177c6.354,7.844,13.516,15.005,21.359,21.359c-1.885,0.734-3.906,1.13-5.99,1.13    c-4.407,0-8.551-1.717-11.667-4.834c-3.116-3.116-4.833-7.259-4.833-11.666C142.333,349.083,142.73,347.063,143.464,345.177z     M239.941,112.289c2.577-5.76,8.352-9.789,15.059-9.789c6.707,0,12.481,4.029,15.059,9.789c-4.95-0.519-9.974-0.789-15.059-0.789    S244.891,111.771,239.941,112.289z M366.536,164.823c-6.354-7.843-13.516-15.005-21.359-21.359    c1.885-0.734,3.906-1.131,5.99-1.131c4.406,0,8.55,1.717,11.667,4.834c3.116,3.116,4.833,7.26,4.833,11.666    C367.667,160.917,367.271,162.938,366.536,164.823z M239.196,69.929C245,64.578,250.618,59.399,255,53.884    c4.382,5.516,9.999,10.694,15.804,16.045c13.439,12.389,28.448,26.229,31.94,47.606c-0.546,0.507-1.087,1.035-1.628,1.566    c-4.851-1.65-9.82-3.04-14.887-4.169C284.226,99.479,270.99,87.5,255,87.5s-29.226,11.979-31.229,27.433    c-5.067,1.129-10.036,2.519-14.886,4.169c-0.541-0.532-1.083-1.061-1.629-1.567C210.749,96.158,225.757,82.317,239.196,69.929z     M112.96,135.311c0.321-7.889,0.631-15.522-0.17-22.521c6.999,0.803,14.634,0.491,22.521,0.171    c18.263-0.742,38.661-1.569,56.246,11.078c-0.028,0.756-0.038,1.525-0.045,2.296c-4.621,2.29-9.105,4.815-13.429,7.572    c-5.49-4.257-12.19-6.573-19.25-6.573c-8.414,0-16.325,3.277-22.274,9.227c-5.95,5.949-9.226,13.86-9.226,22.273    c0,7.06,2.315,13.761,6.572,19.251c-2.756,4.324-5.282,8.808-7.572,13.429c-0.771,0.007-1.54,0.017-2.296,0.045    C111.391,173.972,112.218,153.573,112.96,135.311z M69.929,270.804c-5.351-5.805-10.53-11.422-16.045-15.804    c5.516-4.382,10.694-9.999,16.045-15.804c12.389-13.439,26.228-28.448,47.606-31.94c0.506,0.546,1.035,1.087,1.566,1.628    c-1.651,4.851-3.041,9.82-4.169,14.887C99.479,225.774,87.5,239.01,87.5,255s11.979,29.226,27.432,31.229    c1.129,5.067,2.519,10.036,4.169,14.887c-0.532,0.542-1.06,1.083-1.567,1.629C96.157,299.251,82.318,284.243,69.929,270.804z     M135.311,397.04c-7.889-0.319-15.521-0.632-22.521,0.171c0.801-6.999,0.491-14.633,0.17-22.521    c-0.742-18.263-1.569-38.662,11.078-56.247c0.756,0.028,1.525,0.038,2.296,0.045c2.29,4.621,4.815,9.104,7.572,13.429    c-4.257,5.49-6.572,12.191-6.572,19.251c0,8.413,3.276,16.324,9.226,22.272c5.949,5.95,13.86,9.228,22.274,9.228    c7.06,0,13.76-2.315,19.25-6.573c4.324,2.756,8.808,5.282,13.429,7.572c0.006,0.771,0.016,1.54,0.045,2.296    C173.971,398.609,153.573,397.782,135.311,397.04z M270.804,440.071c-5.805,5.351-11.422,10.529-15.804,16.045    c-4.382-5.516-10-10.694-15.804-16.045c-13.439-12.389-28.447-26.229-31.94-47.606c0.546-0.506,1.088-1.035,1.629-1.567    c4.851,1.65,9.82,3.04,14.886,4.169C225.774,410.521,239.01,422.5,255,422.5s29.226-11.979,31.229-27.433    c5.067-1.129,10.036-2.519,14.886-4.169c0.541,0.532,1.083,1.06,1.629,1.566C299.251,413.842,284.243,427.683,270.804,440.071z     M397.04,374.69c-0.32,7.888-0.631,15.521,0.171,22.521c-6.999-0.802-14.633-0.49-22.522-0.171    c-18.261,0.743-38.66,1.57-56.246-11.078c0.028-0.756,0.038-1.524,0.045-2.296c4.621-2.29,9.105-4.815,13.429-7.572    c5.49,4.257,12.19,6.573,19.251,6.573c8.414,0,16.324-3.277,22.272-9.227c5.95-5.949,9.228-13.859,9.228-22.273    c0-7.061-2.315-13.761-6.573-19.251c2.757-4.325,5.283-8.809,7.573-13.43c0.766-0.007,1.531-0.02,2.29-0.049    C398.609,336.023,397.783,356.425,397.04,374.69z M407.5,255c0,6.707-4.029,12.481-9.789,15.059    c0.519-4.951,0.789-9.974,0.789-15.059s-0.27-10.108-0.789-15.059C403.471,242.519,407.5,248.293,407.5,255z"/>
		<path d="M335,86.5c12.958,0,23.5-10.542,23.5-23.5S347.958,39.5,335,39.5S311.5,50.042,311.5,63S322.042,86.5,335,86.5z M335,54.5    c4.687,0,8.5,3.813,8.5,8.5s-3.813,8.5-8.5,8.5s-8.5-3.813-8.5-8.5S330.313,54.5,335,54.5z"/>
		<path d="M175.804,86.167c6.277,0,12.179-2.444,16.617-6.883c4.438-4.438,6.883-10.34,6.883-16.617s-2.445-12.179-6.883-16.616    c-4.438-4.439-10.34-6.884-16.617-6.884s-12.179,2.444-16.617,6.883c-9.163,9.163-9.163,24.071,0,33.233    C163.625,83.723,169.527,86.167,175.804,86.167z M169.794,56.656c1.605-1.605,3.74-2.489,6.01-2.489c2.27,0,4.405,0.884,6.01,2.49    c1.605,1.605,2.49,3.739,2.49,6.01s-0.884,4.404-2.49,6.011c-1.605,1.605-3.74,2.489-6.01,2.489c-2.271,0-4.405-0.884-6.01-2.489    c0,0,0-0.001,0-0.001C166.479,65.363,166.479,59.971,169.794,56.656z"/>
		<path d="M39.5,175c0,12.958,10.542,23.5,23.5,23.5s23.5-10.542,23.5-23.5S75.958,151.5,63,151.5S39.5,162.042,39.5,175z M71.5,175    c0,4.687-3.813,8.5-8.5,8.5s-8.5-3.813-8.5-8.5s3.813-8.5,8.5-8.5S71.5,170.313,71.5,175z"/>
		<path d="M46.05,317.579c-4.438,4.438-6.883,10.34-6.883,16.617s2.445,12.179,6.883,16.617c4.582,4.581,10.598,6.871,16.617,6.871    c6.017,0,12.036-2.291,16.617-6.871c9.162-9.162,9.162-24.071,0-33.235C70.122,308.417,55.213,308.416,46.05,317.579z     M68.678,340.206c-3.313,3.313-8.707,3.315-12.021,0c-1.605-1.605-2.49-3.739-2.49-6.01s0.884-4.405,2.49-6.011    c1.657-1.657,3.833-2.486,6.011-2.486c2.176,0,4.353,0.829,6.01,2.485C71.992,331.499,71.992,336.893,68.678,340.206z"/>
		<path d="M175,423.5c-12.958,0-23.5,10.542-23.5,23.5s10.542,23.5,23.5,23.5s23.5-10.542,23.5-23.5S187.958,423.5,175,423.5z     M175,455.5c-4.687,0-8.5-3.813-8.5-8.5s3.813-8.5,8.5-8.5s8.5,3.813,8.5,8.5S179.687,455.5,175,455.5z"/>
		<path d="M350.813,430.716c-4.438-4.438-10.34-6.883-16.617-6.883s-12.179,2.444-16.618,6.883c-9.162,9.163-9.162,24.071,0,33.234    c4.439,4.438,10.341,6.883,16.618,6.883s12.179-2.444,16.617-6.883C359.976,454.787,359.976,439.879,350.813,430.716    C350.813,430.717,350.813,430.717,350.813,430.716z M340.206,453.344c-1.605,1.605-3.739,2.489-6.01,2.489    s-4.405-0.884-6.011-2.49c-3.314-3.313-3.314-8.706,0-12.02c1.605-1.606,3.74-2.49,6.011-2.49s4.404,0.884,6.01,2.489    c0,0,0,0,0,0.001C343.521,444.637,343.521,450.029,340.206,453.344z"/>
		<path d="M470.5,335c0-12.958-10.542-23.5-23.5-23.5s-23.5,10.542-23.5,23.5s10.542,23.5,23.5,23.5S470.5,347.958,470.5,335z     M438.5,335c0-4.687,3.813-8.5,8.5-8.5s8.5,3.813,8.5,8.5s-3.813,8.5-8.5,8.5S438.5,339.687,438.5,335z"/>
		<path d="M447.333,199.293c6.018,0,12.035-2.29,16.617-6.871c4.438-4.439,6.883-10.341,6.883-16.618s-2.444-12.179-6.883-16.617    c-9.164-9.162-24.07-9.162-33.234,0c-9.162,9.162-9.162,24.071,0,33.235C435.298,197.003,441.315,199.293,447.333,199.293z     M441.323,169.794c1.656-1.657,3.833-2.486,6.01-2.486s4.354,0.829,6.011,2.486c1.605,1.605,2.489,3.739,2.489,6.01    s-0.884,4.405-2.49,6.011c-3.314,3.314-8.707,3.313-12.02,0.001C438.009,178.501,438.009,173.107,441.323,169.794z"/>
		<circle cx="255" cy="151" r="7.5"/>
		<ellipse transform="matrix(0.9397 -0.342 0.342 0.9397 -40.5567 84.5334)" cx="219.43" cy="157.272" rx="7.5" ry="7.5"/>
		<ellipse transform="matrix(0.766 -0.6428 0.6428 0.766 -68.682 161.9601)" cx="188.15" cy="175.331" rx="7.5" ry="7.5"/>
		<ellipse transform="matrix(0.5 -0.866 0.866 0.5 -93.3367 244.3352)" cx="164.933" cy="203" rx="7.5" ry="7.5"/>
		<ellipse transform="matrix(0.1737 -0.9848 0.9848 0.1737 -107.2565 346.0577)" cx="152.58" cy="236.941" rx="7.5" ry="7.5"/>
		<ellipse transform="matrix(0.9848 -0.1737 0.1737 0.9848 -45.1024 30.647)" cx="152.58" cy="273.059" rx="7.5" ry="7.5"/>
		<ellipse transform="matrix(0.866 -0.5 0.5 0.866 -131.404 123.5983)" cx="164.933" cy="307" rx="7.5" ry="7.5"/>
		<ellipse transform="matrix(0.6428 -0.766 0.766 0.6428 -189.1615 263.6794)" cx="188.15" cy="334.669" rx="7.5" ry="7.5"/>
		<ellipse transform="matrix(0.342 -0.9397 0.9397 0.342 -187.0752 438.2858)" cx="219.43" cy="352.728" rx="7.5" ry="7.5"/>
		<circle cx="255" cy="359" r="7.5"/>
		<ellipse transform="matrix(0.9397 -0.342 0.342 0.9397 -103.1141 120.6488)" cx="290.57" cy="352.728" rx="7.5" ry="7.5"/>
		<ellipse transform="matrix(0.766 -0.6428 0.6428 0.766 -139.8222 285.1784)" cx="321.85" cy="334.669" rx="7.5" ry="7.5"/>
		<ellipse transform="matrix(0.5 -0.866 0.866 0.5 -93.3366 452.3362)" cx="345.067" cy="307" rx="7.5" ry="7.5"/>
		<ellipse transform="matrix(0.1737 -0.9848 0.9848 0.1737 26.443 577.6323)" cx="357.42" cy="273.059" rx="7.5" ry="7.5"/>
		<ellipse transform="matrix(0.9848 -0.1737 0.1737 0.9848 -35.717 65.6712)" cx="357.42" cy="236.941" rx="7.5" ry="7.5"/>
		<ellipse transform="matrix(0.866 -0.5 0.5 0.866 -55.2698 199.7321)" cx="345.067" cy="203" rx="7.5" ry="7.5"/>
		<ellipse transform="matrix(0.6428 -0.766 0.766 0.6428 -19.3427 309.1822)" cx="321.85" cy="175.331" rx="7.5" ry="7.5"/>
		<ellipse transform="matrix(0.342 -0.9397 0.9397 0.342 43.4043 376.531)" cx="290.57" cy="157.272" rx="7.5" ry="7.5"/>
		<path d="M330.858,248.569c-0.547-0.329-11.947-7.131-27.552-13.579c6.475-15.593,9.727-28.464,9.882-29.083    c1.348-5.394-3.702-10.442-9.096-9.096c-0.619,0.155-13.49,3.406-29.083,9.882c-6.448-15.605-13.25-27.005-13.579-27.552    c-2.859-4.769-10.002-4.767-12.862,0c-0.329,0.547-7.13,11.946-13.578,27.552c-15.594-6.476-28.464-9.727-29.083-9.882    c-5.393-1.349-10.443,3.703-9.095,9.096c0.155,0.619,3.406,13.49,9.881,29.083c-15.604,6.448-27.004,13.25-27.552,13.578    c-4.767,2.861-4.768,10.002,0,12.863c0.548,0.328,11.948,7.13,27.552,13.578c-6.475,15.593-9.726,28.464-9.881,29.083    c-1.349,5.393,3.701,10.444,9.095,9.096c0.62-0.155,13.49-3.406,29.083-9.882c6.448,15.604,13.25,27.005,13.578,27.552    c2.86,4.768,10.003,4.768,12.863,0c0.328-0.547,7.13-11.947,13.578-27.552c15.593,6.476,28.464,9.727,29.083,9.882    c5.394,1.348,10.444-3.702,9.096-9.096c-0.155-0.619-3.407-13.49-9.882-29.083c15.604-6.448,27.005-13.25,27.552-13.579    C335.627,258.573,335.627,251.428,330.858,248.569z M290.714,263.835c-4.035,1.492-6.016,6.255-4.213,10.171    c3.452,7.501,6.182,14.794,8.17,20.668c-5.863-1.985-13.147-4.712-20.664-8.173c-3.916-1.805-8.681,0.178-10.172,4.213    c-2.861,7.742-6.088,14.828-8.835,20.388c-2.747-5.56-5.974-12.646-8.835-20.388c-1.491-4.034-6.254-6.017-10.172-4.213    c-7.498,3.452-14.79,6.181-20.663,8.169c1.988-5.873,4.717-13.165,8.169-20.664c1.802-3.917-0.178-8.679-4.213-10.171    c-7.743-2.861-14.829-6.088-20.388-8.835c5.559-2.747,12.645-5.974,20.388-8.835c4.036-1.492,6.016-6.254,4.213-10.171    c-3.452-7.499-6.181-14.791-8.169-20.664c5.873,1.988,13.165,4.717,20.663,8.169c3.916,1.804,8.681-0.177,10.172-4.213    c2.862-7.745,6.089-14.832,8.837-20.392c2.742,5.55,5.965,12.629,8.833,20.392c1.491,4.036,6.255,6.016,10.172,4.213    c7.5-3.453,14.793-6.182,20.667-8.171c-1.985,5.864-4.713,13.148-8.173,20.666c-1.803,3.916,0.178,8.679,4.213,10.171    c7.745,2.862,14.832,6.09,20.392,8.837C305.556,257.744,298.477,260.967,290.714,263.835z"/>
		<path d="M255,231.5c-12.958,0-23.5,10.542-23.5,23.5s10.542,23.5,23.5,23.5s23.5-10.542,23.5-23.5S267.958,231.5,255,231.5z     M255,263.5c-4.687,0-8.5-3.813-8.5-8.5s3.813-8.5,8.5-8.5c4.687,0,8.5,3.813,8.5,8.5S259.687,263.5,255,263.5z"/>
	</g>
</g>















</svg>
