<svg viewBox="0 0 64 64" fill="#AC8A1A" xmlns="http://www.w3.org/2000/svg"><g id="Mobile_Shopping-Call-Assistant-Mobile-Payment" data-name="Mobile Shopping-Call-Assistant-Mobile-Payment"><path d="m21 6h2v2h-2z"/><path d="m25 6h8v2h-8z"/><path d="m57 46a3.94 3.94 0 0 0 -2.57.94 4.012 4.012 0 0 0 -3.43-1.94 3.94 3.94 0 0 0 -2.57.94 4 4 0 0 0 -1.43-1.4v-35.54a7.008 7.008 0 0 0 -7-7h-22a7.008 7.008 0 0 0 -7 7v18.26a4.983 4.983 0 0 0 -2.98 2.64l-4.01 8.69a10.843 10.843 0 0 0 -1.01 4.61v18.8h2v-18.8a8.863 8.863 0 0 1 .83-3.77l4.01-8.69a2.853 2.853 0 0 1 1.16-1.27v17.53a6.5 6.5 0 0 0 .08.99l-.64 1.11 1.73 1 6-10.39a2 2 0 1 1 3.46 2l-4.5 7.79a1.031 1.031 0 0 0 .01 1.02l2.14 3.56a4.987 4.987 0 0 1 .72 2.57v5.34h2v-5.34a7.078 7.078 0 0 0 -.53-2.65h6.07a4 4 0 0 0 .4 1.04l4.31 7.46 1.73-1-4.31-7.46a1.98 1.98 0 0 1 -.2-1.52 2.008 2.008 0 0 1 .93-1.22 2.066 2.066 0 0 1 1.52-.2 1.942 1.942 0 0 1 1.21.94l2 3.46a1.022 1.022 0 0 0 1.13.47 1 1 0 0 0 .74-.97v-17a2 2 0 0 1 4 0v14a1 1 0 0 0 2 0v-4a2 2 0 0 1 4 0v4a1 1 0 0 0 2 0v-3a2 2 0 0 1 4 0v3a1 1 0 0 0 2 0v-2a2 2 0 0 1 4 0v12h2v-12a4 4 0 0 0 -4-4zm-26 2h-4a1 1 0 0 1 0-2h4a1 1 0 0 1 0 2zm14-4a3.989 3.989 0 0 0 -2 .54v-6.54a4 4 0 0 0 -8 0v13.27l-.13-.23a3.955 3.955 0 0 0 -2.01-1.71 2.968 2.968 0 0 0 1.14-2.33 3.009 3.009 0 0 0 -3-3h-4a3 3 0 0 0 0 6h1.8a3.952 3.952 0 0 0 -1.26 2h-7.17l-1.21-2.01 4.21-7.28a4 4 0 1 0 -6.93-4l-3.44 5.95v-35.66a5 5 0 0 1 5-5h22a5 5 0 0 1 5 5z"/><path d="m34.84 28.42-3.63-3.63a1.008 1.008 0 0 0 -1.42 0l-1.78 1.79a.97.97 0 0 1 -.96.27 3.041 3.041 0 0 1 -1.9-1.9.97.97 0 0 1 .27-.96l1.79-1.78a1.008 1.008 0 0 0 0-1.42l-3.63-3.63a1.011 1.011 0 0 0 -1.35-.06 9 9 0 0 0 4.58 15.82 9.356 9.356 0 0 0 1.18.08 8.972 8.972 0 0 0 6.91-3.23 1.011 1.011 0 0 0 -.06-1.35zm-11.99-9.15 2.24 2.23-1.08 1.08c-.01 0-.01 0-.01.01l-2.07-2.07a7.066 7.066 0 0 1 .92-1.25zm4.21 11.67a7.043 7.043 0 0 1 -6-6 7.212 7.212 0 0 1 .09-2.37l1.98 1.97a2.688 2.688 0 0 0 .13 1.05 4.987 4.987 0 0 0 3.15 3.15 2.688 2.688 0 0 0 1.05.13l1.97 1.98a7.212 7.212 0 0 1 -2.37.09zm4.42-.87-2.07-2.07c.01 0 .01 0 .01-.01l1.08-1.08 2.24 2.24a7.528 7.528 0 0 1 -1.26.92z"/><path d="m33 22h2a5.006 5.006 0 0 0 -5-5v2a3 3 0 0 1 3 3z"/><path d="m30 13v2a7.008 7.008 0 0 1 7 7h2a9.01 9.01 0 0 0 -9-9z"/></g></svg>