<svg xmlns="http://www.w3.org/2000/svg" version="1.1" xmlns:xlink="http://www.w3.org/1999/xlink" xmlns:svgjs="http://svgjs.com/svgjs" width="512" height="512" x="0" y="0" viewBox="0 0 48 48" style="enable-background:new 0 0 512 512" xml:space="preserve" class=""><g transform="matrix(1.26,0,0,1.26,-6.240078229904157,-6.2400781059265)"><g><path d="m5.66 33.03c.3.31.69.47 1.09.47.37 0 .74-.14 1.03-.41l8.5-8c.3-.28.47-.68.47-1.09s-.17-.81-.47-1.09l-8.5-8c-.6-.57-1.55-.54-2.12.06s-.54 1.55.06 2.12l7.34 6.91-7.34 6.91c-.6.57-.63 1.51-.06 2.12z" fill="#000000" data-original="#000000"></path><path d="m18.66 33.03c.3.31.69.47 1.09.47.37 0 .74-.14 1.03-.41l8.5-8c.3-.28.47-.68.47-1.09s-.17-.81-.47-1.09l-8.5-8c-.6-.57-1.55-.54-2.12.06s-.54 1.55.06 2.12l7.34 6.91-7.34 6.91c-.6.57-.63 1.51-.06 2.12z" fill="#000000" data-original="#000000"></path><path d="m31.66 33.03c.3.31.69.47 1.09.47.37 0 .74-.14 1.03-.41l8.5-8c.3-.28.47-.68.47-1.09s-.17-.81-.47-1.09l-8.5-8c-.6-.57-1.55-.54-2.12.06s-.54 1.55.06 2.12l7.34 6.91-7.34 6.91c-.6.57-.63 1.51-.06 2.12z" fill="#000000" data-original="#000000"></path></g></g></svg>