<svg id="Layer_1" fill="#AC8A1A" viewBox="0 0 100 100" xmlns="http://www.w3.org/2000/svg" data-name="Layer 1"><path d="m68.978 51.75a1 1 0 0 0 1.414 0 8.387 8.387 0 0 0 2.49-5.664 7.474 7.474 0 0 0 -2.173-5.6 1 1 0 0 0 -1.409 1.414 5.494 5.494 0 0 1 1.588 4.118 6.4 6.4 0 0 1 -1.905 4.314 1 1 0 0 0 -.005 1.418z"/><path d="m72.733 55.092a.993.993 0 0 0 .707-.293 13.109 13.109 0 0 0 3.9-8.856 11.63 11.63 0 0 0 -3.376-8.7 1 1 0 1 0 -1.414 1.414 9.651 9.651 0 0 1 2.792 7.226 11.125 11.125 0 0 1 -3.313 7.507 1 1 0 0 0 .707 1.707z"/><path d="m76.021 33.764a1 1 0 0 0 0 1.414c5.713 5.715 5.382 15.343-.739 21.463a1 1 0 1 0 1.418 1.414c6.9-6.9 7.232-17.8.739-24.291a1 1 0 0 0 -1.418 0z"/><path d="m20.447 49.375a1 1 0 0 0 1.274.616l14.654-5.1a1 1 0 0 0 .615-1.273l-1.339-3.846-.229-.658a7.983 7.983 0 0 1 4.908-10.151l11.623-4.047a7.966 7.966 0 0 1 10.147 4.903l1.569 4.506a1 1 0 0 0 1.273.615l14.655-5.1a1 1 0 0 0 .615-1.273l-1.34-3.848a21.757 21.757 0 0 0 -27.67-13.377l-18.702 6.51a21.744 21.744 0 0 0 -13.4 27.675zm1.56-1.6-.682-1.959 12.765-4.446.682 1.958zm43.224-15.053-.682-1.959 12.766-4.445.685 1.959zm-43.359-2.928a19.631 19.631 0 0 1 11.29-10.054l18.7-6.512a19.707 19.707 0 0 1 24.758 11.215l-12.743 4.436a9.945 9.945 0 0 0 -12.583-5.857l-11.623 4.048a9.978 9.978 0 0 0 -6.224 12.406l-12.734 4.433a19.566 19.566 0 0 1 1.159-14.115z"/><path d="m59.218 52.513v-6.6a1 1 0 0 0 -1-1h-1.973v-3.105a1 1 0 0 0 -2 0v3.107h-10.325v-3.107a1 1 0 0 0 -2 0v3.107h-1.979a1 1 0 0 0 -1 1v6.6a25.51 25.51 0 0 0 -20.928 25v9.454a1 1 0 0 0 1 1h60.133a1 1 0 0 0 1-1v-9.458a25.51 25.51 0 0 0 -20.928-24.998zm-39.2 33.452v-3.006h58.128v3.006zm58.133-5.006h-58.138v-3.448a23.49 23.49 0 0 1 20.069-23.155 1 1 0 0 0 .859-.99v-6.451h16.277v6.451a1 1 0 0 0 .859.99 23.49 23.49 0 0 1 20.069 23.155z"/><path d="m49.083 55.708a2.21 2.21 0 1 0 2.21 2.209 2.213 2.213 0 0 0 -2.21-2.209zm-.211 2.209a.211.211 0 0 1 .421 0c0 .233-.421.233-.421 0z"/><path d="m49.083 53.509a12.931 12.931 0 1 0 12.931 12.931 12.946 12.946 0 0 0 -12.931-12.931zm0 23.862a10.931 10.931 0 1 1 10.931-10.931 10.945 10.945 0 0 1 -10.931 10.931z"/><path d="m49.083 72.752a2.211 2.211 0 1 0 2.21 2.21 2.213 2.213 0 0 0 -2.21-2.21zm-.211 2.21a.211.211 0 0 1 .421 0c0 .233-.421.233-.421 0z"/><path d="m42.771 66.44a2.211 2.211 0 1 0 -2.21 2.21 2.213 2.213 0 0 0 2.21-2.21zm-2.421 0a.211.211 0 0 1 .421 0c0 .232-.421.232-.421 0z"/><path d="m55.4 66.44a2.21 2.21 0 1 0 2.21-2.21 2.213 2.213 0 0 0 -2.21 2.21zm2.21-.21a.209.209 0 0 1 .21.21c0 .232-.42.232-.42 0a.21.21 0 0 1 .205-.21z"/><path d="m41.492 58.852a2.216 2.216 0 0 0 0 3.124 2.21 2.21 0 1 0 0-3.125zm1.713 1.711a.211.211 0 0 1 -.3-.3.236.236 0 0 1 .3 0 .211.211 0 0 1 0 .3z"/><path d="m53.546 70.9a2.21 2.21 0 1 0 3.126 0 2.213 2.213 0 0 0 -3.126 0zm1.712 1.711a.21.21 0 0 1 -.3-.3.236.236 0 0 1 .3 0 .21.21 0 0 1 0 .304z"/><path d="m41.492 70.9a2.21 2.21 0 1 0 3.127 0 2.216 2.216 0 0 0 -3.127 0zm1.713 1.711a.21.21 0 1 1 -.3-.3.236.236 0 0 1 .3 0 .21.21 0 0 1 0 .304z"/><path d="m53.546 58.851a2.21 2.21 0 1 0 3.126 0 2.214 2.214 0 0 0 -3.126 0zm1.712 1.712a.211.211 0 1 1 -.15-.351.215.215 0 0 1 .15.053.211.211 0 0 1 0 .298z"/></svg>