<svg aria-hidden="true" style="position: absolute; width: 0; height: 0; overflow: hidden;" version="1.1" xmlns="http://www.w3.org/2000/svg" xmlns:xlink="http://www.w3.org/1999/xlink">
<defs>
<symbol id="icon-back-arrow" viewBox="0 0 32 32">
<path d="M12.571 6.888v-5.745c-0-0.631-0.512-1.143-1.143-1.143-0.336 0-0.639 0.146-0.848 0.377l-0.001 0.001-10.286 11.429c-0.181 0.201-0.292 0.47-0.292 0.764 0 0.275 0.097 0.527 0.259 0.724l-0.002-0.002 10.286 12.572c0.4 0.488 1.12 0.561 1.608 0.161 0.256-0.211 0.418-0.527 0.419-0.882v-5.695c9.029 0.294 14.663 4.153 17.203 11.772 0.156 0.457 0.582 0.781 1.084 0.781 0.065 0 0.128-0.005 0.19-0.016l-0.007 0.001c0.547-0.092 0.959-0.562 0.959-1.128 0-0 0-0 0-0v0c-0-13.458-8.102-23.345-19.429-23.969z"></path>
</symbol>
<symbol id="icon-burger" viewBox="0 0 32 32">
<path fill="none" stroke="#ac8a1a" style="stroke: var(--color1, #ac8a1a)" stroke-linejoin="miter" stroke-linecap="round" stroke-miterlimit="4" stroke-width="2.1333" d="M5.333 15h19.2M5.333 8.034h19.2M5.333 21.9h19.2"></path>
<path fill="none" stroke="#ac8a1a" style="stroke: var(--color1, #ac8a1a)" stroke-linejoin="miter" stroke-linecap="butt" stroke-miterlimit="4" stroke-width="0.5333" d="M5.867 2.4h18.133c2.504 0 4.533 2.030 4.533 4.533v16c0 2.504-2.030 4.533-4.533 4.533h-18.133c-2.504 0-4.533-2.030-4.533-4.533v-16c0-2.504 2.030-4.533 4.533-4.533z"></path>
</symbol>
<symbol id="icon-burgerClose" viewBox="0 0 32 32">
<path fill="none" stroke="#ac8a1a" style="stroke: var(--color1, #ac8a1a)" stroke-linejoin="miter" stroke-linecap="round" stroke-miterlimit="4" stroke-width="1.9394" d="M5.612 6.834l18.313 16.403M6.24 23.236l17.844-16.385"></path>
<path fill="none" stroke="#ac8a1a" style="stroke: var(--color1, #ac8a1a)" stroke-linejoin="miter" stroke-linecap="butt" stroke-miterlimit="4" stroke-width="0.4848" d="M5.333 2.667h19.394c2.276 0 4.121 1.845 4.121 4.121v16.485c0 2.276-1.845 4.121-4.121 4.121h-19.394c-2.276 0-4.121-1.845-4.121-4.121v-16.485c0-2.276 1.845-4.121 4.121-4.121z"></path>
</symbol>
<symbol id="icon-check" viewBox="0 0 32 32">
<path d="M31.256 5.23c-0.99-0.991-2.598-0.991-3.589 0l-16.154 16.155-7.18-7.18c-0.991-0.991-2.598-0.991-3.59 0s-0.991 2.598 0 3.59l8.974 8.974c0.495 0.495 1.145 0.744 1.795 0.744s1.3-0.248 1.795-0.744l17.949-17.949c0.991-0.991 0.991-2.598 0-3.59z"></path>
</symbol>
<symbol id="icon-facebook" viewBox="0 0 32 32">
<path fill="#3764b9" style="fill: var(--color2, #3764b9)" d="M16 32h-8c-4.418 0-8-3.582-8-8v0-16c0-4.418 3.582-8 8-8v0h16c4.418 0 8 3.582 8 8v0 16c0 4.418-3.582 8-8 8v0h-3c0-1.381-1.119-2.5-2.5-2.5s-2.5 1.119-2.5 2.5v0z"></path>
<path fill="#507dd2" style="fill: var(--color3, #507dd2)" d="M15 9h9c0.002 0 0.004 0 0.006 0 2.485 0 4.5-2.015 4.5-4.5 0-2.325-1.764-4.239-4.026-4.475l-0.019-0.002c-0.153-0.009-0.305-0.023-0.46-0.023h-16c-4.418 0-8 3.582-8 8v0 16c0-8.284 6.716-15 15-15v0z"></path>
<path fill="#1e4ba0" style="fill: var(--color4, #1e4ba0)" d="M24 16c-4.418 0-8 3.582-8 8s3.582 8 8 8c4.418 0 8-3.582 8-8v0-16c0 4.418-3.582 8-8 8v0z"></path>
<path fill="#fff" style="fill: var(--color5, #fff)" d="M26 9c0 0.552-0.448 1-1 1v0h-3c-0.552 0-1 0.448-1 1v0 4h3.78c0.552 0 1 0.448 1 1 0 0.069-0.007 0.137-0.020 0.202l0.001-0.006-0.6 3c-0.095 0.462-0.498 0.804-0.98 0.804h-3.18v12h-5v-12h-3c-0.552 0-1-0.448-1-1v0-3c0-0.552 0.448-1 1-1v0h3v-4c0-3.314 2.686-6 6-6v0h3c0.552 0 1 0.448 1 1v0z"></path>
</symbol>
<symbol id="icon-instagram" viewBox="0 0 32 32">
<path d="M22.467 0h-12.934c-5.256 0-9.533 4.276-9.533 9.533v12.934c0 5.256 4.276 9.533 9.533 9.533h12.934c5.256 0 9.533-4.276 9.533-9.533v-12.934c-0-5.256-4.277-9.533-9.533-9.533zM28.781 22.467c0 3.487-2.827 6.314-6.314 6.314h-12.934c-3.487 0-6.314-2.827-6.314-6.314v-12.934c0-3.487 2.827-6.314 6.314-6.314h12.934c3.487 0 6.314 2.827 6.314 6.314v12.934z"></path>
<path d="M16 7.724c-4.564 0-8.276 3.713-8.276 8.276s3.713 8.276 8.276 8.276 8.276-3.713 8.276-8.276-3.713-8.276-8.276-8.276zM16 21.057c-2.793 0-5.057-2.264-5.057-5.057s2.264-5.057 5.057-5.057c2.793 0 5.057 2.264 5.057 5.057s-2.264 5.057-5.057 5.057z"></path>
<path d="M26.276 7.786c0 1.095-0.888 1.983-1.983 1.983s-1.983-0.888-1.983-1.983c0-1.095 0.888-1.983 1.983-1.983s1.983 0.888 1.983 1.983z"></path>
</symbol>
<symbol id="icon-logo" viewBox="0 0 32 32">
<path fill="#0a8041" style="fill: var(--color6, #0a8041)" d="M16.172 15.499c-0.009 0.055-0.017 0.114-0.025 0.179-0.010 0.079-0.016 0.114-0.014 0.192l-0.001 0.1c-0.009 0.245-0.101 0.539-0.362 0.621-0.29 0.091-0.584-0.089-0.659-0.385-0.017-0.068-0.020-0.122-0.012-0.19 0.047-0.403 0.374-0.588 0.544-0.694-0.026-0.014-0.051-0.028-0.077-0.043-0.014 0.005-0.028 0.010-0.043 0.015-0.468 0.154-0.56 0.377-0.768 0.618-0.085-0.019-0.257-0.054-0.341-0.126-0.124-0.107-0.125-0.267-0.056-0.347 0.106-0.123 0.144-0.165 0.314-0.233 0.203-0.081 0.645-0.122 0.835-0.157-0.056-0.052-0.111-0.107-0.162-0.165l-0.204 0.018c-0.21 0.026-0.615 0.057-0.813 0.131-0.213 0.080-0.43 0.208-0.5 0.445-0.023 0.076-0.026 0.11-0.021 0.182 0.019 0.264 0.162 0.395 0.384 0.509 0.033 0.017 0.047 0.018 0.083 0.030l0.225 0.050c0.051 0.004 0.097-0.008 0.143 0.032 0.002 0.001 0.028 0.361 0.252 0.554 0.243 0.21 0.433 0.284 0.722 0.263 0.123-0.009 0.277-0.048 0.384-0.105 0.019-0.010 0.060-0.038 0.077-0.049 0.279-0.183 0.392-0.559 0.37-0.876l-0.043-0.348c-0.012-0.099-0.021-0.138-0.027-0.203-0.070-0.001-0.138-0.007-0.206-0.018zM17.401 14.896c0.12-0.003 0.553-0.004 0.675 0.014 0.080 0.012 0.154 0.014 0.233 0.035 0.158 0.042 0.227 0.095 0.346 0.197 0.101 0.087 0.102 0.279-0.021 0.399-0.047 0.046-0.057 0.063-0.104 0.090-0.098 0.056-0.175 0.090-0.294 0.1-0.274 0.021-0.11 0.020-0.312-0.005-0.245-0.030-0.534-0.215-0.711-0.423-0.019 0.011-0.039 0.021-0.058 0.031 0.010 0.021 0.026 0.047 0.048 0.086 0.146 0.262 0.369 0.457 0.649 0.56 0.003 0.001 0.007 0.003 0.010 0.004 0.078 0.028 0.136 0.023 0.117 0.111-0.032 0.148-0.135 0.327-0.292 0.367-0.023 0.006-0.044 0.006-0.069 0.012-0.2 0.041-0.429-0.125-0.512-0.264-0.216-0.363-0.223-0.532-0.278-0.749-0.062 0.017-0.125 0.030-0.189 0.040l0.019 0.23c0.028 0.258 0.087 0.576 0.227 0.807 0.224 0.372 0.553 0.482 0.968 0.389 0.28-0.062 0.477-0.269 0.555-0.542 0.047-0.165 0.016-0.194 0.037-0.284 0.119-0.033 0.155-0.012 0.335-0.081 0.283-0.108 0.494-0.319 0.47-0.641-0.025-0.339-0.292-0.505-0.573-0.616-0.212-0.084-0.852-0.089-1.119-0.065-0.049 0.069-0.102 0.135-0.157 0.197zM16.579 16.294c-0.036 0.194-0.017 0.329-0.070 0.613-0.039 0.21-0.046 0.29-0.121 0.521l-0.053 0.152c-0.068 0.187-0.196 0.365-0.326 0.526-0.070 0.070-0.139 0.148-0.207 0.234-0.202 0.253-0.364 0.531-0.485 0.832s-0.181 0.571-0.181 0.807c0 0.203 0.047 0.361 0.14 0.477s0.221 0.173 0.383 0.173c0.122 0 0.249-0.045 0.383-0.135s0.267-0.222 0.403-0.394c0.048-0.062 0.085-0.117 0.111-0.163s0.040-0.080 0.040-0.101c0-0.026-0.016-0.056-0.048-0.089s-0.061-0.049-0.088-0.049c-0.024 0-0.051 0.027-0.082 0.082-0.022 0.039-0.041 0.070-0.058 0.092-0.103 0.142-0.206 0.249-0.308 0.322s-0.2 0.108-0.295 0.108c-0.072 0-0.126-0.026-0.162-0.079s-0.055-0.13-0.055-0.234c0-0.197 0.051-0.427 0.152-0.688s0.244-0.526 0.427-0.794c0.125-0.182 0.246-0.324 0.361-0.426s0.213-0.152 0.294-0.152c0.042 0 0.074 0.014 0.096 0.042s0.032 0.069 0.032 0.124c0 0.081-0.021 0.156-0.064 0.227s-0.103 0.131-0.182 0.18c-0.041 0.025-0.091 0.049-0.151 0.071s-0.090 0.046-0.090 0.070c0 0.032 0.014 0.070 0.044 0.111s0.057 0.062 0.083 0.062c0.034 0 0.083-0.016 0.146-0.047s0.122-0.070 0.176-0.116c0.095-0.082 0.168-0.173 0.218-0.272s0.075-0.201 0.075-0.308c0-0.122-0.031-0.216-0.093-0.281s-0.15-0.099-0.263-0.099c-0.068 0-0.139 0.014-0.215 0.041 0.084-0.22 0.094-0.426 0.103-0.671 0.008-0.212 0.006-0.307-0.020-0.526-0.012-0.097-0.002-0.154-0.050-0.245zM17.763 23.824c-0.071 0.034-0.143 0.061-0.213 0.081s-0.139 0.032-0.205 0.036l0.055-0.195c0.056-0.003 0.11-0.012 0.161-0.027s0.102-0.038 0.152-0.067c0.002-0.092 0.014-0.192 0.038-0.298s0.061-0.233 0.113-0.379c0.063-0.174 0.111-0.286 0.142-0.337s0.064-0.076 0.098-0.076c0.074 0 0.129 0.009 0.167 0.026s0.056 0.045 0.056 0.080c0 0.020-0.020 0.074-0.061 0.161s-0.072 0.157-0.094 0.211c-0.051 0.125-0.087 0.226-0.108 0.304s-0.031 0.147-0.031 0.208c0 0.037 0.007 0.064 0.022 0.082s0.037 0.027 0.068 0.027c0.070 0 0.15-0.053 0.239-0.16s0.173-0.248 0.25-0.424c0.038-0.085 0.074-0.188 0.11-0.308 0.038-0.128 0.085-0.193 0.141-0.193s0.105 0.010 0.146 0.031c0.041 0.021 0.061 0.047 0.061 0.079 0 0.018-0.011 0.054-0.034 0.108-0.017 0.039-0.030 0.071-0.038 0.095l-0.32 0.897c0.051-0.011 0.14-0.024 0.266-0.036 0.012-0.001 0.020-0.002 0.027-0.003l-0.055 0.195c-0.088 0.009-0.154 0.017-0.2 0.025s-0.086 0.018-0.121 0.028c-0.064 0.231-0.136 0.403-0.217 0.515s-0.171 0.168-0.272 0.168c-0.049 0-0.086-0.012-0.112-0.037s-0.039-0.061-0.039-0.11c0-0.089 0.034-0.177 0.101-0.265s0.157-0.157 0.27-0.21c0.046-0.116 0.089-0.228 0.128-0.335s0.077-0.212 0.112-0.313c-0.1 0.186-0.198 0.323-0.294 0.409s-0.197 0.13-0.302 0.13c-0.047 0-0.091-0.011-0.13-0.034s-0.066-0.053-0.079-0.088zM15.764 23.941l0.055-0.195c0.052-0.003 0.098-0.009 0.139-0.020s0.077-0.025 0.11-0.044c-0.004-0.022-0.008-0.045-0.011-0.068s-0.003-0.050-0.003-0.079c0-0.11 0.021-0.221 0.062-0.33s0.1-0.209 0.175-0.3c0.093-0.11 0.191-0.194 0.296-0.25s0.212-0.085 0.324-0.085c0.044 0 0.086 0.005 0.127 0.017s0.083 0.028 0.127 0.051l0.221-0.622c0.006-0.018 0.015-0.045 0.027-0.079 0.053-0.156 0.126-0.233 0.219-0.233 0.075 0 0.129 0.008 0.161 0.023s0.048 0.041 0.048 0.078c0 0.017-0.014 0.055-0.041 0.114-0.018 0.037-0.031 0.067-0.041 0.089l-0.254 0.599c-0.093 0.218-0.169 0.424-0.229 0.617s-0.089 0.319-0.089 0.376c0 0.051 0.014 0.087 0.043 0.108s0.084 0.034 0.168 0.040l-0.055 0.193h-0.026c-0.148 0-0.252-0.016-0.312-0.048s-0.090-0.085-0.090-0.161c0-0.033 0.006-0.075 0.017-0.124s0.030-0.111 0.056-0.189c-0.097 0.178-0.195 0.31-0.295 0.397s-0.203 0.13-0.312 0.13c-0.054 0-0.102-0.009-0.146-0.028s-0.075-0.044-0.095-0.075c-0.038 0.028-0.087 0.050-0.148 0.066s-0.137 0.026-0.228 0.031zM17.091 22.842c-0.017-0.008-0.033-0.013-0.050-0.017s-0.032-0.006-0.048-0.006c-0.068 0-0.137 0.023-0.206 0.069s-0.139 0.114-0.209 0.206c-0.060 0.078-0.11 0.161-0.147 0.249s-0.056 0.161-0.056 0.219c0 0.043 0.010 0.078 0.031 0.103s0.048 0.038 0.082 0.038c0.082 0 0.175-0.074 0.279-0.223s0.211-0.361 0.323-0.638zM15.629 23.046c-0.047-0.007-0.083-0.026-0.108-0.053s-0.037-0.065-0.037-0.112c0-0.068 0.019-0.124 0.056-0.169s0.086-0.067 0.143-0.067c0.063 0 0.112 0.026 0.147 0.078s0.053 0.124 0.053 0.218c0 0.116-0.018 0.234-0.055 0.355s-0.087 0.231-0.153 0.332c-0.070 0.107-0.145 0.188-0.225 0.241s-0.167 0.080-0.259 0.080c-0.067 0-0.125-0.009-0.175-0.027s-0.092-0.045-0.127-0.082c-0.062 0.031-0.126 0.056-0.193 0.073s-0.139 0.027-0.218 0.029l0.056-0.195c0.052-0.003 0.098-0.010 0.139-0.020s0.078-0.026 0.111-0.045c-0.011-0.032-0.020-0.065-0.025-0.1s-0.009-0.072-0.009-0.111c0-0.107 0.021-0.217 0.064-0.331s0.102-0.216 0.176-0.303c0.065-0.079 0.143-0.143 0.234-0.192s0.175-0.074 0.253-0.074c0.021 0 0.037 0.004 0.049 0.014s0.017 0.021 0.017 0.037c0 0.021-0.023 0.055-0.069 0.1s-0.081 0.084-0.105 0.115c-0.097 0.123-0.172 0.249-0.223 0.376s-0.078 0.247-0.078 0.358c0 0.053 0.012 0.094 0.035 0.124s0.055 0.045 0.096 0.045c0.097 0 0.192-0.071 0.284-0.212s0.14-0.302 0.144-0.48zM13.92 22.553c0.048 0.005 0.094 0.016 0.136 0.032s0.084 0.040 0.125 0.071c0.103-0.078 0.182-0.16 0.238-0.246s0.084-0.167 0.084-0.244c0-0.073-0.017-0.129-0.051-0.168s-0.083-0.058-0.148-0.058c-0.045 0-0.092 0.010-0.138 0.029s-0.095 0.049-0.144 0.089c-0.012 0.079-0.027 0.159-0.043 0.242s-0.036 0.167-0.057 0.252zM13.625 22.501c-0.088 0.081-0.169 0.179-0.244 0.294s-0.148 0.255-0.22 0.418c-0.044 0.105-0.077 0.195-0.099 0.273s-0.033 0.139-0.033 0.188c0 0.028 0.005 0.048 0.015 0.060s0.027 0.019 0.048 0.019c0.069 0 0.151-0.109 0.244-0.326s0.19-0.525 0.29-0.926zM13.558 23.608c0.048 0.013 0.090 0.023 0.127 0.029s0.069 0.009 0.099 0.009c0.117 0 0.213-0.046 0.289-0.137s0.113-0.205 0.113-0.343c0-0.054-0.007-0.104-0.021-0.149s-0.037-0.092-0.068-0.137c-0.025 0.003-0.049 0.006-0.071 0.008s-0.041 0.003-0.058 0.003c-0.018 0-0.038-0-0.059-0.002s-0.045-0.004-0.071-0.007c-0.039 0.149-0.081 0.283-0.127 0.404s-0.097 0.227-0.151 0.32zM13.437 23.833c-0.058 0.082-0.122 0.145-0.191 0.19s-0.139 0.066-0.212 0.066c-0.088 0-0.154-0.030-0.2-0.092s-0.069-0.151-0.069-0.268c0-0.13 0.031-0.278 0.093-0.446s0.149-0.338 0.261-0.509c0.091-0.138 0.188-0.262 0.293-0.373s0.204-0.193 0.297-0.249c0.002-0.025 0.006-0.059 0.010-0.102 0.013-0.161 0.035-0.255 0.067-0.284 0.019-0.018 0.054-0.036 0.106-0.055s0.094-0.028 0.127-0.028c0.014 0 0.027 0.006 0.037 0.019s0.016 0.027 0.016 0.043c0 0.009-0.001 0.018-0.002 0.029s-0.003 0.022-0.005 0.034c0.056-0.040 0.116-0.071 0.18-0.093s0.126-0.032 0.186-0.032c0.119 0 0.215 0.042 0.289 0.126s0.111 0.193 0.111 0.328c0 0.144-0.043 0.273-0.131 0.387s-0.213 0.206-0.379 0.276c0.063 0.082 0.109 0.165 0.139 0.247s0.046 0.165 0.046 0.248c0 0.18-0.060 0.333-0.181 0.46s-0.269 0.19-0.445 0.19c-0.075 0-0.149-0.009-0.221-0.028s-0.146-0.048-0.221-0.086zM20.996 19.757c0.117-0.020 0.224-0.101 0.321-0.243s0.209-0.388 0.336-0.739c-0.022-0.022-0.038-0.047-0.048-0.074s-0.015-0.057-0.015-0.092c0-0.069 0.019-0.127 0.056-0.172s0.084-0.068 0.14-0.068c0.052 0 0.093 0.014 0.123 0.043s0.045 0.067 0.045 0.115c0 0.023-0.002 0.045-0.007 0.064s-0.012 0.040-0.023 0.060c0.048 0.030 0.111 0.067 0.187 0.11 0.139 0.076 0.208 0.151 0.208 0.226 0 0.063-0.038 0.175-0.113 0.335s-0.113 0.269-0.113 0.327c0 0.034 0.013 0.059 0.039 0.073s0.093 0.026 0.201 0.035l-0.055 0.193h-0.042c-0.17 0-0.292-0.020-0.366-0.060s-0.112-0.104-0.112-0.194c0-0.080 0.036-0.198 0.107-0.355s0.107-0.257 0.107-0.302c0-0.021-0.012-0.043-0.037-0.065s-0.066-0.051-0.125-0.086c-0.126 0.372-0.257 0.639-0.391 0.801s-0.292 0.248-0.476 0.26l-0 0h-0.039c-0.105 0-0.198-0.012-0.278-0.035s-0.15-0.060-0.208-0.108c-0.091 0.044-0.183 0.078-0.275 0.102s-0.184 0.038-0.278 0.042l0.057-0.195c0.065-0.005 0.125-0.014 0.18-0.027s0.109-0.031 0.16-0.055c-0.036-0.048-0.062-0.103-0.079-0.164s-0.026-0.134-0.026-0.216c0-0.192 0.064-0.358 0.193-0.5s0.281-0.213 0.456-0.213c0.098 0 0.176 0.030 0.233 0.090s0.085 0.142 0.085 0.246c0 0.113-0.041 0.238-0.123 0.375s-0.19 0.257-0.326 0.362c0.040 0.037 0.083 0.064 0.129 0.080s0.104 0.024 0.172 0.024h0.017zM20.564 19.504c0.098-0.065 0.181-0.153 0.247-0.264s0.1-0.207 0.1-0.29c0-0.041-0.010-0.073-0.029-0.094s-0.049-0.032-0.086-0.032c-0.078 0-0.148 0.047-0.208 0.14s-0.090 0.202-0.090 0.326c0 0.047 0.005 0.088 0.015 0.122s0.028 0.065 0.051 0.093zM18.964 19.861c-0.049 0.028-0.105 0.049-0.168 0.064s-0.135 0.024-0.215 0.027l0.056-0.195c0.052-0.003 0.098-0.010 0.139-0.020s0.078-0.026 0.111-0.045c-0.008-0.031-0.013-0.058-0.017-0.084s-0.006-0.048-0.006-0.069c0-0.083 0.019-0.189 0.056-0.318s0.090-0.264 0.157-0.407l0.018-0.037c0.065-0.14 0.126-0.21 0.182-0.21 0.060 0 0.115 0.014 0.164 0.042s0.074 0.059 0.074 0.094c0 0.014-0.019 0.058-0.057 0.133s-0.070 0.14-0.097 0.196c-0.061 0.136-0.108 0.252-0.139 0.349s-0.047 0.173-0.047 0.229c0 0.035 0.010 0.064 0.028 0.087s0.043 0.034 0.073 0.034c0.080 0 0.169-0.069 0.269-0.206s0.172-0.302 0.217-0.493c-0.046-0.005-0.082-0.024-0.107-0.056s-0.038-0.079-0.038-0.138c0-0.070 0.019-0.128 0.058-0.173s0.088-0.068 0.149-0.068c0.066 0 0.117 0.022 0.153 0.066s0.055 0.106 0.055 0.184c0 0.097-0.027 0.213-0.081 0.348s-0.127 0.27-0.221 0.404c-0.087 0.125-0.172 0.216-0.256 0.273s-0.174 0.085-0.27 0.085c-0.056 0-0.106-0.009-0.15-0.026s-0.075-0.041-0.094-0.071zM18.202 19.504c0.098-0.065 0.18-0.153 0.247-0.264s0.1-0.207 0.1-0.29c0-0.041-0.010-0.073-0.029-0.094s-0.049-0.032-0.086-0.032c-0.078 0-0.148 0.047-0.208 0.14s-0.090 0.202-0.090 0.326c0 0.047 0.005 0.088 0.015 0.122s0.028 0.065 0.051 0.093zM18.056 19.808c-0.091 0.044-0.183 0.078-0.275 0.102s-0.184 0.038-0.277 0.042v0h-0.033c-0.106 0-0.188-0.015-0.246-0.046s-0.096-0.078-0.113-0.142c-0.062 0.058-0.129 0.104-0.2 0.135s-0.144 0.050-0.219 0.054l0.054-0.195c0.049 0 0.101-0.015 0.157-0.044s0.118-0.076 0.188-0.139c0.031-0.218 0.074-0.442 0.129-0.674s0.12-0.461 0.195-0.687c0.062-0.187 0.121-0.316 0.175-0.388s0.117-0.107 0.188-0.107c0.047 0 0.086 0.019 0.117 0.057s0.046 0.088 0.046 0.148c0 0.075-0.027 0.17-0.083 0.286s-0.13 0.233-0.224 0.352c-0.072 0.237-0.131 0.455-0.175 0.653s-0.066 0.331-0.066 0.396c0 0.052 0.013 0.089 0.038 0.112s0.068 0.034 0.127 0.034l-0.027 0.097 0.028-0.097c0.065-0.005 0.125-0.014 0.18-0.027s0.109-0.031 0.16-0.055c-0.036-0.048-0.062-0.103-0.079-0.164s-0.026-0.134-0.026-0.216c0-0.192 0.064-0.358 0.193-0.5s0.281-0.213 0.456-0.213c0.098 0 0.176 0.030 0.233 0.090s0.085 0.142 0.085 0.246c0 0.113-0.041 0.238-0.123 0.375s-0.19 0.257-0.326 0.362c0.040 0.037 0.083 0.064 0.129 0.080s0.104 0.024 0.172 0.024h0.020l-0.055 0.195h-0.039c-0.105 0-0.198-0.012-0.278-0.035s-0.15-0.060-0.208-0.108zM13.059 19.835c-0.071 0.034-0.143 0.061-0.213 0.081s-0.139 0.032-0.205 0.036l0.055-0.195c0.056-0.003 0.11-0.012 0.161-0.027s0.102-0.038 0.152-0.067c0.002-0.092 0.014-0.192 0.038-0.298s0.061-0.233 0.113-0.379c0.063-0.174 0.111-0.286 0.142-0.337s0.064-0.076 0.098-0.076c0.074 0 0.129 0.009 0.167 0.026s0.056 0.045 0.056 0.080c0 0.020-0.020 0.074-0.061 0.161s-0.072 0.157-0.094 0.211c-0.051 0.125-0.087 0.226-0.108 0.304s-0.031 0.147-0.031 0.208c0 0.037 0.007 0.064 0.022 0.082s0.037 0.027 0.068 0.027c0.070 0 0.15-0.053 0.239-0.16s0.173-0.248 0.25-0.424c0.038-0.085 0.074-0.188 0.11-0.308 0.038-0.128 0.085-0.193 0.141-0.193s0.105 0.010 0.146 0.031c0.041 0.021 0.061 0.047 0.061 0.079 0 0.018-0.011 0.054-0.034 0.108-0.017 0.039-0.030 0.071-0.038 0.095l-0.32 0.897c0.051-0.011 0.139-0.024 0.266-0.036 0.012-0.001 0.020-0.002 0.027-0.003l-0.055 0.195c-0.088 0.009-0.154 0.017-0.2 0.025s-0.086 0.018-0.121 0.029c-0.064 0.231-0.136 0.403-0.217 0.515s-0.171 0.168-0.272 0.168c-0.049 0-0.086-0.012-0.113-0.037s-0.039-0.061-0.039-0.11c0-0.089 0.034-0.177 0.101-0.265s0.157-0.157 0.27-0.21c0.046-0.116 0.089-0.228 0.128-0.335s0.077-0.212 0.112-0.313c-0.1 0.186-0.198 0.323-0.294 0.409s-0.197 0.13-0.302 0.13c-0.047 0-0.091-0.011-0.13-0.034s-0.066-0.053-0.079-0.088zM10.033 18.782c-0.016 0.033-0.038 0.059-0.065 0.076s-0.059 0.025-0.096 0.025c-0.074 0-0.131-0.030-0.171-0.091s-0.060-0.147-0.060-0.26c0-0.229 0.070-0.426 0.21-0.59s0.308-0.246 0.504-0.246c0.135 0 0.24 0.034 0.316 0.102s0.114 0.163 0.114 0.284c0 0.066-0.012 0.152-0.035 0.259s-0.061 0.243-0.113 0.408c0.212-0.385 0.391-0.654 0.535-0.807s0.287-0.23 0.427-0.23c0.084 0 0.149 0.027 0.196 0.081s0.070 0.129 0.070 0.226c0 0.12-0.074 0.346-0.222 0.678l-0.033 0.071c0.246-0.384 0.452-0.658 0.62-0.823s0.321-0.247 0.46-0.247c0.077 0 0.14 0.027 0.19 0.080s0.074 0.121 0.074 0.205c0 0.119-0.079 0.37-0.237 0.751l-0.038 0.092-0.023 0.056c-0.159 0.386-0.238 0.614-0.238 0.686 0 0.065 0.022 0.113 0.065 0.143s0.114 0.047 0.212 0.050l-0.055 0.195h-0.042c-0.187 0-0.323-0.031-0.409-0.094s-0.128-0.162-0.128-0.297c0-0.119 0.094-0.401 0.281-0.845 0.040-0.093 0.070-0.165 0.092-0.216l0.014-0.033c0.084-0.2 0.125-0.323 0.125-0.369 0-0.021-0.007-0.039-0.020-0.054s-0.029-0.022-0.047-0.022c-0.072 0-0.207 0.121-0.403 0.362s-0.374 0.524-0.531 0.847c-0.050 0.1-0.098 0.202-0.143 0.307s-0.089 0.212-0.129 0.32c-0.016 0.044-0.036 0.071-0.060 0.083s-0.063 0.017-0.117 0.017c-0.081 0-0.141-0.007-0.18-0.021s-0.058-0.035-0.058-0.064c0-0.016 0.035-0.104 0.105-0.261 0.055-0.126 0.1-0.231 0.136-0.314 0.132-0.309 0.235-0.565 0.309-0.77s0.111-0.333 0.111-0.388c0-0.030-0.009-0.055-0.026-0.074s-0.038-0.029-0.064-0.029c-0.090 0-0.216 0.107-0.376 0.321s-0.316 0.488-0.467 0.822c-0.056 0.126-0.113 0.266-0.17 0.42s-0.089 0.242-0.097 0.261c-0.019 0.044-0.039 0.072-0.061 0.082s-0.065 0.015-0.13 0.015c-0.067 0-0.119-0.007-0.155-0.022s-0.055-0.034-0.055-0.060c0-0.027 0.035-0.125 0.105-0.296s0.127-0.316 0.172-0.439c0.074-0.196 0.134-0.382 0.178-0.556s0.066-0.302 0.066-0.383c0-0.066-0.016-0.117-0.047-0.153s-0.077-0.054-0.135-0.054c-0.098 0-0.182 0.051-0.253 0.152s-0.106 0.221-0.106 0.361c0 0.059 0.010 0.114 0.029 0.163s0.045 0.086 0.079 0.11z"></path>
<path fill="#d7b56d" style="fill: var(--color7, #d7b56d)" d="M15.757 10.925c-0.107-0.043 0.079 0.006 0.079-0.204-0.845 0.226-0.703-0.388-0.339-0.393 0.308-0.004 0.417 0.464 0.553 0.67-0.142-0.454 0.207-0.372 0.368-0.611-0.076-0.285-0.45-0.631-0.402-1.615 0.012-0.237 0.386-1.282 0.483-1.428-0.212 0.083-0.668 0.922-0.759 1.152-0.304 0.767-0.109 1.025 0.091 1.613-0.415-0.22-1.031-0.113-1.042 0.409-0.014 0.652 0.533 0.68 0.968 0.408z"></path>
<path fill="#d7b56d" style="fill: var(--color7, #d7b56d)" d="M16.176 9.271c-0.010 0.169 0.133 0.363 0.212 0.45 0.087-0.082 0.197-0.185 0.222-0.431 0.014-0.281-0.419-0.274-0.434-0.019z"></path>
<path fill="#0a8041" style="fill: var(--color6, #0a8041)" d="M17.733 13.701c0.138 0.034 0.643 0.012 0.661 0.255 0.010 0.063 0.009 0.059-0.030 0.123-0.094 0.155-0.476 0.231-0.675 0.274-0.040 0.078-0.075 0.138-0.112 0.197l0.007-0.013c0.252-0.009 0.415-0.024 0.68-0.073 0.137-0.025 0.428-0.125 0.506-0.215 0.132-0.153 0.162-0.214 0.1-0.409-0.079-0.247-0.356-0.361-0.582-0.419-0.071-0.018-0.452-0.027-0.521-0.035-0.003 0.107-0.015 0.211-0.034 0.314zM14.993 13.517c-0.084-0.002-0.167 0.026-0.246 0.056-0.282 0.107-0.824 0.336-0.83 0.673-0.002 0.141 0.082 0.236 0.188 0.318 0.241 0.188 0.885 0.168 1.19 0.131-0.041-0.059-0.080-0.121-0.118-0.184-0.13 0.005-0.274 0.003-0.475-0.031-0.648-0.108-0.166-0.61 0.35-0.653-0.027-0.101-0.047-0.205-0.059-0.31z"></path>
<path fill="#d7b56d" style="fill: var(--color7, #d7b56d)" d="M16.606 14.339c-0.093-0.034-0.047-0.006-0.195-0.176-0.187-0.216-0.409-0.631-0.457-0.926-0.118 0.322 0.075 1.090 0.362 1.539-0.535-0.358-0.709-1.209-0.572-1.795-0.46 0.505-0.034 1.676 0.473 2.324-0.671-0.45-0.978-1.316-0.932-2.123 0.023-0.401 0.218-1.223 0.579-1.496 0.481-0.342 0.142-0.873 0.276-0.852 0.12 0.23 0.103 0.691 0.058 0.794-0.036 0.083-0.067 0.166-0.093 0.247-0.301 0.945 0.082 1.755 0.501 2.464z"></path>
<path fill="#d7b56d" style="fill: var(--color7, #d7b56d)" d="M16.184 14.339c0.093-0.034 0.047-0.006 0.195-0.176 0.187-0.216 0.409-0.631 0.457-0.926 0.118 0.322-0.075 1.090-0.362 1.539 0.535-0.358 0.709-1.209 0.572-1.795 0.46 0.505 0.034 1.676-0.473 2.324 0.671-0.45 0.978-1.316 0.932-2.123-0.023-0.401-0.218-1.223-0.579-1.496-0.481-0.342-0.142-0.873-0.276-0.852-0.12 0.23-0.103 0.691-0.058 0.794 0.036 0.083 0.067 0.166 0.093 0.247 0.301 0.945-0.082 1.755-0.501 2.464z"></path>
<path fill="#d7b56d" style="fill: var(--color7, #d7b56d)" d="M17.034 10.925c0.107-0.043-0.079 0.006-0.079-0.204 0.845 0.226 0.703-0.388 0.339-0.393-0.308-0.004-0.417 0.464-0.553 0.67 0.142-0.454-0.207-0.372-0.368-0.611 0.076-0.285 0.45-0.631 0.402-1.615-0.012-0.237-0.386-1.282-0.483-1.428 0.212 0.083 0.668 0.922 0.759 1.152 0.304 0.767 0.109 1.025-0.091 1.613 0.415-0.22 1.031-0.113 1.042 0.409 0.015 0.652-0.533 0.68-0.968 0.408z"></path>
</symbol>
<symbol id="icon-right-arrow" viewBox="0 0 32 32">
<path d="M31.489 14.757l-11.556-11.557c-0.33-0.33-0.77-0.511-1.238-0.511s-0.909 0.181-1.239 0.511l-1.049 1.050c-0.33 0.329-0.511 0.769-0.511 1.238s0.182 0.924 0.511 1.253l6.742 6.757h-21.419c-0.966 0-1.729 0.756-1.729 1.722v1.484c0 0.966 0.763 1.798 1.729 1.798h21.495l-6.818 6.794c-0.33 0.33-0.511 0.758-0.511 1.227s0.182 0.903 0.511 1.232l1.049 1.046c0.33 0.33 0.769 0.51 1.239 0.51s0.908-0.182 1.238-0.512l11.556-11.556c0.331-0.331 0.513-0.773 0.511-1.242 0.001-0.471-0.181-0.913-0.511-1.244z"></path>
</symbol>
<symbol id="icon-right-arrow_2" viewBox="0 0 32 32">
<path d="M31.417 14.89l-9.99-7.951c-1.033-0.8-2.581-0.077-2.581 1.239v2.659c0 0.852-0.568 1.601-1.42 1.601h-15.876c-0.852 0-1.549 0.62-1.549 1.497v4.182c0 0.826 0.697 1.549 1.549 1.549h15.876c0.852 0 1.42 0.671 1.42 1.523v2.659c0 1.291 1.549 2.014 2.556 1.213l9.965-7.745c0.826-0.594 0.852-1.807 0.052-2.427z"></path>
</symbol>
<symbol id="icon-yoga_1" viewBox="0 0 32 32">
<path d="M3.5 22.852v-2.401c0.162 0.038 0.348 0.061 0.539 0.061h0c1.239 0 2.346-0.897 2.749-1.266h0.712v1.754c0 0.025 0.002 0.049 0.005 0.073l-0-0.003 0.495 3.465v0.349l-4.252 3.672-1.009 0.336c-0.433 0.148-0.739 0.551-0.739 1.026 0 0.597 0.484 1.081 1.081 1.081h2.419c0.103-0 0.199-0.031 0.279-0.085l-0.002 0.001 0.821-0.547c0.174 0.376 0.547 0.631 0.98 0.631 0.001 0 0.002 0 0.002 0h2.919c0.276 0 0.5-0.224 0.5-0.5v0-6.885c0.374-0.323 4.37-3.719 4.497-4.003 0.046-0.102 1.797-4.106 1.824-4.104 1.875 0.11 3.468 1.214 4.269 2.789l0.013 0.029c0.858 1.716 1.956 3.314 2.972 4.939 0.021 0.033 0.044 0.062 0.070 0.089l1.146 1.146-1.124 1.124-5.169-5.814v-1.81h-1v1.793l-0.207 0.207h-1.793v1h0.793l-2.089 2.089-2.927 1.464c-0.066 0.034-0.122 0.079-0.166 0.134l-0.001 0.001-0.82 1.025 0.781 0.625 0.752-0.939 2.902-1.451c0.050-0.025 0.093-0.057 0.13-0.094v0l3.125-3.125 7.214 8.116-0.075 0.038c-0.369 0.188-0.618 0.565-0.618 1 0 0.617 0.5 1.118 1.118 1.118h2.882c0.276 0 0.5-0.224 0.5-0.5v0c-0.003-1.47-0.491-2.826-1.312-3.917l0.012 0.017-1.8-2.4c-0.015-0.020-0.030-0.037-0.046-0.054v0l-1.46-1.46c-0.768-1.229-1.584-2.428-2.303-3.688-0.665-1.163-1.166-2.3-2.241-3.16-1.038-0.83-2.369-1.334-3.817-1.34h-4.825l-1.207-1.207v-11.293c-0.001-0.552-0.448-0.999-1-1h-1c-0.552 0.001-0.999 0.448-1 1v0.202c-0.069-0.022-0.148-0.035-0.23-0.035-0.425 0-0.77 0.345-0.77 0.77v0c0 0.125 0.030 0.244 0.083 0.349l-0.002-0.004 0.919 1.837v4.346l-0.495 3.465c-0.003 0.021-0.005 0.045-0.005 0.070 0 0 0 0 0 0.001v-0 3.164h-0.829v-0.748c0-0.276-0.224-0.5-0.5-0.5v0h-1.041l-0.27-0.27c-0.090-0.090-0.215-0.146-0.354-0.146 0 0 0 0-0 0h-0.004c-0.139 0.001-0.265 0.059-0.355 0.152l-0 0-0.635 0.655-0.236 0.036c-0.011 0.002-0.019 0.003-0.028 0.005l0.003-0c-0.563 0.116-1.034 0.445-1.335 0.896l-0.005 0.008c-0.381 0.579-0.476 1.341-0.378 2.016 0.048 0.335 0.148 0.637 0.294 0.912l-0.007-0.015c0.085 0.16 0.68 0.708 0.68 0.807v2.882c0 0.001 0 0.001 0 0.002 0 0.695-0.449 1.285-1.072 1.497l-0.011 0.003v-3.334c0-0.001 0-0.001 0-0.002 0-0.322 0.096-0.621 0.262-0.87l-0.004 0.006-0.836-0.548c-0.264 0.398-0.422 0.887-0.422 1.412 0 0.001 0 0.002 0 0.003v-0 3.216l-0.364 0.727c-0.033 0.065-0.053 0.142-0.053 0.224 0 0.276 0.224 0.5 0.5 0.5 0.057 0 0.111-0.009 0.162-0.027l-0.004 0.001 1.075-0.359c1.035-0.351 1.767-1.314 1.767-2.448 0-0.001 0-0.002 0-0.003v0zM27.9 27.2c0.586 0.778 0.975 1.736 1.075 2.778l0.002 0.022h-2.359c0 0 0 0 0 0-0.065 0-0.118-0.053-0.118-0.118 0-0.046 0.026-0.086 0.065-0.105l0.001-0 0.658-0.329c0.165-0.084 0.276-0.253 0.276-0.447 0-0.128-0.048-0.244-0.127-0.333l0 0-2.040-2.295 1.112-1.112zM8 26.206v0.794l-0.361-0.482zM5.349 30h-2.267c-0.045-0-0.080-0.037-0.080-0.081 0-0.035 0.023-0.066 0.054-0.077l1.103-0.368c0.065-0.022 0.121-0.055 0.169-0.096l-0.001 0.001 2.553-2.205 0.903 1.204zM10 30h-2.419c-0 0-0.001 0-0.001 0-0.044 0-0.080-0.036-0.080-0.080 0-0 0-0.001 0-0.001v0c0-0.036 0.023-0.066 0.055-0.077l0.001-0 1.102-0.367c0.2-0.068 0.342-0.255 0.342-0.474 0 0 0-0 0-0v0-4.5c0-0.025-0.002-0.049-0.005-0.073l0 0.003-0.495-3.465v-0.965l0.328 0.246c0.328 0.247 0.725 0.42 1.157 0.486l0.014 0.002zM14 15.5h2.231l-0.549 1.237-0.926 2.082-0.756-0.378zM14.106 19.612l-3.106 2.682v-1.609c0.083-0.020 0.147-0.039 0.211-0.060l-0.018 0.005c0.395-0.134 0.733-0.348 1.009-0.623l0.898-0.898zM11.429 15.136l0.218 0.218c0.090 0.090 0.215 0.146 0.354 0.146 0 0 0 0 0 0h1v2.5c-0 0-0 0-0.001 0-0.138 0-0.263 0.056-0.353 0.146v0l-1.153 1.153c-0.169 0.168-0.375 0.299-0.606 0.378l-0.011 0.003c-0.149 0.051-0.321 0.081-0.499 0.081-0.358 0-0.688-0.118-0.953-0.318l0.004 0.003-0.232-0.174c0.841-0.322 1.304-0.951 1.304-1.772 0-0.808-0.426-1.311-0.959-1.611 0.555-0.109 1.173-0.325 1.887-0.753zM8.763 3.425c0.143-0.090 0.237-0.247 0.237-0.425 0-0 0-0 0-0v0-1h1v11.5c0 0 0 0 0 0 0 0.138 0.056 0.263 0.146 0.354l0.55 0.55c-0.631 0.366-1.388 0.585-2.194 0.591h-0.002v-1.959l0.495-3.465c0.003-0.021 0.005-0.046 0.005-0.071v0-4.5c0-0.082-0.020-0.158-0.054-0.226l0.001 0.003-0.662-1.325c0.063 0.031 0.137 0.049 0.215 0.049 0.097 0 0.188-0.028 0.265-0.076l-0.002 0.001zM2.746 16.802c0.158-0.238 0.402-0.41 0.686-0.472l0.007-0.001c0.509-0.108 0.704-0.236 1.073-0.617l0.057 0.057c0.090 0.090 0.215 0.146 0.354 0.146 0 0 0 0 0 0h0.748v0.748c0 0.276 0.224 0.5 0.5 0.5v0h1.829c0.276 0 0.5-0.224 0.5-0.5v0-0.102c0.127 0.027 0.235 0.059 0.34 0.099l-0.016-0.005c0.606 0.227 0.676 0.591 0.676 0.844 0 0.25-0.068 0.609-0.656 0.837-0.124 0.049-0.271 0.090-0.422 0.117l-0.015 0.002c-0.091-0.128-0.24-0.211-0.407-0.211h-1.316l-1.309-0.527c-0.055-0.023-0.119-0.036-0.187-0.036-0.173 0-0.326 0.088-0.416 0.222l-0.001 0.002-0.272 0.411c-0.012 0.018-0.032 0.029-0.054 0.029-0.001 0-0.002-0-0.003-0h0c-0.034-0.002-0.061-0.030-0.061-0.065 0-0.006 0.001-0.012 0.002-0.018l-0 0 0.037-0.133c0.012-0.040 0.019-0.087 0.019-0.135 0-0.198-0.116-0.37-0.283-0.451l-0.003-0.001-1.442-0.683c0.011-0.020 0.022-0.041 0.035-0.060zM2.498 17.868l0.881 0.418c0.002 0.587 0.478 1.061 1.065 1.061 0.369 0 0.695-0.188 0.886-0.474l0.002-0.004 0.047-0.071 0.247 0.099c-0.118 0.084-0.254 0.171-0.395 0.25l-0.022 0.012c-0.728 0.401-1.36 0.456-1.876 0.166-0.668-0.376-0.828-0.981-0.833-1.457z"></path>
</symbol>
<symbol id="icon-yoga_2" viewBox="0 0 32 32">
<path d="M27 29.5v1c0 0.276 0.224 0.5 0.5 0.5v0h3c0.276 0 0.5-0.224 0.5-0.5v0c-0.001-1.139-0.486-2.165-1.261-2.882l-0.003-0.002-5.398-4.983q-0.013-0.012-0.027-0.023l-4.95-3.96c-0.207-0.166-0.372-0.495-0.53-0.707-1.245-1.66-2.911-2.945-4.162-4.599-0.63-0.832-1.063-1.779-1.622-2.656-0.63-0.982-1.302-1.837-2.046-2.623l0.008 0.008c-0.383-0.405-2.677-2.447-2.677-2.447l-4.998-4.498c-0.088-0.080-0.206-0.128-0.335-0.128-0.103 0-0.199 0.031-0.279 0.085l0.002-0.001-1.5 1c-0.135 0.091-0.223 0.243-0.223 0.416v0 1c0 0 0 0 0 0 0 0.181 0.096 0.34 0.241 0.428l0.002 0.001 2.447 1.468 2.96 2.96-0.124 0.018-0.243-0.135c-0.005-0.003-0.012-0.007-0.019-0.010l-0.003-0.001c-0.289-0.145-0.63-0.23-0.991-0.23-0.264 0-0.517 0.045-0.753 0.129l0.016-0.005c-0.296 0.104-0.551 0.256-0.768 0.45l0.002-0.002c-0.451 0.357-0.807 0.814-1.040 1.337l-0.009 0.022c-0.137 0.315-0.217 0.682-0.217 1.067 0 0.401 0.086 0.782 0.241 1.126l-0.007-0.017c0.176 0.407 0.436 0.748 0.76 1.014l0.005 0.004v2.291c0 0.001 0 0.001 0 0.002 0 0.695-0.449 1.285-1.072 1.497l-0.011 0.003v-3.334c0-0.001 0-0.001 0-0.002 0-0.304 0.086-0.587 0.234-0.828l-0.004 0.007-0.854-0.521c-0.236 0.382-0.376 0.846-0.376 1.342 0 0.001 0 0.001 0 0.002v-0 3.216l-0.364 0.727c-0.033 0.065-0.053 0.142-0.053 0.224 0 0.126 0.046 0.24 0.123 0.328l-0-0.001c0.356 0.41 1.208-0.078 1.611-0.212 1.035-0.351 1.767-1.314 1.767-2.448 0-0.001 0-0.002 0-0.003v0-1.731c0.755 0.28 1.549 0.334 2.048 0.334 0.12 0 0.222-0.003 0.303-0.007l0.252 0.185c-0.001 0.001-0.002 0.003-0.003 0.004l0-0-1.206 1.608c-0.234 0.309-0.374 0.701-0.374 1.125 0 0.027 0.001 0.053 0.002 0.080l-0-0.004 0.085 2.030c-0.921 0.192-1.604 0.996-1.605 1.961v7.581c-0 0.036-0.023 0.066-0.055 0.077l-0.001 0-0.706 0.235c-0.432 0.148-0.737 0.551-0.737 1.025 0 0.597 0.484 1.081 1.081 1.081h2.919c0 0 0 0 0 0 0.082 0 0.158-0.020 0.226-0.054l-0.003 0.001 0.678-0.339 0.245 0.245c0.090 0.090 0.215 0.146 0.354 0.146 0 0 0 0 0 0h0.5c0.276 0 0.5-0.224 0.5-0.5v0-10.5h3.5c0.276 0 0.5-0.224 0.5-0.5v0-0.628l4.309-1.293 1.291 1.721c0.026 0.034 0.055 0.064 0.087 0.090l0.001 0.001 4.986 3.989 2.019 1.864-0.947 1.262-4.989-2.934-2.5-1.5c-0.073-0.045-0.162-0.071-0.257-0.071h-7v1h6.861l2.385 1.431 7.943 4.672-0.043 0.043c-0.090 0.090-0.146 0.215-0.146 0.353v0zM4.354 4.646c-0.028-0.028-0.060-0.053-0.094-0.074l-0.002-0.001-2.257-1.354v-0.449l0.954-0.636 4.716 4.245 1.476 1.291c1.417 1.242 2.605 2.7 3.524 4.331l0.043 0.082c-0.609 0.002-1.529-0.142-2.305-0.883l-0.461-0.922c-0.025-0.050-0.057-0.093-0.094-0.13v0zM9.407 11.433l-0.173 0.21-0.595-0.457 0.364-0.475 0.086 0.085zM5.493 12.922c-0.955-0.181-1.573-0.588-1.837-1.208-0.352-0.825-0.029-1.502 0.302-1.923l0.533 1.039c-0.154 0.19-0.247 0.434-0.247 0.701 0 0.618 0.501 1.119 1.119 1.119 0.13 0 0.255-0.022 0.371-0.063l-0.008 0.002 0.125-0.043 0.272 0.456c-0.237-0.016-0.452-0.045-0.663-0.086l0.034 0.005zM5 21c0.001-0.425 0.267-0.788 0.641-0.933l0.007-0.002 0.205 4.935h-0.854zM4.75 30h-1.169c-0.045 0-0.081-0.036-0.081-0.081v0c0.001-0.035 0.023-0.065 0.055-0.077l0.001-0 0.705-0.235c0.433-0.147 0.739-0.55 0.739-1.025 0-0 0-0 0-0.001v0-2.581h0.895l0.098 2.343zM8.276 17.053c-0.165 0.084-0.276 0.253-0.276 0.447v0 12.293l-0.146-0.146c-0.090-0.091-0.216-0.146-0.354-0.146-0.082 0-0.158 0.020-0.226 0.054l0.003-0.001-0.894 0.447h-0.382l0.9-1.2c0.062-0.083 0.1-0.187 0.1-0.3 0-0.007-0-0.015-0-0.022l0 0.001-0.479-11.511c-0-0.011-0.001-0.023-0.001-0.036 0-0.197 0.066-0.38 0.176-0.526l-0.002 0.002 0.76-1.014 0.689 1.149c0.096 0.158 0.199 0.296 0.313 0.422l-0.002-0.002zM8.152 14.275c0.004-0.031 0.006-0.067 0.006-0.103 0-0.287-0.139-0.542-0.354-0.7l-0.002-0.002-0.425-0.313-0.876-1.473c-0.089-0.147-0.248-0.244-0.43-0.244-0.058 0-0.114 0.010-0.166 0.028l0.003-0.001-0.51 0.176c-0.011 0.004-0.025 0.006-0.038 0.006-0.029 0-0.056-0.011-0.077-0.028l0 0c-0.025-0.022-0.042-0.054-0.042-0.090 0-0.039 0.018-0.073 0.047-0.094l0-0 0.121-0.090c0.122-0.092 0.201-0.237 0.201-0.4 0-0.083-0.020-0.162-0.056-0.231l0.001 0.003-0.82-1.6c0.031-0.015 0.071-0.032 0.112-0.046l0.009-0.003c0.123-0.044 0.264-0.069 0.412-0.069 0.197 0 0.383 0.045 0.549 0.126l-0.007-0.003 0.379 0.21c0.070 0.039 0.153 0.062 0.242 0.062 0.026 0 0.051-0.002 0.076-0.006l-0.003 0 0.668-0.098 0.018 0.135c0.018 0.136 0.089 0.252 0.19 0.33l0.001 0.001 0.688 0.528-0.527 0.688c-0.064 0.083-0.103 0.189-0.103 0.304 0 0.161 0.076 0.304 0.194 0.396l0.001 0.001 1.088 0.835c0.146 0.114 0.331 0.182 0.533 0.182 0.22 0 0.421-0.082 0.574-0.216l-0.001 0.001c0.15 0.572 0.21 1.28-0.18 1.671-0.281 0.281-0.65 0.363-1.127 0.249-0.143-0.035-0.265-0.076-0.383-0.127l0.016 0.006zM12 19h-3v-1.191l0.359-0.179c0.335 0.158 0.727 0.25 1.141 0.25 0.311 0 0.61-0.052 0.888-0.148l-0.019 0.006 0.315-0.105 0.316 0.949zM11.707 16.571l-0.654 0.218c-0.165 0.057-0.355 0.090-0.553 0.090-0.633 0-1.188-0.337-1.495-0.841l-0.004-0.008-0.363-0.604c0.080 0.009 0.173 0.014 0.267 0.014h0c0.012 0 0.025 0 0.039 0 0.551 0 1.049-0.224 1.408-0.587l0-0c0.598-0.598 0.652-1.43 0.542-2.141 0.531 0.233 1.151 0.369 1.802 0.369 0.2 0 0.396-0.013 0.589-0.038l-0.023 0.002 0.613 0.92zM12.821 17.882l-0.258-0.775 1.971-2.365 2.021 2.021zM25.613 27.016l0.818-1.091 2.627 2.425c0.459 0.425 0.781 0.993 0.896 1.632l0.003 0.018h-1.957v-0.293l0.354-0.354c0.090-0.090 0.146-0.215 0.146-0.354 0-0.183-0.098-0.342-0.244-0.43l-0.002-0.001z"></path>
</symbol>
<symbol id="icon-yoga_3" viewBox="0 0 32 32">
<path d="M29.196 28.909l-1.149-0.288c0.158-1.392 0.6-5.283 0.663-5.837 0.106-0.93 0.287-1.848-0.343-2.643-0.381-0.478-0.951-0.792-1.595-0.828l-0.006-0-5.398-0.293-0.367-1.1v-2.594c0-0 0-0.001 0-0.001 0-0.282-0.047-0.554-0.133-0.807l0.005 0.018-0.372-1.115c0-0.554-0.028-1.094-0.28-1.598-0.446-0.876-1.342-1.466-2.375-1.466-0.228 0-0.45 0.029-0.661 0.083l0.018-0.004-0.264 0.066h-0.96l-2.040-3.739c-0.024-0.044-0.052-0.081-0.085-0.114v0l-3.5-3.5c-0.090-0.090-0.215-0.146-0.354-0.146 0 0 0 0-0 0v0c0 0 0 0 0-0 0-0.138-0.056-0.263-0.146-0.354l-0.646-0.646h0.612l5.796 4.83 1.842 3.071 0.858-0.514-1.886-3.144c-0.030-0.049-0.066-0.091-0.108-0.126l-0.001-0.001-6-5c-0.086-0.072-0.198-0.116-0.32-0.116 0 0-0 0-0 0h-2c0 0 0 0-0 0-0.276 0-0.5 0.224-0.5 0.5 0 0.138 0.056 0.263 0.146 0.354l0.678 0.678c-0.191 0.073-0.325 0.255-0.325 0.468 0 0 0 0 0 0v0 0.5c0 0.276 0.224 0.5 0.5 0.5v0h1.293l3.303 3.303 1.533 2.81-1.153-0.461-0.060-0.785c-0.020-0.258-0.233-0.459-0.493-0.462h-0l-0.958-0.010-0.239-0.244c-0.091-0.093-0.217-0.15-0.357-0.15s-0.265 0.057-0.355 0.148l-0.591 0.597-0.21 0.030c-0.011 0.002-0.020 0.003-0.028 0.005l0.003-0.001c-0.8 0.158-1.421 0.775-1.583 1.561l-0.002 0.013c-0.246 0.949-0.092 2.297 1.145 3.011 0.069 0.041 0.153 0.083 0.239 0.12l0.015 0.006v2.426c0 0.001 0 0.001 0 0.002 0 0.695-0.449 1.285-1.072 1.497l-0.011 0.003v-3.334c0-0 0-0.001 0-0.001 0-0.281 0.073-0.544 0.201-0.773l-0.004 0.008-0.875-0.485c-0.203 0.36-0.322 0.791-0.322 1.25 0 0 0 0 0 0.001v-0 3.216l-0.364 0.727c-0.033 0.065-0.053 0.142-0.053 0.224 0 0.276 0.224 0.5 0.5 0.5 0.057 0 0.111-0.009 0.162-0.027l-0.004 0.001 1.075-0.359c1.035-0.351 1.767-1.314 1.767-2.448 0-0.001 0-0.002 0-0.003v0-2.244c0.898-0.036 1.714-0.55 2.192-0.923l0.197 0.267c0.025 0.052-0.338 0.517-0.381 0.585-0.44 0.695-0.873 1.412-1.134 2.197l-0.711 2.135c-0.034 0.102-0.055 0.255-0.115 0.346l-3.963 5.944c-0.053 0.078-0.084 0.174-0.084 0.277 0 0.276 0.224 0.5 0.499 0.5h1.5c0.173 0 0.325-0.088 0.415-0.221l0.001-0.002 0.522-0.783 0.115 0.229c0.084 0.165 0.253 0.276 0.447 0.276 0.138 0 0.263-0.056 0.354-0.146l0.5-0.5c0.090-0.090 0.146-0.215 0.146-0.354 0 0 0 0 0-0v0-0.399l1.777-1.185c0.048-0.032 0.088-0.071 0.122-0.115l0.001-0.001c0.506-0.671 1.023-1.265 1.579-1.821l0-0c0.161-0.161 0.327-0.319 0.495-0.474l4.839-0.484 0.212 0.637c0.065 0.192 0.239 0.329 0.446 0.341l0.001 0 5.738 0.312c0.354 0.020 0.664 0.191 0.87 0.449l0.002 0.002c0.333 0.421 0.242 0.951 0.186 1.444-0.051 0.447-0.3 2.643-0.374 3.294h-1.394v-3c0 0 0 0 0 0 0-0.276-0.224-0.5-0.5-0.5-0.018 0-0.035 0.001-0.052 0.003l0.002-0-2.463 0.246 0.099 0.995 1.914-0.191v7.448c0 0.276 0.224 0.5 0.5 0.5v0h3.439c0 0 0 0 0 0 0.586 0 1.061-0.475 1.061-1.061 0-0.495-0.339-0.911-0.797-1.028l-0.007-0.002zM10.246 12.497c-0.582-0.336-0.735-0.859-0.747-1.286l0.751 0.366c0.007 0.561 0.464 1.013 1.026 1.013 0.068 0 0.135-0.007 0.199-0.019l-0.007 0.001c-0.401 0.128-0.833 0.151-1.224-0.075zM11.842 12.421c0.114-0.076 0.21-0.17 0.285-0.279l0.002-0.004 0.029-0.043 0.144 0.060c-0.13 0.089-0.281 0.177-0.437 0.256l-0.023 0.010zM12.164 11.015c-0.057-0.024-0.122-0.038-0.191-0.038-0.172 0-0.323 0.086-0.413 0.218l-0.001 0.002-0.258 0.381c-0.005 0.007-0.013 0.012-0.022 0.012-0.001 0-0.001-0-0.002-0h0c-0.009-0-0.016-0.005-0.020-0.011l-0-0c-0.003-0.004-0.005-0.009-0.005-0.015 0-0.003 0.001-0.006 0.001-0.008l-0 0 0.036-0.123c0.013-0.042 0.020-0.090 0.020-0.14 0-0.197-0.113-0.367-0.278-0.448l-0.003-0.001-1.306-0.636c0.005-0.008 0.009-0.016 0.014-0.023 0.145-0.213 0.366-0.366 0.623-0.419l0.006-0.001 0.364-0.051c0.113-0.016 0.211-0.068 0.286-0.143l0-0 0.352-0.356 0.029 0.030c0.090 0.091 0.214 0.149 0.352 0.15h0l0.706 0.007 0.049 0.638c0.015 0.194 0.139 0.355 0.31 0.425l0.003 0.001 2.5 1c0.055 0.023 0.119 0.036 0.186 0.036h0.187c0.252 0.014 0.512 0.082 0.561 0.159 0.007 0.010 0.017 0.107-0.093 0.319-0.145 0.167-0.959 0.393-1.925 0.492l-0.556-0.752-0.001 0.001c-0.053-0.072-0.124-0.129-0.207-0.164l-0.003-0.001zM10.576 22.235c-0.048 0.075-0.076 0.167-0.076 0.265 0 0 0 0 0 0v0 0.382l-0.053-0.106c-0.084-0.165-0.253-0.276-0.447-0.276-0.173 0-0.325 0.088-0.415 0.221l-0.001 0.002-0.852 1.277h-0.298l3.482-5.223c0.023-0.034 0.043-0.074 0.057-0.116l0.001-0.004 0.691-2.074c0.117-0.352 0.204-0.707 0.371-1.041 0.175-0.349 0.338-0.704 0.555-1.030 0.037-0.055 0.41-0.678 0.445-0.667 0.42 0.132 0.767 0.3 1.016 0.495 0.25 0.196 0.394 0.411 0.438 0.659-0.169 0.004-0.317 0.090-0.405 0.221l-0.001 0.002-2 3c-0.002 0.003-0.005 0.007-0.007 0.011l-0.001 0.001zM14.272 19.272c-0.569 0.569-1.1 1.175-1.588 1.816l-0.032 0.044-0.354 0.236 1.623-2.596 1.711-2.567 0.317 1.587c-0.614 0.48-1.161 0.964-1.677 1.48v0zM15.344 13.328c0.002-0.008 0.015-0.017 0.043-0.031 0.112-0.056 0.288-0.057 0.411-0.088 0.16-0.039 0.294-0.081 0.424-0.131l-0.023 0.008c0.298-0.107 0.55-0.283 0.744-0.509l0.002-0.002c0.189-0.243 0.302-0.553 0.302-0.889 0-0.080-0.006-0.158-0.019-0.235l0.001 0.008c0.178-0.065 0.383-0.102 0.598-0.102 0.187 0 0.368 0.028 0.537 0.081l-0.013-0.003c0.374 0.119 0.679 0.363 0.873 0.683l0.004 0.007c0.163 0.28 0.228 0.607 0.249 0.93 0.016 0.245 0.008 0.497 0.088 0.73l-3.088 1.030c0.044-0.015-0.216-0.566-0.244-0.614-0.119-0.202-0.259-0.376-0.421-0.526l-0.001-0.001c-0.079-0.074-0.166-0.143-0.257-0.206l-0.008-0.005c-0.034-0.023-0.079-0.051-0.124-0.078l-0.013-0.007c-0.041-0.025-0.068-0.035-0.066-0.048zM16.842 18.363c0.097-0.091 0.158-0.221 0.158-0.364 0-0.034-0.003-0.068-0.010-0.1l0.001 0.003-0.413-2.067 3.307-1.102 0.039 0.117c0.049 0.141 0.077 0.304 0.077 0.473 0 0 0 0.001 0 0.001v-0 2.676c0 0.016 0.002 0.031 0.004 0.047zM28.982 29.982c-0.011 0.011-0.026 0.018-0.042 0.018-0 0-0.001 0-0.001 0h-2.939v-3.5h1.281l-0.277 2.444c-0.002 0.017-0.003 0.037-0.003 0.056 0 0.233 0.16 0.429 0.375 0.484l0.003 0.001 1.574 0.394c0.027 0.007 0.047 0.031 0.047 0.060 0 0 0 0 0 0v0c0 0 0 0.001 0 0.001 0 0.017-0.007 0.031-0.018 0.042l-0 0z"></path>
<path d="M18.098 22.010c-0.029-0.006-0.063-0.010-0.098-0.010-0.076 0-0.148 0.017-0.212 0.047l0.003-0.001-9.847 4.545-1.019-1.36c-0.092-0.123-0.238-0.202-0.402-0.202-0.093 0-0.18 0.025-0.254 0.069l0.002-0.001-2.522 1.471c-0.039 0.023-0.072 0.049-0.102 0.078l-1.5 1.5c-0.090 0.090-0.146 0.215-0.146 0.353 0 0.043 0.005 0.085 0.016 0.125l-0.001-0.003 0.5 2c0.056 0.219 0.252 0.378 0.485 0.379h2.5c0.276 0 0.5-0.224 0.5-0.5 0-0.043-0.005-0.085-0.016-0.125l0.001 0.003-0.4-1.598 12.477-5.759c0.986 0.197 2.12 0.309 3.281 0.309 0.32 0 0.638-0.009 0.953-0.025l-0.044 0.002-0.052-0.999c-0.256 0.014-0.556 0.022-0.858 0.022-1.148 0-2.269-0.117-3.351-0.339l0.107 0.018zM4.79 28.046c-0.173 0.081-0.29 0.254-0.29 0.454 0 0.043 0.005 0.085 0.016 0.125l-0.001-0.003 0.345 1.379h-1.469l-0.337-1.347 1.254-1.254 2.081-1.214 0.626 0.834z"></path>
</symbol>
<symbol id="icon-yoga_4" viewBox="0 0 32 32">
<path d="M31.5 30.689h-4.52c-0.189-0.753-0.769-1.334-1.506-1.523l-0.014-0.003-1.087-0.272 1.374-6.664c0.264-1.28-0.463-2.584-1.721-3.019-3.074-1.067-2.023-0.595-4.851-1.24 0.984-0.598 2.34-1.454 2.763-1.877 0.495-0.496 2.003-2.006 2.003-3.45 0-0.407-0.123-0.856-0.366-1.337l7.894-7.894c0.343-0.343 0.532-0.799 0.532-1.284 0-1.607-1.958-2.424-3.099-1.284-0.090 0.090-0.146 0.215-0.146 0.353s0.056 0.263 0.146 0.353v0c0.090 0.090 0.215 0.146 0.354 0.146s0.263-0.056 0.354-0.146v0c0.512-0.512 1.392-0.145 1.392 0.576 0 0.001 0 0.001 0 0.002 0 0.224-0.091 0.428-0.239 0.574l-9.2 9.2c-0.316 0.316-0.088 0.854 0.354 0.854 0.271 0 0.35-0.143 0.901-0.694 0.081 0.214 0.124 0.41 0.124 0.58 0 0.684-0.576 1.607-1.713 2.746-0.405 0.405-2.244 1.544-3.473 2.266l-1.691-0.211c-0.274-0.035-0.524 0.16-0.558 0.434-0.002 0.019-0.004 0.040-0.004 0.062 0 0.254 0.19 0.464 0.435 0.496l0.002 0 1.831 0.229c4.252 1.043 2.579 0.34 5.936 1.494 0.769 0.268 1.225 1.071 1.061 1.869l-0.636 3.084h-1.636l0.264-2.314c0.032-0.278-0.172-0.529-0.452-0.555-5.967-0.541-5.408 0.116-7.455-0.597-0.134-0.045-0.338-0.125-0.481-0.198-1.222-0.633-1.485-2.465-1.099-3.495 0.473-0.335 0.945-0.723 1.402-1.153 0.097-0.091 0.157-0.221 0.157-0.364 0-0.276-0.224-0.5-0.5-0.5-0.133 0-0.253 0.052-0.343 0.136l0-0c-0.516 0.485-1.16 0.984-1.201 0.994-0.126 0.029-0.161 0.071-0.658 0.397-1.243 0.817-1.002 0.658-7.449 6.077l-3.905 2.605c-0.684 0.456-0.954 1.31-0.657 2.076 0.809 2.089 0.808 2.151 1.034 2.471h-0.651c-0.276 0-0.5 0.224-0.5 0.5s0.224 0.5 0.5 0.5v0h30.998c0.276 0 0.5-0.224 0.5-0.5s-0.224-0.5-0.5-0.5v0zM12.111 18.677c-0.080 1.264 0.399 2.681 1.444 3.436-1.859 0.865-4.354 1.858-7.414 3.436l-0.565-1.458c4.953-4.164 5.781-4.886 6.535-5.414zM1.331 26.974l3.409-2.274 0.523 1.349-2.321 1.478c-0.14 0.090-0.231 0.245-0.231 0.422 0 0.030 0.003 0.060 0.008 0.089l-0-0.003 0.461 2.651c-0.58 0.042-1.146-0.295-1.367-0.865l-0.761-1.963c-0.126-0.326-0.011-0.689 0.279-0.883zM3.76 28.191c2.273-1.448 2.613-1.813 8.282-4.306 1.022-0.449 1.914-0.842 2.689-1.229 2.053 0.652 1.906 0.102 6.975 0.535-0.728 6.377-0.546 5.136-0.846 6.335-0.099 0.396-0.057 0.803 0.113 1.162h-16.778zM22.549 30.689c-0.481 0-0.835-0.452-0.718-0.919 0.32-1.282 0.181-0.431 0.55-3.66h1.544l-0.629 3.050c-0.007 0.030-0.010 0.065-0.010 0.101 0 0.233 0.159 0.429 0.375 0.484l0.003 0.001 1.552 0.388c0.308 0.078 0.559 0.281 0.7 0.55l0.003 0.006z"></path>
<path d="M17.373 5.36c0.071 0.982 0.474 1.893 1.144 2.616-0.448 1.836-1.14 3.527-2.059 5.029-0.046 0.074-0.074 0.164-0.074 0.261 0 0.18 0.095 0.337 0.237 0.425l0.002 0.001c0.237 0.145 0.544 0.069 0.687-0.165 0.893-1.459 1.583-3.083 2.056-4.836 0.227 0.15 0.487 0.286 0.761 0.397l0.030 0.011 0.279 0.209-0.734 0.734c-0.316 0.316-0.088 0.854 0.354 0.854 0 0 0 0 0.001 0 0.138 0 0.263-0.056 0.353-0.146v0l6.41-6.41c0.942-0.942 1.462-2.196 1.462-3.529 0-0.276-0.224-0.5-0.5-0.5s-0.5 0.224-0.5 0.5v0c0 1.066-0.415 2.068-1.169 2.822l-2.171 2.171c0-1.161 0.085-1.824-0.422-2.717-0.86-1.515-2.806-2.073-4.377-1.282-0.752-1.286-2.711-1.11-3.208 0.297l-0.335 0.953c-0.412 1.167 0.511 2.377 1.774 2.306zM22.489 3.339c-0.47 0.655-1.229 1.040-2.042 1.051-0.73 0.010-0.681 1.001-0.036 1.001 0.938 0 1.844-0.366 2.51-1.022 0.027 0.195 0.020 0.071 0.020 2.434l-1.584 1.584c-0.652-0.089-1.242-0.352-1.718-0.731l0.421-1.044c0.113-0.28-0.046-0.604-0.353-0.674-0.235-0.054-0.481 0.069-0.574 0.3l-0.241 0.597c-0.344-0.53-0.531-1.143-0.531-1.79 0-0.064-0.007-0.046 0.035-0.081 0.266-0.216 0.449-0.493 0.548-0.772 0.335-0.951 0.402-1.094 0.427-1.369 1.002-0.653 2.379-0.447 3.118 0.515zM16.542 3.386l0.335-0.953c0.109-0.309 0.408-0.502 0.729-0.502 0.525 0 0.9 0.495 0.729 0.977-0.326 0.925-0.347 1.165-0.667 1.348-0.639 0.361-1.35-0.237-1.127-0.87zM15.378 15.352c0.215 0.173 0.531 0.137 0.705-0.079 0.025-0.032 0.051-0.063 0.076-0.096 0.067-0.084 0.107-0.192 0.107-0.31 0-0.159-0.074-0.3-0.189-0.392l-0.001-0.001c-0.084-0.067-0.192-0.107-0.31-0.107-0.159 0-0.3 0.074-0.392 0.189l-0.001 0.001c-0.024 0.030-0.047 0.059-0.074 0.093-0.173 0.215-0.137 0.528 0.078 0.701z"></path>
</symbol>
<symbol id="icon-yoga_5" viewBox="0 0 32 32">
<path d="M31.5 31h-4.036c-0.183-0.638-0.684-1.126-1.316-1.288l-0.013-0.003-0.85-0.213 1.15-5.576c0.238-1.155-0.446-2.289-1.508-2.646-2.858-0.992-1.521-0.418-4.913-1.241-0.357-0.799 0.001-1.851 0.321-2.786 0.454-1.33 1.066-2.725-2.274-5.205 0.898-0.124 1.592-0.881 1.592-1.795v-2.299c0-1.446-1.136-2.67-2.627-2.789v-3.582c0-0.866-0.695-1.578-1.551-1.578-1.528 0-2.023 2.051-1.051 2.051 0.276 0 0.5-0.224 0.5-0.5v0c0-0.314 0.258-0.556 0.555-0.551 0.301 0.002 0.546 0.262 0.546 0.578v10.482c0 0.442 0.532 0.664 0.848 0.359 1.176 0.832 2.83 2.047 2.83 3.319 0 0.918-1.532 3.232-0.452 4.989 0.059 0.094 0.145 0.166 0.247 0.206l0.003 0.001c0.085 0.032 1.52 0.386 2.728 0.594 0.624 0.107 0.814 0.153 2.376 0.694 0.616 0.214 0.981 0.858 0.85 1.497l-0.526 2.553h-1.239l0.214-1.876c0.032-0.279-0.172-0.529-0.452-0.555-2.659-0.241-3.42-0.196-4.839-0.196-0.51 0-1.47-0.268-1.859-0.47-0.934-0.483-1.182-1.825-0.952-2.689 1.779 0.222 1.652 0.208 1.697 0.208 0.276-0 0.499-0.224 0.499-0.5 0-0.254-0.19-0.464-0.435-0.496l-0.003-0-1.627-0.203c-0.033-0.357-0.087-0.923-0.149-1.584-0.025-0.255-0.238-0.453-0.498-0.453-0.276 0-0.5 0.224-0.5 0.5 0 0.017 0.001 0.033 0.002 0.049l-0-0.002c0.069 0.727 0.126 1.341 0.158 1.685-1.262 0.832-0.75 0.443-6.484 5.263l-3.308 2.207c-0.609 0.407-0.85 1.167-0.585 1.85 0.716 1.849 0.678 1.779 0.805 1.99h-4.876c-0.276 0-0.5 0.224-0.5 0.5s0.224 0.5 0.5 0.5h31c0.276 0 0.5-0.224 0.5-0.5s-0.224-0.5-0.5-0.5v0zM18.652 10.248c0 0.448-0.382 0.813-0.851 0.813-0.265 0-0.525-0.035-0.776-0.103 0-2.604-0.017-2.34 0.040-2.349 0.606-0.094 1.154-0.359 1.585-0.743 0.003 0.060 0.002-0.101 0.002 2.382zM18.25 6.833c-0.287 0.376-0.712 0.657-1.216 0.765-0.014 0.003-0.009 0.111-0.009-1.433 0.495 0.060 0.929 0.306 1.225 0.668zM22.853 24.792c-0.598 5.244-0.444 4.232-0.706 5.281-0.078 0.313-0.057 0.635 0.054 0.927h-14.041l-0.349-2.004 1.96-1.248c3.096-1.629 5.524-2.534 7.261-3.397 1.739 0.545 1.597 0.084 5.821 0.44zM14.724 21.047c-0.021 1.012 0.364 2.106 1.158 2.745-1.549 0.715-3.6 1.538-6.096 2.821l-0.428-1.106c3.927-3.302 4.757-4.018 5.366-4.461zM6.148 30.312l-0.645-1.664c-0.024-0.059-0.038-0.128-0.038-0.2 0-0.19 0.097-0.358 0.244-0.456l0.002-0.001 2.81-1.875 0.386 0.996-1.914 1.219c-0.14 0.090-0.231 0.245-0.231 0.422 0 0.030 0.003 0.060 0.008 0.089l-0-0.003 0.376 2.161c-0.412 0-0.828-0.252-0.997-0.688zM23.651 31c-0.358 0-0.621-0.336-0.534-0.684 0.272-1.088 0.156-0.383 0.46-3.044h1.147l-0.514 2.493c-0.007 0.030-0.010 0.065-0.010 0.101 0 0.233 0.159 0.429 0.375 0.484l0.003 0.001c1.31 0.328 1.553 0.321 1.793 0.65z"></path>
<path d="M13.924 8.623v3.436c0 0 0 0.001 0 0.001 0 0.397 0.15 0.759 0.395 1.032l-0.001-0.001c0.025 0.248 0.058 0.577 0.095 0.961 0.026 0.254 0.239 0.451 0.498 0.451 0.276 0 0.5-0.224 0.5-0.5 0-0.017-0.001-0.034-0.003-0.051l0 0.002c-0.117-1.194-0.094-1.283-0.258-1.446-0.054-0.054-0.227-0.178-0.227-0.449v-6.825c0-1.893 0.124-2.191-1.197-3.512-0.090-0.090-0.215-0.146-0.354-0.146s-0.263 0.056-0.354 0.146v0c-0.091 0.090-0.146 0.215-0.146 0.354s0.056 0.263 0.146 0.354v0c0.968 0.968 0.904 1.030 0.904 2.311-0.543 0.099-1.015 0.476-1.205 1.015-0.271 0.768-0.556 1.289-0.216 1.986 0.275 0.564 0.843 0.88 1.421 0.881zM13.378 6.895c0.29-0.822 0.293-0.973 0.546-1.11v1.837c-0.395-0.001-0.672-0.37-0.546-0.727zM15.018 15.502c-0.266 0.045-0.463 0.3-0.405 0.598 0.046 0.232 0.248 0.405 0.491 0.405 0.034 0 0.067-0.003 0.098-0.010l-0.003 0.001c0.258-0.050 0.446-0.296 0.396-0.585-0.046-0.272-0.305-0.456-0.577-0.409z"></path>
</symbol>
<symbol id="icon-yoga_6" viewBox="0 0 32 32">
<path d="M30.282 31.076h0.002c0.27 0 0.515-0.159 0.627-0.405 0.038-0.083 0.061-0.18 0.061-0.283 0-0.175-0.066-0.336-0.174-0.457l0.001 0.001-1.844-2.077c-0.485-0.57-1.297-0.747-1.975-0.428-0.246 0.117-0.451 0.284-0.61 0.489l-0.003 0.004-0.147 0.191-0.92 0.164-3.075-0.866c-0.521-0.152-1.12-0.24-1.739-0.24-0.575 0-1.133 0.076-1.664 0.218l0.045-0.010-0.251 0.066-2.844-2.991c-0.113-0.987-0.558-1.853-1.219-2.5l-0.001-0.001-0.442-0.433c-0.301-1.558 0.125-3.196 1.153-4.41l0.284-0.335c0.446-0.487 0.727-1.112 0.794-1.774l0.474 0.071-0.041 0.157c-0.070 0.26-0.11 0.559-0.11 0.867 0 0.233 0.023 0.46 0.067 0.68l-0.004-0.022c0.232 1.188 1.084 2.177 2.225 2.582l0.255 0.091c0.050 0.018 0.107 0.029 0.167 0.029 0.132 0 0.252-0.051 0.342-0.135l-0 0c0.098-0.091 0.159-0.221 0.159-0.365 0-0.048-0.007-0.094-0.019-0.138l0.001 0.004-0.292-1.043c-0.048-0.166-0.076-0.356-0.076-0.552 0-0.431 0.133-0.83 0.361-1.16l-0.004 0.007c0.45-0.659 0.487-1.501 0.098-2.197l-0.11-0.197c0.090-0.229 0.142-0.495 0.142-0.773v-0c0-0.823-0.478-1.589-1.217-1.952l-0.318-0.156-0.548-0.324-0.652-0.682 0.515-0.649c0.269-0.337 0.472-0.739 0.584-1.177l0.005-0.022 1.022-3.181 0.996-0.721c0.093-0.068 0.16-0.164 0.19-0.277l0.001-0.003 0.477-1.849c0.010-0.038 0.016-0.081 0.016-0.125 0-0.24-0.169-0.441-0.395-0.489l-0.003-0.001-2.113-0.44c-0.031-0.007-0.066-0.011-0.102-0.011-0.198 0-0.37 0.116-0.45 0.283l-0.001 0.003-1.025 2.168-2.698 4.786c-0.196 0.341-0.345 0.737-0.425 1.157l-0.004 0.024-0.613 3.296-2.218 0.655c-1.021 0.302-1.695 1.29-1.603 2.351l0.071 0.813-0.064 0.313c-0.301 1.47-0.306 3.009-0.018 4.484l-3.608-1.188c-0.216-0.073-0.466-0.116-0.725-0.116-0.303 0-0.591 0.058-0.857 0.163l0.016-0.006-0.027 0.011c-1.108 0.431-1.73 1.586-1.48 2.746 0.376 1.741 0.951 4.42 1.158 5.387l-1.163 0.639c-0.349 0.193-0.581 0.559-0.581 0.979 0 0.134 0.023 0.262 0.067 0.381l-0.002-0.008 0.004 0.012c0.16 0.455 0.589 0.759 1.069 0.759h0.004c0.488-0.002 1.281-0.002 1.887-0.002 0.699-0 1.346-0.349 1.731-0.934l0.009-0.014c0.27-0.411 0.39-0.905 0.337-1.391-0.095-0.868-0.275-2.527-0.393-3.612 0.735 0.465 1.616 0.954 2.526 1.395l0.166 0.072 0.489 0.233 6.245 3.739c0.576 0.35 1.271 0.561 2.015 0.568l0.002 0 12.010 0.081zM26.586 29.061c0.126-0.023 0.234-0.091 0.308-0.186l0.001-0.001 0.265-0.345c0.065-0.083 0.146-0.15 0.241-0.195l0.004-0.002c0.083-0.040 0.18-0.063 0.282-0.063 0.203 0 0.385 0.091 0.508 0.235l0.001 0.001 0.008 0.009 1.384 1.559-3.875-0.012 0.042-0.852 0.832-0.149zM10.32 17.219l2.882 1.786c-0.185 0.744-0.235 1.521-0.14 2.289l-2.606 0.12c-0.328-1.366-0.373-2.809-0.135-4.195zM19.018 15.507c-0.332 0.48-0.531 1.075-0.531 1.716 0 0.278 0.037 0.548 0.107 0.803l-0.005-0.021c-0.45-0.357-0.769-0.868-0.882-1.445-0.029-0.14-0.045-0.302-0.045-0.467 0-0.218 0.029-0.43 0.082-0.632l-0.004 0.017 0.080-0.307c0.498-0.031 0.945-0.226 1.294-0.53l-0.003 0.002 0.054-0.047c0.088 0.306 0.038 0.638-0.148 0.91zM17.99 12.945l0.454-1.022c0.326 0.215 0.53 0.586 0.53 0.981 0 0 0 0 0 0 0 0.353-0.156 0.67-0.403 0.885l-0.114 0.099c-0.205 0.179-0.474 0.288-0.769 0.288-0.062 0-0.122-0.005-0.182-0.014l0.007 0.001-1.090-0.164 0.043-0.533 1.166-0.234c0.161-0.033 0.292-0.141 0.357-0.284l0.001-0.003zM17.564 11.441l-0.383 0.862-0.632 0.127 0.142-1.765 0.525 0.549c0.031 0.032 0.066 0.061 0.105 0.084l0.002 0.001 0.241 0.142zM14.811 9.451c0.062-0.328 0.172-0.621 0.324-0.886l-0.007 0.014 2.707-4.801c0.006-0.010 0.011-0.021 0.016-0.032l0.865-1.828 1.214 0.252-0.301 1.167-0.983 0.712c-0.085 0.062-0.149 0.148-0.182 0.248l-0.001 0.004s-1.085 3.378-1.088 3.391c-0.078 0.318-0.218 0.596-0.407 0.833l0.003-0.004-1.141 1.437c-0.059 0.074-0.098 0.167-0.107 0.269l-0 0.002-0.374 4.63c-0.036 0.446-0.218 0.87-0.51 1.204-0.009 0.009-0.179 0.185-0.254 0.246-0.348 0.282-0.842 0.321-1.229 0.097-0.328-0.192-0.545-0.543-0.545-0.944v-0l0-0.239c0.001-0.253 0.087-0.486 0.231-0.671l-0.002 0.002s1.008-1.296 1.010-1.299c0.008-0.010 0.759-3.803 0.759-3.803zM11.281 14.178l1.076-0.424c-0.284 0.365-0.544 1.005-0.544 1.467l-0 0.239c-0.001 0.745 0.4 1.439 1.045 1.811 0.261 0.153 0.57 0.251 0.901 0.272l0.006 0c-0.068 0.123-0.147 0.283-0.218 0.447l-0.016 0.041-3.084-1.912-0.055-0.636c-0.051-0.589 0.323-1.138 0.89-1.306zM6.040 29.456c-0.194 0.293-0.522 0.483-0.894 0.483-0 0-0.001 0-0.001 0h0c-0.607 0-1.401 0.001-1.89 0.002h-0.001c-0.057 0-0.107-0.036-0.126-0.091l-0.004-0.012c-0.004-0.012-0.007-0.026-0.007-0.040 0-0.045 0.025-0.084 0.061-0.104l0.001-0 1.386-0.762 1.668-0.067c-0.008 0.215-0.075 0.414-0.186 0.58l0.003-0.004-0.009 0.014zM16.769 29.569s-6.293-3.767-6.308-3.774l-0.511-0.243c-1.276-0.611-2.35-1.227-3.373-1.912l0.097 0.061-0.179-0.118c-0.078-0.052-0.173-0.083-0.276-0.083-0.096 0-0.186 0.027-0.262 0.074l0.002-0.001c-0.145 0.089-0.24 0.247-0.24 0.427 0 0.019 0.001 0.038 0.003 0.056l-0-0.002s0.246 2.266 0.415 3.815l-1.309 0.053c-0.216-1.005-0.778-3.627-1.148-5.341-0.146-0.677 0.218-1.352 0.865-1.603l0.027-0.011c0.142-0.057 0.306-0.090 0.479-0.090 0.147 0 0.289 0.024 0.422 0.069l-0.009-0.003s4.521 1.482 4.529 1.484c0.006 0.001 3.464-0.149 3.464-0.149l0.395 0.387c0.535 0.524 0.883 1.236 0.938 2.028l0.001 0.010c0.008 0.121 0.059 0.23 0.137 0.311l-0-0 3.168 3.331c0.091 0.096 0.22 0.155 0.362 0.155 0.045 0 0.088-0.006 0.13-0.017l-0.003 0.001 0.537-0.14c0.41-0.111 0.881-0.175 1.366-0.175 0.523 0 1.028 0.074 1.506 0.212l-0.038-0.009 2.802 0.789-0.044 0.895-6.43-0.061c-0.559-0.006-1.081-0.163-1.526-0.433l0.013 0.008z"></path>
</symbol>
<symbol id="icon-yoga_7" viewBox="0 0 32 32">
<path d="M31.531 31.063h-18.205c-0.153-0.48-0.521-0.852-0.988-1.008l-0.011-0.003-1.573-0.515 0.081-0.233c0.001-0.002 0.001-0.004 0.002-0.006 0.005-0.014 0.008-0.027 0.012-0.042 0.001-0.003 0.002-0.006 0.002-0.008l0.001-0.003 2.31-11.121c2.030-0.744 3.787-1.494 5.121-3.304 0.36-0.488-0.395-1.044-0.755-0.556-0.252 0.341-0.533 0.661-0.837 0.957l-2.272-2.322c0.399-0.461 0.725-0.989 0.94-1.56 1.176 0.132 2.013-1.225 1.347-2.217 0.568 0.13 1.181 0.086 1.723-0.128 0.518 1.015 0.414 2.366 0.070 3.413-0.184 0.56 0.701 0.872 0.891 0.292 0.195-0.593 0.302-1.2 0.321-1.796l9.723-7.389c0.211-0.194 0.241-0.413 0.089-0.657-0.798-1.048-2.3-1.25-3.349-0.452l-5.981 4.544c0.048-0.198 0.075-0.425 0.075-0.658 0-0.004 0-0.007-0-0.011v0.001l-0.006-1.483c0.334-0.352 0.452-0.86 0.403-1.333-0.167-1.625-1.721-2.48-3.169-2.486-0.004-0-0.009-0-0.013-0-0.12 0-0.238 0.007-0.354 0.021l0.014-0.001c-0.39-0.602-1.058-0.996-1.819-0.996-0.001 0-0.002 0-0.002 0h0c-0.565 0-1.136 0.237-1.535 0.638-1.050 1.056-0.7 2.901 0.661 3.498l0.004 2.163c0.001 0.387 0.081 0.776 0.233 1.132l-6.72-5.327c-0.405-0.329-0.927-0.528-1.496-0.528-0.101 0-0.201 0.006-0.298 0.018l0.012-0.001-0.429-0.572c-0.533-0.712-1.678-0.309-1.678 0.558v5.358c0 0.606 0.938 0.606 0.938 0v-2.063h0.652l1.051 5.775c0.019 0.103 0.070 0.192 0.142 0.259l0 0 3.593 3.339c-0.778 0.272-1.49 0.757-1.865 1.514l-3.063-3.467c-0.316-0.356-0.509-0.828-0.509-1.344 0-0 0-0 0-0.001v0-1.761c0-0.606-0.938-0.606-0.938 0v1.761c0 0 0 0.001 0 0.001 0 0.755 0.282 1.444 0.747 1.968l-0.003-0.003 3.457 3.913c-0.042 0.318-0.050 0.639-0.043 0.951v12.77c-0 0.009-0 0.020-0 0.031 0 0.173 0.031 0.34 0.087 0.493l-0.003-0.010h-7.847c-0.259 0-0.469 0.21-0.469 0.469s0.21 0.469 0.469 0.469v0h31.063c0.002 0 0.003 0 0.005 0 0.259 0 0.469-0.21 0.469-0.469s-0.21-0.469-0.469-0.469c-0.002 0-0.004 0-0.006 0h0zM12.036 30.942c0.082 0.027 0.152 0.068 0.212 0.12l-0.001-0.001-2.616-0.005c-0.125-0-0.24-0.049-0.326-0.137-0.091-0.093-0.138-0.219-0.135-0.354l0-0.012v-0.938l0.563 0.001c-0.074 0.25-0.018 0.565 0.275 0.661zM14.13 16.786l-1.49-2.473c0.34-0.186 0.728-0.434 1.111-0.757l2.226 2.276c-0.538 0.396-1.157 0.716-1.847 0.955zM17.364 8.257c-0.895 0-1.706-0.626-1.919-1.497 1.036-0.78 2.042-1.441 3.401-1.441 0.177 0 0.336-0.016 0.479-0.043l0.004 1.005c0.004 1.071-0.9 1.972-1.965 1.976zM26.741 3.149c0.507-0.386 1.188-0.387 1.689-0.052l-8.791 6.682c-0.005-0.028-0.009-0.056-0.014-0.085-0.063-0.348-0.154-0.659-0.271-0.933zM17.483 1.913h0.008c1.030 0.004 2.13 0.57 2.24 1.644 0.062 0.605-0.399 0.824-0.927 0.824-1.264 0-2.42 0.476-3.409 1.241-0.005-0.602-0.018-1.205-0.003-1.807 0.098-1.066 0.999-1.902 2.090-1.902zM14.095 2.164c0-0.002-0-0.005-0-0.008 0-0.335 0.136-0.638 0.355-0.857v0c0.46-0.463 1.243-0.475 1.716-0.023-0.758 0.366-1.342 1.038-1.59 1.856-0.293-0.224-0.481-0.574-0.481-0.968v-0zM15.832 9.537c0.494 0.403-0.129 1.162-0.625 0.759l-8.418-6.689c0.010-0.356 0.011-0.73-0.088-1.074 0.261 0.044 0.491 0.151 0.681 0.306l-0.003-0.002zM5.013 3.937l0-2.34 0.578 0.772c0.162 0.215 0.26 0.487 0.26 0.782v0.488c-0 0.165-0.134 0.298-0.298 0.298v0zM7.61 10.328l-1.036-5.694 7.933 6.303c-0.502 1.409-1.749 2.387-3.105 2.915zM10.288 15.329l1.495-0.621 1.442 2.394-0.631 0.231c-0.151 0.056-0.264 0.184-0.297 0.342l-0.001 0.003-2.285 11.002-0.841-0.001v-10.905l-0-0.009c-0.023-1.119 0.157-1.918 1.118-2.434z"></path>
</symbol>
<symbol id="icon-yoga_8" viewBox="0 0 32 32">
<path d="M31.531 29.277h-1.554c-0.145-0.713-0.704-1.297-1.435-1.452l-1.309-0.278-1.69-1.336-1.225-1.119c-0.448-0.409-1.080 0.283-0.632 0.692l0.905 0.827-0.482 0.575-9.873-5.321c-0.064-0.035-0.141-0.056-0.223-0.056-0.022 0-0.043 0.001-0.064 0.004l0.002-0-4.947 0.658c-0.793 0.105-1.417 0.733-1.519 1.526l-0.352 2.747h-0.737l-0.010-3.792c-0.002-0.75 0.432-1.446 1.107-1.773 0.305-0.148 3.817-1.831 3.817-1.831h5.329l5.209 4.758c0.447 0.409 1.080-0.283 0.632-0.692l-5.191-4.742v-4.691h8.738c1.246 0 2.259-1.013 2.259-2.258 0-0.259-0.21-0.469-0.469-0.469v0h-11.245c-0.2-0.249-0.43-0.463-0.686-0.642l-0.011-0.007c0.587-0.534 0.958-1.301 0.963-2.154v-2.328c-0-0.109 0.004-0.218-0.008-0.325 1.167-0.72 1.373-2.405 0.404-3.383-1.065-1.075-2.941-0.726-3.545 0.661-1.433 0.040-2.939 0.9-3.107 2.504-0.050 0.478 0.067 0.99 0.405 1.345l-0.010 1.499c-0.005 0.87 0.386 1.708 1.052 2.266-0.218 0.166-0.408 0.351-0.573 0.557l-0.005 0.006h-4.91c-0.606 0-0.606 0.938 0 0.938h4.386c-0.093 0.25-0.157 0.54-0.181 0.841l-0.001 0.011h-8.185c-0.564 0-1.046-0.355-1.236-0.852h2.674c0.606 0 0.606-0.938 0-0.938h-3.228c-0.259 0-0.469 0.21-0.469 0.469v0c0 1.245 1.014 2.258 2.26 2.258h8.175v4.601s-3.352 1.608-3.653 1.753c-0.996 0.483-1.638 1.511-1.635 2.619l0.012 4.617-1.75 0.57c-0.522 0.173-0.916 0.596-1.045 1.124l-0.002 0.011h-2.196c-0.259 0-0.469 0.21-0.469 0.469s0.21 0.469 0.469 0.469h31.063c0.259 0 0.469-0.21 0.469-0.469s-0.21-0.469-0.469-0.469v0zM11.675 18.411v-1.441h4.678v1.441zM27.265 12.192c-0.19 0.498-0.672 0.852-1.236 0.852h-8.748c-0.025-0.313-0.090-0.602-0.19-0.875l0.007 0.023zM15.692 2.71c0.344 0 0.655 0.14 0.879 0.366l0 0c0.471 0.475 0.466 1.28-0.010 1.752-0.149-0.316-0.362-0.617-0.61-0.864-0.358-0.356-0.788-0.612-1.257-0.755 0.229-0.307 0.593-0.499 0.998-0.499zM11.518 5.679c0.114-1.089 1.228-1.663 2.27-1.667 1.162 0 2.107 0.952 2.109 2.107v1.655c-1.002-0.772-2.161-1.259-3.442-1.259-0.537 0-1.003-0.21-0.937-0.837zM11.924 7.41c0.286 0.055 0.344 0.044 0.531 0.044 1.353 0 2.363 0.681 3.39 1.457-0.214 0.872-1.003 1.521-1.941 1.521h-0.007c-0.531-0.002-1.030-0.211-1.404-0.588s-0.579-0.88-0.576-1.412zM13.897 11.37h0.011c0.375 0 0.734-0.072 1.064-0.201 0.401 0.182 0.731 0.461 0.97 0.808l0.005 0.008c0.001 0.002 0.003 0.004 0.004 0.006 0.251 0.367 0.401 0.82 0.401 1.309 0 0.001 0 0.001 0 0.002v-0 2.732h-4.678v-2.732c0-0.001 0-0.001 0-0.002 0-0.488 0.15-0.941 0.406-1.315l-0.005 0.008c0.004-0.005 0.007-0.010 0.010-0.015 0.219-0.315 0.505-0.569 0.839-0.745l0.013-0.006c0.007-0.004 0.013-0.008 0.020-0.011 0.28 0.099 0.603 0.156 0.939 0.157h0zM26.931 28.442l1.416 0.301c0.258 0.055 0.472 0.217 0.601 0.434h-2.691c-0.411 0-0.746-0.335-0.746-0.747 0 0 0-0 0-0 0-0.148-0.069-0.281-0.177-0.367l-0.001-0.001-0.442-0.35 0.413-0.493 1.432 1.132c0.054 0.043 0.119 0.075 0.19 0.090l0.003 0.001zM4.002 29.034l2.074-0.676c0.189-0.063 0.324-0.239 0.324-0.446v0-0.23h0.599c-0.022 0.116-0.055 0.257-0.052 0.377l0.015 0.605c-0.022 0.311-0.188 0.482-0.498 0.512h-2.702c0.067-0.063 0.147-0.111 0.236-0.141l0.005-0.001zM7.899 28.64l-0.014-0.562 0.531-3.962c0.049-0.373 0.34-0.665 0.708-0.716l0.004-0 4.797-0.638 10.039 5.411 0.627 0.496c0.034 0.228 0.108 0.433 0.217 0.616l-0.004-0.008h-17.036c0.083-0.176 0.131-0.381 0.131-0.598 0-0.014-0-0.027-0.001-0.041l0 0.002z"></path>
</symbol>
<symbol id="icon-yoga_9" viewBox="0 0 32 32">
<path d="M30.156 23.969l-1.894-0.378-2.365-2.661c0-0.010 0-0.022 0-0.034 0-1.055-0.65-1.958-1.571-2.33l-0.017-0.006-0.251-0.098c-0.078-0.073-0.161-0.143-0.248-0.209l-0.008-0.006-0.951-1.585c-0.657-1.095-1.244-2.174-2.078-3.146-0.619-0.722-2.238-2.546-2.366-2.76l-1.478-2.464c-0.010-0.017-0.020-0.031-0.030-0.044l0.001 0.001c-0.721-0.966-1.36-2.021-2.527-2.489-0.398-0.164-0.86-0.259-1.344-0.259-0.858 0-1.647 0.299-2.267 0.798l0.007-0.005c-0.762 0.613-1.372 1.381-1.789 2.26l-0.017 0.039-2.401 5.163-1.979 2.968c-0.011 0.015-0.021 0.033-0.030 0.052l-0.001 0.003-3.5 7.048c-0.033 0.065-0.052 0.141-0.052 0.222 0 0 0 0 0 0.001v-0 1.5c0 0.276 0.224 0.5 0.5 0.5v0h3.882c0 0 0 0 0 0 0.617 0 1.118-0.5 1.118-1.118 0-0.435-0.249-0.812-0.612-0.997l-0.006-0.003-1.152-0.576 8.441-12.662 0.386 0.193 0.452 2.26c0.014 0.068 0.040 0.128 0.075 0.181l-0.001-0.002 0.84 1.26c-0.132 0.283-0.209 0.614-0.209 0.963 0 0.376 0.089 0.731 0.248 1.045l-0.006-0.013c0.384 0.761 1.159 1.274 2.054 1.274 0.002 0 0.005 0 0.007 0h-0c0.128 0 1.757-0.261 1.757-0.261l0.122 0.172 0.23 0.751-0.835 0.815c-0.093 0.091-0.151 0.218-0.151 0.358 0 0.108 0.034 0.208 0.092 0.29l-0.001-0.002 0.758 1.076-0.056 0.328c-0.005 0.025-0.007 0.055-0.007 0.084 0 0.23 0.156 0.424 0.367 0.482l0.003 0.001 0.752 0.201 0.171 0.211c0.005 0.007 0.011 0.013 0.017 0.020 0.574 0.634 1.574 0.891 2.382 0.604 0.027-0.008 0.054-0.016 0.081-0.025l-0.035 0.363c-0.007 0.070-0.011 0.151-0.011 0.234 0 1.298 0.988 2.365 2.253 2.49l0.010 0.001q0.024 0.002 0.048 0.002c0.259-0 0.472-0.198 0.497-0.451l0-0.002 0.067-0.708 1.134 1.031c0.088 0.081 0.207 0.13 0.336 0.13 0 0 0 0 0 0h2.951c0.579-0.002 1.047-0.471 1.047-1.050 0-0.506-0.358-0.928-0.835-1.028l-0.007-0.001zM3.584 23.271c-0.053 0.078-0.084 0.174-0.084 0.277 0 0.195 0.111 0.363 0.273 0.446l0.003 0.001 1.657 0.829c0.020 0.010 0.037 0.026 0.049 0.044l0 0c0.011 0.017 0.017 0.038 0.017 0.060 0 0 0 0.001 0 0.001v-0c-0 0.065-0.053 0.118-0.118 0.118h-3.382v-0.883l1.734-3.491 1.377 0.307zM13.904 9.941l-0.233-0.116 0.276-0.553-0.894-0.447-0.486 0.972-6.861 10.292-1.513-0.337 1.242-2.501 1.982-2.974c0.013-0.019 0.025-0.041 0.036-0.064l0.001-0.003 2.417-5.197c0.19-0.403 0.406-0.751 0.658-1.069l-0.009 0.011c0.26-0.33 0.547-0.619 0.863-0.873l0.010-0.008c0.444-0.357 1.015-0.573 1.637-0.574h0c0.001 0 0.002 0 0.002 0 0.349 0 0.682 0.069 0.986 0.193l-0.017-0.006c0.821 0.329 1.296 1.091 1.805 1.769zM15.18 13.166l-0.209-0.313-0.428-2.142 1.82-1.421 1.209 2.015c0.001 0.002 0.003 0.004 0.005 0.007zM16.962 16.852c-0.486-0.020-0.901-0.304-1.107-0.712l-0.003-0.007c-0.086-0.17-0.137-0.371-0.137-0.584s0.051-0.414 0.141-0.591l-0.003 0.008 0.096-0.193c0.033-0.065 0.053-0.142 0.053-0.224 0-0.103-0.031-0.199-0.085-0.279l0.001 0.002-0.18-0.27 2.487-1.924 0.635 0.741c-1.704 1.429-1.914 3.169-1.896 4.035zM17.962 16.714c0.002-0.102 0.007-0.216 0.020-0.342l0.193 0.306zM21.818 22.109c-0.298-0.017-0.564-0.138-0.766-0.328l0.001 0.001c-0.186-0.173-0.297-0.43-0.537-0.542-0.155-0.073-0.353-0.096-0.519-0.141l0.014-0.082c0.005-0.025 0.007-0.055 0.007-0.084 0-0.108-0.034-0.208-0.092-0.29l0.001 0.002-0.631-0.896 0.601-0.586 1.198 1.677c0.021 0.030 0.044 0.056 0.070 0.079l0 0 0.715 0.65 0.049 0.541c-0.037 0.002-0.073 0.002-0.11 0zM24.522 24.918c-0.517-0.245-0.868-0.763-0.868-1.362 0-0.049 0.002-0.098 0.007-0.146l-0 0.006 0.020-0.21 0.925 0.841zM29.951 25.048h-2.757l-5.317-4.834-2.46-3.444-0.743-1.176-0.634 0.4c0.142-0.71 0.521-1.62 1.47-2.417l1.084 1.264 2.978 4.964c0.017 0.028 0.035 0.053 0.055 0.076l-0-0 4 4.5c0.071 0.079 0.165 0.136 0.273 0.158l0.003 0.001 2.057 0.411c0.023 0.005 0.041 0.025 0.041 0.049v0c-0 0.027-0.022 0.049-0.049 0.049 0 0 0 0 0 0v0z"></path>
</symbol>
<symbol id="icon-youtube" viewBox="0 0 32 32">
<path d="M19.271 18.917c-0.5 0-0.972 0.278-1.417 0.833v-3.354h-1.396v10.271h1.396v-0.75c0.458 0.57 0.93 0.854 1.417 0.854 0.569 0 0.937-0.291 1.104-0.875 0.097-0.292 0.146-0.798 0.146-1.521v-3.042c0-0.736-0.049-1.25-0.146-1.541-0.167-0.584-0.535-0.875-1.104-0.875zM19.146 24.479c0 0.681-0.201 1.021-0.604 1.021-0.236 0-0.465-0.111-0.687-0.333v-4.667c0.222-0.221 0.451-0.333 0.687-0.333 0.403 0 0.604 0.347 0.604 1.042v3.271zM23.688 18.917c-0.708 0-1.264 0.265-1.667 0.792-0.278 0.374-0.417 0.973-0.417 1.791v2.688c0 0.819 0.146 1.416 0.438 1.791 0.403 0.528 0.965 0.792 1.688 0.792 0.736 0 1.292-0.278 1.667-0.833 0.167-0.25 0.271-0.527 0.313-0.833 0.028-0.194 0.041-0.493 0.041-0.896v-0.187h-1.417v0.447c0 0.145-0.004 0.26-0.010 0.344-0.007 0.083-0.010 0.132-0.010 0.146-0.083 0.361-0.292 0.541-0.625 0.541-0.472 0-0.708-0.354-0.708-1.062v-1.354h2.771v-1.583c0-0.805-0.146-1.402-0.437-1.791-0.375-0.527-0.917-0.791-1.626-0.791zM24.354 21.938h-1.375v-0.709c0-0.708 0.229-1.062 0.687-1.062s0.688 0.354 0.688 1.062v0.709zM13.875 24.854c-0.306 0.43-0.597 0.645-0.875 0.645-0.195 0-0.299-0.104-0.312-0.313-0.014-0.027-0.021-0.208-0.021-0.541v-5.625h-1.375v6.042c0 0.528 0.042 0.903 0.125 1.125 0.125 0.39 0.417 0.584 0.875 0.584 0.514 0 1.042-0.313 1.583-0.938v0.833h1.396v-7.646h-1.396v5.833h-0zM15.688 11.167c0.444 0 0.667-0.355 0.667-1.063v-3.25c0-0.722-0.222-1.083-0.667-1.083s-0.667 0.361-0.667 1.083v3.25c0 0.708 0.222 1.063 0.667 1.063zM6.25 17.854h1.625v8.813h1.542v-8.813h1.667v-1.459h-4.833z"></path>
<path d="M26 0h-20c-1.653 0-3.066 0.587-4.24 1.76-1.174 1.175-1.76 2.587-1.76 4.24v20c0 1.653 0.587 3.066 1.76 4.239s2.587 1.761 4.24 1.761h20c1.652 0 3.066-0.587 4.239-1.761s1.76-2.586 1.76-4.239v-20c0-1.653-0.587-3.066-1.761-4.24-1.174-1.173-2.587-1.76-4.239-1.76zM18.896 4.625h1.396v5.666c0 0.334 0.007 0.514 0.021 0.542 0.014 0.223 0.125 0.334 0.333 0.334 0.278 0 0.569-0.215 0.875-0.646v-5.896h1.396v7.708h-1.396v-0.833c-0.57 0.625-1.104 0.938-1.604 0.938-0.445 0-0.743-0.187-0.896-0.562-0.083-0.25-0.125-0.632-0.125-1.146v-6.104h0zM13.625 7.125c0-0.805 0.146-1.41 0.438-1.812 0.375-0.527 0.917-0.792 1.625-0.792 0.68 0 1.222 0.265 1.625 0.792 0.292 0.403 0.437 1.007 0.437 1.812v2.708c0 0.833-0.146 1.438-0.437 1.812-0.403 0.528-0.945 0.792-1.625 0.792-0.708 0-1.25-0.264-1.625-0.792-0.292-0.402-0.438-1.006-0.438-1.812v-2.708zM9.875 1.979l1.104 4.062 1.062-4.062h1.563l-1.875 6.167v4.187h-1.542v-4.187c-0.153-0.764-0.472-1.861-0.958-3.292-0.097-0.319-0.257-0.798-0.479-1.438 2.147 6.962 1.977 6.485 1.807 6.008l-2.307-7.445h1.625zM27.042 27.125c-0.139 0.598-0.434 1.104-0.886 1.521s-0.976 0.66-1.573 0.729c-1.903 0.208-4.764 0.313-8.583 0.313s-6.681-0.104-8.583-0.313c-0.597-0.069-1.122-0.313-1.573-0.729s-0.747-0.923-0.885-1.521c-0.278-1.166-0.417-2.972-0.417-5.417 0-2.402 0.139-4.208 0.417-5.417 0.139-0.61 0.434-1.121 0.885-1.531s0.983-0.649 1.594-0.72c1.889-0.208 4.743-0.313 8.563-0.313 3.833 0 6.694 0.104 8.583 0.313 0.597 0.070 1.125 0.309 1.583 0.72s0.757 0.92 0.896 1.531c0.264 1.153 0.396 2.958 0.396 5.417-0.001 2.445-0.139 4.25-0.417 5.417z"></path>
</symbol>
</defs>
</svg>
