<svg xmlns="http://www.w3.org/2000/svg" width="512" height="512" fill="#836503"><path d="m467.131 462.539-18.392-4.6c2.529-22.268 9.6-84.533 10.6-93.4 1.689-14.878 4.585-29.57-5.486-42.283A35.151 35.151 0 0 0 428.234 309l-86.366-4.695L336 286.7v-41.51a39.913 39.913 0 0 0-2.051-12.652L328 214.7c0-8.861-.448-17.5-4.486-25.563a42.508 42.508 0 0 0-48.282-22.2l-4.22 1.063H255.66l-32.637-59.831a8.021 8.021 0 0 0-1.366-1.826l-56-56A8 8 0 0 0 160 48a8 8 0 0 0-2.343-5.657L147.313 32h9.787l92.733 77.278 29.477 49.133 13.721-8.231-30.175-50.3a8.012 8.012 0 0 0-1.739-2.03l-96-80A8 8 0 0 0 160 16h-32a8 8 0 0 0-5.657 13.657l10.849 10.849A8 8 0 0 0 128 48v8a8 8 0 0 0 8 8h20.687l52.841 52.842 24.526 44.963-18.454-7.383-.96-12.562a8 8 0 0 0-7.9-7.389l-15.326-.157-3.83-3.911a8 8 0 0 0-11.4-.03l-9.453 9.551-3.365.474a8.74 8.74 0 0 0-.394.065 32.034 32.034 0 0 0-25.357 25.178c-3.932 15.191-1.478 36.752 18.32 48.171a38.176 38.176 0 0 0 4.065 2.019v38.809a25.282 25.282 0 0 1-17.33 24.03v-53.34a25.34 25.34 0 0 1 3.149-12.254l-14-7.754a41.383 41.383 0 0 0-5.153 20.008v51.45l-5.824 11.64a8 8 0 0 0 9.686 11.169l17.2-5.738A41.265 41.265 0 0 0 176 254.64v-35.9c14.365-.576 27.424-8.806 35.067-14.77l3.16 4.272c.4.826-5.4 8.269-6.095 9.367-7.038 11.117-13.968 22.6-18.149 35.148L178.6 286.913c-.547 1.64-.886 4.082-1.847 5.541l-63.4 95.108A8 8 0 0 0 120 400h24a8 8 0 0 0 6.656-3.562l8.354-12.53 1.835 3.67a8 8 0 0 0 12.812 2.079l8-8A8 8 0 0 0 184 376v-6.388l28.438-18.955a8.048 8.048 0 0 0 1.962-1.857 271.308 271.308 0 0 1 25.268-29.134c2.577-2.58 5.23-5.1 7.924-7.582l77.42-7.743 3.4 10.191a8 8 0 0 0 7.155 5.458l91.8 4.991a19.145 19.145 0 0 1 13.953 7.219c5.329 6.729 3.865 15.213 2.97 23.1-.813 7.153-4.8 42.288-5.984 52.7H416v-48a8 8 0 0 0-8.8-7.96l-39.41 3.939 1.592 15.921L400 368.84V488a8 8 0 0 0 8 8h55.02a16.983 16.983 0 0 0 4.111-33.461Zm-303.2-262.587c-9.308-5.369-11.754-13.741-11.945-20.572l12.021 5.848a16.419 16.419 0 0 0 19.5 15.92c-6.413 2.052-13.328 2.409-19.578-1.196Zm25.534-1.219a16.379 16.379 0 0 0 4.593-4.519l.465-.69 2.3.954a62.717 62.717 0 0 1-7.36 4.255Zm5.152-22.489a8 8 0 0 0-9.689 2.908l-4.125 6.1a.424.424 0 0 1-.384.188.389.389 0 0 1-.328-.183.394.394 0 0 1-.061-.37l.576-1.976a8 8 0 0 0-4.18-9.433l-20.9-10.169c.079-.123.145-.252.226-.373a15.944 15.944 0 0 1 10.064-6.724l5.822-.819a8 8 0 0 0 4.572-2.295l5.634-5.693.464.473a7.993 7.993 0 0 0 5.634 2.4l11.3.116.781 10.215a8 8 0 0 0 5.006 6.818l40 16A8 8 0 0 0 248 184h2.988c4.037.218 8.193 1.318 8.977 2.539.106.167.27 1.72-1.481 5.112-2.316 2.668-15.34 6.289-30.8 7.88l-8.9-12.028-.012.009a7.986 7.986 0 0 0-3.359-2.646Zm-25.4 179.516A7.994 7.994 0 0 0 168 360v6.111l-.845-1.689a8 8 0 0 0-13.811-.86L139.719 384h-4.771l55.708-83.562a8.025 8.025 0 0 0 .934-1.908l11.059-33.177c1.877-5.633 3.261-11.314 5.929-16.651 2.794-5.588 5.409-11.26 8.884-16.473.587-.88 6.562-10.854 7.119-10.679 6.723 2.109 12.275 4.806 16.249 7.914 4.006 3.133 6.309 6.568 7 10.538a8 8 0 0 0-6.491 3.56l-32 48a4.894 4.894 0 0 0-.128.2Zm59.139-47.41a287.434 287.434 0 0 0-25.926 29.75l-5.669 3.778 25.961-41.537 27.378-41.064 5.079 25.4a287.5 287.5 0 0 0-26.824 23.673Zm17.141-95.1c.026-.129.238-.274.694-.5 1.791-.9 4.613-.92 6.583-1.407a54.415 54.415 0 0 0 6.415-1.971 27.888 27.888 0 0 0 11.933-8.183 23.347 23.347 0 0 0 4.557-17.851 28.839 28.839 0 0 1 17.951-.383 25.051 25.051 0 0 1 14.036 11.032c2.61 4.476 3.654 9.709 3.982 14.881.249 3.927.123 7.957 1.408 11.677l-49.407 16.481c.712-.237-3.449-9.057-3.9-9.825a36.625 36.625 0 0 0-6.759-8.44 35.547 35.547 0 0 0-4.241-3.369 45.845 45.845 0 0 0-2.2-1.371c-.663-.395-1.095-.56-1.049-.767Zm23.981 80.558a7.99 7.99 0 0 0 2.368-7.381l-6.615-33.075 52.913-17.637.628 1.88A23.983 23.983 0 0 1 320 245.19V288c0 .253.037.5.061.754Zm194.236 185.9a.932.932 0 0 1-.693.287H416V424h20.49l-4.439 39.1a8 8 0 0 0 6.009 8.663l25.19 6.3a.988.988 0 0 1 .75.959.932.932 0 0 1-.287.691Z"/><path d="M289.567 352.155a7.993 7.993 0 0 0-4.92.581l-157.555 72.72-15.9-21.207-.411-.554a8 8 0 0 0-10.458-2.145l-40.354 23.54a7.977 7.977 0 0 0-1.626 1.253l-24 24a8 8 0 0 0-2.1 7.6l8 32A8 8 0 0 0 48 496h40a8 8 0 0 0 7.761-9.94l-6.393-25.573 199.638-92.14a281.128 281.128 0 0 0 67.037 4.567l-.83-15.979a264.9 264.9 0 0 1-65.646-4.78Zm-212.92 96.581a8 8 0 0 0-4.408 9.2L77.754 480H54.246l-5.387-21.546 20.066-20.065 33.3-19.426 10.011 13.349Z"/></svg>